<mxfile host="drawio-plugin" modified="2022-01-13T19:31:33.453Z" agent="5.0 (Macintosh; Intel Mac OS X 12_1_0) AppleWebKit/537.36 (KHTML, like Gecko) Chrome/89.0.4389.114 Safari/537.36" etag="d6P-MZwh3ijMKx8hNKx1" version="14.7.4" type="embed" pages="9"><diagram id="uFTzuP9cs8ATGPWHVnQ6" name="Page-1"><mxGraphModel dx="446" dy="533" grid="1" gridSize="10" guides="1" tooltips="1" connect="1" arrows="1" fold="1" page="1" pageScale="1" pageWidth="827" pageHeight="1169" math="0" shadow="0"><root><mxCell id="0"/><mxCell id="1" parent="0"/><mxCell id="Nk6U56a0Wxg7XnYo2J4F-1" style="edgeStyle=orthogonalEdgeStyle;rounded=0;orthogonalLoop=1;jettySize=auto;html=1;exitX=0.5;exitY=1;exitDx=0;exitDy=0;entryX=0.5;entryY=0;entryDx=0;entryDy=0;endArrow=none;endFill=0;verticalAlign=middle;" parent="1" source="Nk6U56a0Wxg7XnYo2J4F-2" target="Nk6U56a0Wxg7XnYo2J4F-45" edge="1"><mxGeometry relative="1" as="geometry"/></mxCell><mxCell id="Nk6U56a0Wxg7XnYo2J4F-2" value="Package" style="rounded=1;arcSize=10;whiteSpace=wrap;html=1;align=center;" parent="1" vertex="1"><mxGeometry x="1496" y="460" width="100" height="40" as="geometry"/></mxCell><mxCell id="Nk6U56a0Wxg7XnYo2J4F-3" value="ValidityPeriod" style="rounded=1;arcSize=10;whiteSpace=wrap;html=1;align=center;" parent="1" vertex="1"><mxGeometry x="1436" y="945" width="100" height="40" as="geometry"/></mxCell><mxCell id="Nk6U56a0Wxg7XnYo2J4F-4" value="OptionalProduct" style="rounded=1;arcSize=10;whiteSpace=wrap;html=1;align=center;" parent="1" vertex="1"><mxGeometry x="1496" y="740" width="100" height="40" as="geometry"/></mxCell><mxCell id="Nk6U56a0Wxg7XnYo2J4F-5" value="Service" style="rounded=1;arcSize=10;whiteSpace=wrap;html=1;align=center;" parent="1" vertex="1"><mxGeometry x="936" y="738" width="100" height="40" as="geometry"/></mxCell><mxCell id="Nk6U56a0Wxg7XnYo2J4F-6" style="edgeStyle=orthogonalEdgeStyle;rounded=0;orthogonalLoop=1;jettySize=auto;html=1;exitX=0.5;exitY=1;exitDx=0;exitDy=0;entryX=0.5;entryY=0;entryDx=0;entryDy=0;endArrow=none;endFill=0;verticalAlign=middle;" parent="1" source="Nk6U56a0Wxg7XnYo2J4F-8" target="Nk6U56a0Wxg7XnYo2J4F-27" edge="1"><mxGeometry relative="1" as="geometry"/></mxCell><mxCell id="Nk6U56a0Wxg7XnYo2J4F-7" style="edgeStyle=orthogonalEdgeStyle;rounded=0;orthogonalLoop=1;jettySize=auto;html=1;exitX=1;exitY=0.5;exitDx=0;exitDy=0;entryX=0;entryY=0.5;entryDx=0;entryDy=0;endArrow=none;endFill=0;verticalAlign=middle;" parent="1" source="Nk6U56a0Wxg7XnYo2J4F-8" target="Nk6U56a0Wxg7XnYo2J4F-37" edge="1"><mxGeometry relative="1" as="geometry"/></mxCell><mxCell id="Nk6U56a0Wxg7XnYo2J4F-8" value="Order" style="rounded=1;arcSize=10;whiteSpace=wrap;html=1;align=center;" parent="1" vertex="1"><mxGeometry x="656" y="460" width="100" height="40" as="geometry"/></mxCell><mxCell id="Nk6U56a0Wxg7XnYo2J4F-9" style="edgeStyle=orthogonalEdgeStyle;rounded=0;orthogonalLoop=1;jettySize=auto;html=1;exitX=0.5;exitY=0;exitDx=0;exitDy=0;entryX=0.5;entryY=1;entryDx=0;entryDy=0;endArrow=none;endFill=0;verticalAlign=middle;" parent="1" source="Nk6U56a0Wxg7XnYo2J4F-10" target="Nk6U56a0Wxg7XnYo2J4F-27" edge="1"><mxGeometry relative="1" as="geometry"/></mxCell><mxCell id="Nk6U56a0Wxg7XnYo2J4F-10" value="Client" style="rounded=1;arcSize=10;whiteSpace=wrap;html=1;align=center;" parent="1" vertex="1"><mxGeometry x="656" y="740" width="100" height="40" as="geometry"/></mxCell><mxCell id="Nk6U56a0Wxg7XnYo2J4F-11" style="edgeStyle=orthogonalEdgeStyle;rounded=0;orthogonalLoop=1;jettySize=auto;html=1;exitX=0.5;exitY=0;exitDx=0;exitDy=0;entryX=0.5;entryY=1;entryDx=0;entryDy=0;endArrow=none;endFill=0;" parent="1" source="Nk6U56a0Wxg7XnYo2J4F-12" target="Nk6U56a0Wxg7XnYo2J4F-10" edge="1"><mxGeometry relative="1" as="geometry"/></mxCell><mxCell id="Nk6U56a0Wxg7XnYo2J4F-12" value="ClientAuditing" style="shape=rhombus;perimeter=rhombusPerimeter;whiteSpace=wrap;html=1;align=center;" parent="1" vertex="1"><mxGeometry x="646" y="830" width="120" height="60" as="geometry"/></mxCell><mxCell id="Nk6U56a0Wxg7XnYo2J4F-13" value="" style="group" parent="1" vertex="1" connectable="0"><mxGeometry x="536" y="740" width="120" height="20" as="geometry"/></mxCell><mxCell id="Nk6U56a0Wxg7XnYo2J4F-14" value="" style="html=1;verticalAlign=middle;labelBackgroundColor=none;endArrow=oval;endFill=0;endSize=8;rounded=0;" parent="Nk6U56a0Wxg7XnYo2J4F-13" edge="1"><mxGeometry x="90" y="-2.339999999999975" width="160" as="geometry"><mxPoint x="120" y="9.660000000000025" as="sourcePoint"/><mxPoint x="90" y="9.660000000000025" as="targetPoint"/></mxGeometry></mxCell><mxCell id="Nk6U56a0Wxg7XnYo2J4F-15" value="mail" style="text;strokeColor=none;fillColor=none;spacingLeft=4;spacingRight=4;overflow=hidden;rotatable=0;points=[[0,0.5],[1,0.5]];portConstraint=eastwest;fontSize=12;verticalAlign=middle;fontStyle=0;align=right;" parent="Nk6U56a0Wxg7XnYo2J4F-13" vertex="1"><mxGeometry width="80" height="20" as="geometry"/></mxCell><mxCell id="Nk6U56a0Wxg7XnYo2J4F-16" style="edgeStyle=orthogonalEdgeStyle;rounded=0;orthogonalLoop=1;jettySize=auto;html=1;exitX=0.5;exitY=0;exitDx=0;exitDy=0;entryX=0.5;entryY=1;entryDx=0;entryDy=0;endArrow=none;endFill=0;verticalAlign=middle;" parent="1" source="Nk6U56a0Wxg7XnYo2J4F-17" target="Nk6U56a0Wxg7XnYo2J4F-12" edge="1"><mxGeometry relative="1" as="geometry"/></mxCell><mxCell id="Nk6U56a0Wxg7XnYo2J4F-17" value="Auditing" style="rounded=1;arcSize=10;whiteSpace=wrap;html=1;align=center;" parent="1" vertex="1"><mxGeometry x="656" y="942" width="100" height="40" as="geometry"/></mxCell><mxCell id="Nk6U56a0Wxg7XnYo2J4F-18" value="" style="group" parent="1" vertex="1" connectable="0"><mxGeometry x="756" y="940" width="120" height="20" as="geometry"/></mxCell><mxCell id="Nk6U56a0Wxg7XnYo2J4F-19" value="" style="html=1;verticalAlign=bottom;labelBackgroundColor=none;endArrow=oval;endFill=0;endSize=8;rounded=0;" parent="Nk6U56a0Wxg7XnYo2J4F-18" edge="1"><mxGeometry width="160" relative="1" as="geometry"><mxPoint y="11.829999999999984" as="sourcePoint"/><mxPoint x="30" y="11.829999999999984" as="targetPoint"/></mxGeometry></mxCell><mxCell id="Nk6U56a0Wxg7XnYo2J4F-20" value="amount" style="text;strokeColor=none;fillColor=none;spacingLeft=4;spacingRight=4;overflow=hidden;rotatable=0;points=[[0,0.5],[1,0.5]];portConstraint=eastwest;fontSize=12;verticalAlign=middle;fontStyle=4" parent="Nk6U56a0Wxg7XnYo2J4F-18" vertex="1"><mxGeometry x="40" width="80" height="20" as="geometry"/></mxCell><mxCell id="Nk6U56a0Wxg7XnYo2J4F-21" value="" style="group" parent="1" vertex="1" connectable="0"><mxGeometry x="756" y="961" width="120" height="20" as="geometry"/></mxCell><mxCell id="Nk6U56a0Wxg7XnYo2J4F-22" value="" style="html=1;verticalAlign=bottom;labelBackgroundColor=none;endArrow=oval;endFill=0;endSize=8;rounded=0;" parent="Nk6U56a0Wxg7XnYo2J4F-21" edge="1"><mxGeometry width="160" relative="1" as="geometry"><mxPoint y="11.829999999999984" as="sourcePoint"/><mxPoint x="30" y="11.829999999999984" as="targetPoint"/></mxGeometry></mxCell><mxCell id="Nk6U56a0Wxg7XnYo2J4F-23" value="time" style="text;strokeColor=none;fillColor=none;spacingLeft=4;spacingRight=4;overflow=hidden;rotatable=0;points=[[0,0.5],[1,0.5]];portConstraint=eastwest;fontSize=12;verticalAlign=middle;" parent="Nk6U56a0Wxg7XnYo2J4F-21" vertex="1"><mxGeometry x="40" width="80" height="20" as="geometry"/></mxCell><mxCell id="Nk6U56a0Wxg7XnYo2J4F-24" value="" style="group" parent="1" vertex="1" connectable="0"><mxGeometry x="536" y="942" width="120" height="20" as="geometry"/></mxCell><mxCell id="Nk6U56a0Wxg7XnYo2J4F-25" value="" style="html=1;verticalAlign=middle;labelBackgroundColor=none;endArrow=oval;endFill=0;endSize=8;rounded=0;" parent="Nk6U56a0Wxg7XnYo2J4F-24" edge="1"><mxGeometry x="90" y="-2.339999999999975" width="160" as="geometry"><mxPoint x="120" y="9.660000000000025" as="sourcePoint"/><mxPoint x="90" y="9.660000000000025" as="targetPoint"/></mxGeometry></mxCell><mxCell id="Nk6U56a0Wxg7XnYo2J4F-26" value="date" style="text;strokeColor=none;fillColor=none;spacingLeft=4;spacingRight=4;overflow=hidden;rotatable=0;points=[[0,0.5],[1,0.5]];portConstraint=eastwest;fontSize=12;verticalAlign=middle;fontStyle=0;align=right;" parent="Nk6U56a0Wxg7XnYo2J4F-24" vertex="1"><mxGeometry width="80" height="20" as="geometry"/></mxCell><mxCell id="Nk6U56a0Wxg7XnYo2J4F-27" value="Relationship" style="shape=rhombus;perimeter=rhombusPerimeter;whiteSpace=wrap;html=1;align=center;" parent="1" vertex="1"><mxGeometry x="646" y="580" width="120" height="60" as="geometry"/></mxCell><mxCell id="Nk6U56a0Wxg7XnYo2J4F-28" value="" style="group" parent="1" vertex="1" connectable="0"><mxGeometry x="536" y="460" width="120" height="20" as="geometry"/></mxCell><mxCell id="Nk6U56a0Wxg7XnYo2J4F-29" value="" style="html=1;verticalAlign=middle;labelBackgroundColor=none;endArrow=oval;endFill=0;endSize=8;rounded=0;" parent="Nk6U56a0Wxg7XnYo2J4F-28" edge="1"><mxGeometry x="90" y="-2.339999999999975" width="160" as="geometry"><mxPoint x="120" y="9.660000000000025" as="sourcePoint"/><mxPoint x="90" y="9.660000000000025" as="targetPoint"/></mxGeometry></mxCell><mxCell id="Nk6U56a0Wxg7XnYo2J4F-30" value="mail" style="text;strokeColor=none;fillColor=none;spacingLeft=4;spacingRight=4;overflow=hidden;rotatable=0;points=[[0,0.5],[1,0.5]];portConstraint=eastwest;fontSize=12;verticalAlign=middle;fontStyle=0;align=right;" parent="Nk6U56a0Wxg7XnYo2J4F-28" vertex="1"><mxGeometry width="80" height="20" as="geometry"/></mxCell><mxCell id="Nk6U56a0Wxg7XnYo2J4F-31" value="" style="group" parent="1" vertex="1" connectable="0"><mxGeometry x="536" y="480" width="120" height="20" as="geometry"/></mxCell><mxCell id="Nk6U56a0Wxg7XnYo2J4F-32" value="" style="html=1;verticalAlign=middle;labelBackgroundColor=none;endArrow=oval;endFill=0;endSize=8;rounded=0;" parent="Nk6U56a0Wxg7XnYo2J4F-31" edge="1"><mxGeometry x="90" y="-2.339999999999975" width="160" as="geometry"><mxPoint x="120" y="9.660000000000025" as="sourcePoint"/><mxPoint x="90" y="9.660000000000025" as="targetPoint"/></mxGeometry></mxCell><mxCell id="Nk6U56a0Wxg7XnYo2J4F-33" value="mail" style="text;strokeColor=none;fillColor=none;spacingLeft=4;spacingRight=4;overflow=hidden;rotatable=0;points=[[0,0.5],[1,0.5]];portConstraint=eastwest;fontSize=12;verticalAlign=middle;fontStyle=0;align=right;" parent="Nk6U56a0Wxg7XnYo2J4F-31" vertex="1"><mxGeometry width="80" height="20" as="geometry"/></mxCell><mxCell id="Nk6U56a0Wxg7XnYo2J4F-34" value="" style="html=1;verticalAlign=middle;labelBackgroundColor=none;endArrow=oval;endFill=0;endSize=8;rounded=0;" parent="1" edge="1"><mxGeometry x="666" y="417.66" width="160" as="geometry"><mxPoint x="666" y="460" as="sourcePoint"/><mxPoint x="666" y="430" as="targetPoint"/></mxGeometry></mxCell><mxCell id="Nk6U56a0Wxg7XnYo2J4F-35" value="mail" style="text;strokeColor=none;fillColor=none;spacingLeft=4;spacingRight=4;overflow=hidden;rotatable=0;points=[[0,0.5],[1,0.5]];portConstraint=eastwest;fontSize=12;verticalAlign=middle;fontStyle=0;align=center;" parent="1" vertex="1"><mxGeometry x="626" y="400" width="80" height="20" as="geometry"/></mxCell><mxCell id="Nk6U56a0Wxg7XnYo2J4F-36" style="edgeStyle=orthogonalEdgeStyle;rounded=0;orthogonalLoop=1;jettySize=auto;html=1;exitX=1;exitY=0.5;exitDx=0;exitDy=0;entryX=0;entryY=0.5;entryDx=0;entryDy=0;endArrow=none;endFill=0;verticalAlign=middle;" parent="1" source="Nk6U56a0Wxg7XnYo2J4F-37" target="Nk6U56a0Wxg7XnYo2J4F-2" edge="1"><mxGeometry relative="1" as="geometry"/></mxCell><mxCell id="Nk6U56a0Wxg7XnYo2J4F-37" value="Relationship" style="shape=rhombus;perimeter=rhombusPerimeter;whiteSpace=wrap;html=1;align=center;" parent="1" vertex="1"><mxGeometry x="856" y="450" width="120" height="60" as="geometry"/></mxCell><mxCell id="Nk6U56a0Wxg7XnYo2J4F-38" value="" style="group" parent="1" vertex="1" connectable="0"><mxGeometry x="1496" y="400" width="20" height="59.99999999999994" as="geometry"/></mxCell><mxCell id="Nk6U56a0Wxg7XnYo2J4F-39" value="" style="html=1;verticalAlign=middle;labelBackgroundColor=none;endArrow=oval;endFill=0;endSize=8;rounded=0;" parent="Nk6U56a0Wxg7XnYo2J4F-38" edge="1"><mxGeometry x="10" y="17.660000000000025" width="160" as="geometry"><mxPoint x="9.999999999999886" y="59.99999999999994" as="sourcePoint"/><mxPoint x="9.999999999999886" y="29.999999999999943" as="targetPoint"/></mxGeometry></mxCell><mxCell id="Nk6U56a0Wxg7XnYo2J4F-40" value="ID" style="text;strokeColor=none;fillColor=none;spacingLeft=4;spacingRight=4;overflow=hidden;rotatable=0;points=[[0,0.5],[1,0.5]];portConstraint=eastwest;fontSize=12;verticalAlign=middle;fontStyle=0;align=center;" parent="Nk6U56a0Wxg7XnYo2J4F-38" vertex="1"><mxGeometry width="20" height="20" as="geometry"/></mxCell><mxCell id="Nk6U56a0Wxg7XnYo2J4F-41" value="" style="group" parent="1" vertex="1" connectable="0"><mxGeometry x="1521" y="400" width="50" height="59.99999999999994" as="geometry"/></mxCell><mxCell id="Nk6U56a0Wxg7XnYo2J4F-42" value="" style="html=1;verticalAlign=middle;labelBackgroundColor=none;endArrow=oval;endFill=0;endSize=8;rounded=0;" parent="Nk6U56a0Wxg7XnYo2J4F-41" edge="1"><mxGeometry x="24.66" y="17.660000000000025" width="160" as="geometry"><mxPoint x="24.659999999999886" y="59.99999999999994" as="sourcePoint"/><mxPoint x="24.659999999999886" y="29.999999999999943" as="targetPoint"/></mxGeometry></mxCell><mxCell id="Nk6U56a0Wxg7XnYo2J4F-43" value="name" style="text;strokeColor=none;fillColor=none;spacingLeft=4;spacingRight=4;overflow=hidden;rotatable=0;points=[[0,0.5],[1,0.5]];portConstraint=eastwest;fontSize=12;verticalAlign=middle;fontStyle=0;align=center;" parent="Nk6U56a0Wxg7XnYo2J4F-41" vertex="1"><mxGeometry width="50" height="20" as="geometry"/></mxCell><mxCell id="Nk6U56a0Wxg7XnYo2J4F-44" style="edgeStyle=orthogonalEdgeStyle;rounded=0;orthogonalLoop=1;jettySize=auto;html=1;exitX=0.5;exitY=1;exitDx=0;exitDy=0;entryX=0.5;entryY=0;entryDx=0;entryDy=0;endArrow=none;endFill=0;verticalAlign=middle;" parent="1" source="Nk6U56a0Wxg7XnYo2J4F-45" target="Nk6U56a0Wxg7XnYo2J4F-4" edge="1"><mxGeometry relative="1" as="geometry"/></mxCell><mxCell id="Nk6U56a0Wxg7XnYo2J4F-45" value="ProductAvailability" style="shape=rhombus;perimeter=rhombusPerimeter;whiteSpace=wrap;html=1;align=center;" parent="1" vertex="1"><mxGeometry x="1486" y="570" width="120" height="70" as="geometry"/></mxCell><mxCell id="Nk6U56a0Wxg7XnYo2J4F-46" value="" style="group" parent="1" vertex="1" connectable="0"><mxGeometry x="1496" y="780" width="50" height="60" as="geometry"/></mxCell><mxCell id="Nk6U56a0Wxg7XnYo2J4F-47" value="" style="html=1;verticalAlign=middle;labelBackgroundColor=none;endArrow=oval;endFill=0;endSize=8;rounded=0;" parent="Nk6U56a0Wxg7XnYo2J4F-46" edge="1"><mxGeometry x="24.24000000000001" y="-12.339999999999975" width="160" as="geometry"><mxPoint x="24.58000000000004" as="sourcePoint"/><mxPoint x="24.58000000000004" y="30" as="targetPoint"/></mxGeometry></mxCell><mxCell id="Nk6U56a0Wxg7XnYo2J4F-48" value="name" style="text;strokeColor=none;fillColor=none;spacingLeft=4;spacingRight=4;overflow=hidden;rotatable=0;points=[[0,0.5],[1,0.5]];portConstraint=eastwest;fontSize=12;verticalAlign=middle;fontStyle=0;align=center;" parent="Nk6U56a0Wxg7XnYo2J4F-46" vertex="1"><mxGeometry y="40" width="50" height="20" as="geometry"/></mxCell><mxCell id="Nk6U56a0Wxg7XnYo2J4F-49" value="" style="group" parent="1" vertex="1" connectable="0"><mxGeometry x="1546" y="780" width="50" height="60" as="geometry"/></mxCell><mxCell id="Nk6U56a0Wxg7XnYo2J4F-50" value="" style="html=1;verticalAlign=middle;labelBackgroundColor=none;endArrow=oval;endFill=0;endSize=8;rounded=0;" parent="Nk6U56a0Wxg7XnYo2J4F-49" edge="1"><mxGeometry x="24.24000000000001" y="-12.339999999999975" width="160" as="geometry"><mxPoint x="24.58000000000004" as="sourcePoint"/><mxPoint x="24.58000000000004" y="30" as="targetPoint"/></mxGeometry></mxCell><mxCell id="Nk6U56a0Wxg7XnYo2J4F-51" value="cost" style="text;strokeColor=none;fillColor=none;spacingLeft=4;spacingRight=4;overflow=hidden;rotatable=0;points=[[0,0.5],[1,0.5]];portConstraint=eastwest;fontSize=12;verticalAlign=middle;fontStyle=0;align=center;" parent="Nk6U56a0Wxg7XnYo2J4F-49" vertex="1"><mxGeometry x="5" y="40" width="40" height="20" as="geometry"/></mxCell><mxCell id="Nk6U56a0Wxg7XnYo2J4F-52" value="" style="group" parent="1" vertex="1" connectable="0"><mxGeometry x="1596" y="742" width="120" height="20" as="geometry"/></mxCell><mxCell id="Nk6U56a0Wxg7XnYo2J4F-53" value="" style="html=1;verticalAlign=bottom;labelBackgroundColor=none;endArrow=oval;endFill=0;endSize=8;rounded=0;" parent="Nk6U56a0Wxg7XnYo2J4F-52" edge="1"><mxGeometry width="160" relative="1" as="geometry"><mxPoint y="11.829999999999984" as="sourcePoint"/><mxPoint x="30" y="11.829999999999984" as="targetPoint"/></mxGeometry></mxCell><mxCell id="Nk6U56a0Wxg7XnYo2J4F-54" value="ID" style="text;strokeColor=none;fillColor=none;spacingLeft=4;spacingRight=4;overflow=hidden;rotatable=0;points=[[0,0.5],[1,0.5]];portConstraint=eastwest;fontSize=12;verticalAlign=middle;fontStyle=4" parent="Nk6U56a0Wxg7XnYo2J4F-52" vertex="1"><mxGeometry x="40" width="30" height="20" as="geometry"/></mxCell><mxCell id="Nk6U56a0Wxg7XnYo2J4F-55" value="" style="group" parent="1" vertex="1" connectable="0"><mxGeometry x="536" y="760" width="120" height="20" as="geometry"/></mxCell><mxCell id="Nk6U56a0Wxg7XnYo2J4F-56" value="" style="html=1;verticalAlign=middle;labelBackgroundColor=none;endArrow=oval;endFill=0;endSize=8;rounded=0;" parent="Nk6U56a0Wxg7XnYo2J4F-55" edge="1"><mxGeometry x="90" y="-2.339999999999975" width="160" as="geometry"><mxPoint x="120" y="9.660000000000025" as="sourcePoint"/><mxPoint x="90" y="9.660000000000025" as="targetPoint"/></mxGeometry></mxCell><mxCell id="Nk6U56a0Wxg7XnYo2J4F-57" value="password" style="text;strokeColor=none;fillColor=none;spacingLeft=4;spacingRight=4;overflow=hidden;rotatable=0;points=[[0,0.5],[1,0.5]];portConstraint=eastwest;fontSize=12;verticalAlign=middle;fontStyle=0;align=right;" parent="Nk6U56a0Wxg7XnYo2J4F-55" vertex="1"><mxGeometry width="80" height="20" as="geometry"/></mxCell><mxCell id="Nk6U56a0Wxg7XnYo2J4F-58" value="" style="group" parent="1" vertex="1" connectable="0"><mxGeometry x="536" y="720" width="120" height="20" as="geometry"/></mxCell><mxCell id="Nk6U56a0Wxg7XnYo2J4F-59" value="" style="html=1;verticalAlign=middle;labelBackgroundColor=none;endArrow=oval;endFill=0;endSize=8;rounded=0;" parent="Nk6U56a0Wxg7XnYo2J4F-58" edge="1"><mxGeometry x="90" y="-2.339999999999975" width="160" as="geometry"><mxPoint x="120" y="20" as="sourcePoint"/><mxPoint x="90" y="9.660000000000025" as="targetPoint"/></mxGeometry></mxCell><mxCell id="Nk6U56a0Wxg7XnYo2J4F-60" value="username" style="text;strokeColor=none;fillColor=none;spacingLeft=4;spacingRight=4;overflow=hidden;rotatable=0;points=[[0,0.5],[1,0.5]];portConstraint=eastwest;fontSize=12;verticalAlign=middle;fontStyle=4;align=right;" parent="Nk6U56a0Wxg7XnYo2J4F-58" vertex="1"><mxGeometry width="80" height="20" as="geometry"/></mxCell></root></mxGraphModel></diagram><diagram name="ER" id="6G8UcSn_HitcWzmbIErN"><mxGraphModel dx="4407" dy="4007" grid="1" gridSize="10" guides="1" tooltips="1" connect="1" arrows="1" fold="1" page="1" pageScale="1" pageWidth="827" pageHeight="1169" math="0" shadow="0"><root><mxCell id="hTZK16zC_FTHgRc9aFk6-0"/><mxCell id="hTZK16zC_FTHgRc9aFk6-1" parent="hTZK16zC_FTHgRc9aFk6-0"/><mxCell id="uyfdgXovaq0SkpgSyAwf-4" style="rounded=0;orthogonalLoop=1;jettySize=auto;html=1;exitX=0.25;exitY=1;exitDx=0;exitDy=0;entryX=0.5;entryY=0;entryDx=0;entryDy=0;endArrow=none;endFill=0;" parent="hTZK16zC_FTHgRc9aFk6-1" source="hTZK16zC_FTHgRc9aFk6-2" target="uyfdgXovaq0SkpgSyAwf-2" edge="1"><mxGeometry relative="1" as="geometry"/></mxCell><mxCell id="AFlesmBmFnRysSdwtxAo-1" style="edgeStyle=orthogonalEdgeStyle;rounded=0;orthogonalLoop=1;jettySize=auto;html=1;exitX=1;exitY=0.5;exitDx=0;exitDy=0;entryX=0.5;entryY=1;entryDx=0;entryDy=0;endArrow=none;endFill=0;" edge="1" parent="hTZK16zC_FTHgRc9aFk6-1" source="hTZK16zC_FTHgRc9aFk6-2" target="AFlesmBmFnRysSdwtxAo-0"><mxGeometry relative="1" as="geometry"/></mxCell><mxCell id="hTZK16zC_FTHgRc9aFk6-2" value="Auditing" style="rounded=1;arcSize=10;whiteSpace=wrap;html=1;align=center;" parent="hTZK16zC_FTHgRc9aFk6-1" vertex="1"><mxGeometry x="410" y="860" width="100" height="40" as="geometry"/></mxCell><mxCell id="hTZK16zC_FTHgRc9aFk6-3" value="Client" style="rounded=1;arcSize=10;whiteSpace=wrap;html=1;align=center;" parent="hTZK16zC_FTHgRc9aFk6-1" vertex="1"><mxGeometry x="555" y="530" width="100" height="40" as="geometry"/></mxCell><mxCell id="hTZK16zC_FTHgRc9aFk6-4" value="Order" style="rounded=1;arcSize=10;whiteSpace=wrap;html=1;align=center;" parent="hTZK16zC_FTHgRc9aFk6-1" vertex="1"><mxGeometry x="725" y="380" width="100" height="40" as="geometry"/></mxCell><mxCell id="hTZK16zC_FTHgRc9aFk6-5" value="Service" style="rounded=1;arcSize=10;whiteSpace=wrap;html=1;align=center;" parent="hTZK16zC_FTHgRc9aFk6-1" vertex="1"><mxGeometry x="1295" y="860" width="100" height="40" as="geometry"/></mxCell><mxCell id="hTZK16zC_FTHgRc9aFk6-6" value="Service_Package" style="rounded=1;arcSize=10;whiteSpace=wrap;html=1;align=center;" parent="hTZK16zC_FTHgRc9aFk6-1" vertex="1"><mxGeometry x="1295" y="390" width="100" height="40" as="geometry"/></mxCell><mxCell id="hTZK16zC_FTHgRc9aFk6-121" style="edgeStyle=none;rounded=0;orthogonalLoop=1;jettySize=auto;html=1;exitX=0.5;exitY=1;exitDx=0;exitDy=0;entryX=0.5;entryY=0;entryDx=0;entryDy=0;endArrow=none;endFill=0;" parent="hTZK16zC_FTHgRc9aFk6-1" source="hTZK16zC_FTHgRc9aFk6-7" target="hTZK16zC_FTHgRc9aFk6-20" edge="1"><mxGeometry relative="1" as="geometry"/></mxCell><mxCell id="hTZK16zC_FTHgRc9aFk6-7" value="Validity" style="rounded=1;arcSize=10;whiteSpace=wrap;html=1;align=center;" parent="hTZK16zC_FTHgRc9aFk6-1" vertex="1"><mxGeometry x="1293" y="140" width="100" height="40" as="geometry"/></mxCell><mxCell id="uyfdgXovaq0SkpgSyAwf-30" style="edgeStyle=none;rounded=0;orthogonalLoop=1;jettySize=auto;html=1;exitX=1;exitY=0.5;exitDx=0;exitDy=0;entryX=0;entryY=0.5;entryDx=0;entryDy=0;endArrow=none;endFill=0;" parent="hTZK16zC_FTHgRc9aFk6-1" source="hTZK16zC_FTHgRc9aFk6-8" target="uyfdgXovaq0SkpgSyAwf-29" edge="1"><mxGeometry relative="1" as="geometry"/></mxCell><mxCell id="hTZK16zC_FTHgRc9aFk6-8" value="Optional_Product" style="rounded=1;arcSize=10;whiteSpace=wrap;html=1;align=center;" parent="hTZK16zC_FTHgRc9aFk6-1" vertex="1"><mxGeometry x="1050" y="710" width="100" height="40" as="geometry"/></mxCell><mxCell id="hTZK16zC_FTHgRc9aFk6-9" style="edgeStyle=orthogonalEdgeStyle;rounded=0;orthogonalLoop=1;jettySize=auto;html=1;exitX=0.5;exitY=0;exitDx=0;exitDy=0;entryX=0.5;entryY=1;entryDx=0;entryDy=0;" parent="hTZK16zC_FTHgRc9aFk6-1" source="hTZK16zC_FTHgRc9aFk6-10" target="hTZK16zC_FTHgRc9aFk6-5" edge="1"><mxGeometry relative="1" as="geometry"/></mxCell><mxCell id="hTZK16zC_FTHgRc9aFk6-10" value="Mobile_Internet_Service" style="rounded=1;arcSize=10;whiteSpace=wrap;html=1;align=center;" parent="hTZK16zC_FTHgRc9aFk6-1" vertex="1"><mxGeometry x="1207.5" y="980" width="145" height="40" as="geometry"/></mxCell><mxCell id="hTZK16zC_FTHgRc9aFk6-11" style="edgeStyle=orthogonalEdgeStyle;rounded=0;orthogonalLoop=1;jettySize=auto;html=1;exitX=0.5;exitY=0;exitDx=0;exitDy=0;entryX=0.5;entryY=1;entryDx=0;entryDy=0;" parent="hTZK16zC_FTHgRc9aFk6-1" source="hTZK16zC_FTHgRc9aFk6-12" target="hTZK16zC_FTHgRc9aFk6-5" edge="1"><mxGeometry relative="1" as="geometry"/></mxCell><mxCell id="hTZK16zC_FTHgRc9aFk6-12" value="Fixed_Phone_Service" style="rounded=1;arcSize=10;whiteSpace=wrap;html=1;align=center;" parent="hTZK16zC_FTHgRc9aFk6-1" vertex="1"><mxGeometry x="1410" y="980" width="130" height="40" as="geometry"/></mxCell><mxCell id="hTZK16zC_FTHgRc9aFk6-13" style="edgeStyle=orthogonalEdgeStyle;rounded=0;orthogonalLoop=1;jettySize=auto;html=1;exitX=0.5;exitY=0;exitDx=0;exitDy=0;entryX=0.5;entryY=1;entryDx=0;entryDy=0;" parent="hTZK16zC_FTHgRc9aFk6-1" source="hTZK16zC_FTHgRc9aFk6-14" target="hTZK16zC_FTHgRc9aFk6-5" edge="1"><mxGeometry relative="1" as="geometry"/></mxCell><mxCell id="hTZK16zC_FTHgRc9aFk6-14" value="Fixed_Phone_Service" style="rounded=1;arcSize=10;whiteSpace=wrap;html=1;align=center;" parent="hTZK16zC_FTHgRc9aFk6-1" vertex="1"><mxGeometry x="1580" y="980" width="125" height="40" as="geometry"/></mxCell><mxCell id="hTZK16zC_FTHgRc9aFk6-15" value="OFFER&lt;br&gt;(Service_Composition)" style="shape=rhombus;perimeter=rhombusPerimeter;whiteSpace=wrap;html=1;align=center;" parent="hTZK16zC_FTHgRc9aFk6-1" vertex="1"><mxGeometry x="1335" y="560" width="70" height="60" as="geometry"/></mxCell><mxCell id="hTZK16zC_FTHgRc9aFk6-16" value="" style="endArrow=none;html=1;rounded=0;edgeStyle=orthogonalEdgeStyle;entryX=0.75;entryY=1;entryDx=0;entryDy=0;exitX=0.5;exitY=0;exitDx=0;exitDy=0;" parent="hTZK16zC_FTHgRc9aFk6-1" source="hTZK16zC_FTHgRc9aFk6-15" target="hTZK16zC_FTHgRc9aFk6-6" edge="1"><mxGeometry relative="1" as="geometry"><mxPoint x="1015" y="560" as="sourcePoint"/><mxPoint x="1175" y="560" as="targetPoint"/></mxGeometry></mxCell><mxCell id="hTZK16zC_FTHgRc9aFk6-17" value="1:N" style="resizable=0;html=1;align=right;verticalAlign=bottom;" parent="hTZK16zC_FTHgRc9aFk6-16" connectable="0" vertex="1"><mxGeometry x="1" relative="1" as="geometry"><mxPoint x="20" y="20" as="offset"/></mxGeometry></mxCell><mxCell id="hTZK16zC_FTHgRc9aFk6-18" value="" style="endArrow=none;html=1;rounded=0;edgeStyle=orthogonalEdgeStyle;entryX=0.75;entryY=0;entryDx=0;entryDy=0;exitX=0.5;exitY=1;exitDx=0;exitDy=0;" parent="hTZK16zC_FTHgRc9aFk6-1" source="hTZK16zC_FTHgRc9aFk6-15" target="hTZK16zC_FTHgRc9aFk6-5" edge="1"><mxGeometry relative="1" as="geometry"><mxPoint x="1390" y="640" as="sourcePoint"/><mxPoint x="1310" y="550" as="targetPoint"/></mxGeometry></mxCell><mxCell id="hTZK16zC_FTHgRc9aFk6-19" value="0:N" style="resizable=0;html=1;align=right;verticalAlign=bottom;" parent="hTZK16zC_FTHgRc9aFk6-18" connectable="0" vertex="1"><mxGeometry x="1" relative="1" as="geometry"><mxPoint x="20" as="offset"/></mxGeometry></mxCell><mxCell id="hTZK16zC_FTHgRc9aFk6-120" style="edgeStyle=none;rounded=0;orthogonalLoop=1;jettySize=auto;html=1;exitX=0.5;exitY=1;exitDx=0;exitDy=0;entryX=0.5;entryY=0;entryDx=0;entryDy=0;endArrow=none;endFill=0;" parent="hTZK16zC_FTHgRc9aFk6-1" source="hTZK16zC_FTHgRc9aFk6-20" target="hTZK16zC_FTHgRc9aFk6-6" edge="1"><mxGeometry relative="1" as="geometry"/></mxCell><mxCell id="hTZK16zC_FTHgRc9aFk6-20" value="ALLOW" style="shape=rhombus;perimeter=rhombusPerimeter;whiteSpace=wrap;html=1;align=center;" parent="hTZK16zC_FTHgRc9aFk6-1" vertex="1"><mxGeometry x="1310" y="280" width="70" height="60" as="geometry"/></mxCell><mxCell id="hTZK16zC_FTHgRc9aFk6-25" value="ALLOW&lt;br&gt;(Optional_Product_Composition)" style="shape=rhombus;perimeter=rhombusPerimeter;whiteSpace=wrap;html=1;align=center;" parent="hTZK16zC_FTHgRc9aFk6-1" vertex="1"><mxGeometry x="1155" y="560" width="70" height="60" as="geometry"/></mxCell><mxCell id="hTZK16zC_FTHgRc9aFk6-26" value="" style="endArrow=none;html=1;rounded=0;edgeStyle=orthogonalEdgeStyle;entryX=0.25;entryY=1;entryDx=0;entryDy=0;exitX=0.5;exitY=0;exitDx=0;exitDy=0;" parent="hTZK16zC_FTHgRc9aFk6-1" source="hTZK16zC_FTHgRc9aFk6-25" target="hTZK16zC_FTHgRc9aFk6-6" edge="1"><mxGeometry relative="1" as="geometry"><mxPoint x="705" y="560" as="sourcePoint"/><mxPoint x="985" y="400" as="targetPoint"/><Array as="points"><mxPoint x="1190" y="490"/><mxPoint x="1320" y="490"/></Array></mxGeometry></mxCell><mxCell id="hTZK16zC_FTHgRc9aFk6-27" value="0:N" style="resizable=0;html=1;align=right;verticalAlign=bottom;" parent="hTZK16zC_FTHgRc9aFk6-26" connectable="0" vertex="1"><mxGeometry x="1" relative="1" as="geometry"><mxPoint x="-10" y="20" as="offset"/></mxGeometry></mxCell><mxCell id="hTZK16zC_FTHgRc9aFk6-28" value="" style="endArrow=none;html=1;rounded=0;edgeStyle=orthogonalEdgeStyle;entryX=0.75;entryY=0;entryDx=0;entryDy=0;exitX=0.5;exitY=1;exitDx=0;exitDy=0;" parent="hTZK16zC_FTHgRc9aFk6-1" source="hTZK16zC_FTHgRc9aFk6-25" target="hTZK16zC_FTHgRc9aFk6-8" edge="1"><mxGeometry relative="1" as="geometry"><mxPoint x="1105" y="640" as="sourcePoint"/><mxPoint x="1315" y="540" as="targetPoint"/><Array as="points"><mxPoint x="1190" y="650"/><mxPoint x="1125" y="650"/></Array></mxGeometry></mxCell><mxCell id="hTZK16zC_FTHgRc9aFk6-29" value="0:N" style="resizable=0;html=1;align=right;verticalAlign=bottom;" parent="hTZK16zC_FTHgRc9aFk6-28" connectable="0" vertex="1"><mxGeometry x="1" relative="1" as="geometry"><mxPoint x="20" as="offset"/></mxGeometry></mxCell><mxCell id="hTZK16zC_FTHgRc9aFk6-30" value="&lt;font style=&quot;font-size: 10px&quot;&gt;ACTIVATION&lt;br&gt;(Optional_Schedule)&lt;br&gt;&lt;/font&gt;" style="shape=rhombus;perimeter=rhombusPerimeter;whiteSpace=wrap;html=1;align=center;" parent="hTZK16zC_FTHgRc9aFk6-1" vertex="1"><mxGeometry x="805" y="620" width="70" height="60" as="geometry"/></mxCell><mxCell id="hTZK16zC_FTHgRc9aFk6-31" value="" style="endArrow=none;html=1;rounded=0;edgeStyle=orthogonalEdgeStyle;entryX=1;entryY=0.5;entryDx=0;entryDy=0;exitX=0;exitY=0.5;exitDx=0;exitDy=0;" parent="hTZK16zC_FTHgRc9aFk6-1" source="hTZK16zC_FTHgRc9aFk6-30" target="hTZK16zC_FTHgRc9aFk6-3" edge="1"><mxGeometry relative="1" as="geometry"><mxPoint x="445" y="660" as="sourcePoint"/><mxPoint x="575" y="620" as="targetPoint"/><Array as="points"><mxPoint x="750" y="650"/><mxPoint x="750" y="550"/></Array></mxGeometry></mxCell><mxCell id="hTZK16zC_FTHgRc9aFk6-32" value="1:N" style="resizable=0;html=1;align=right;verticalAlign=bottom;" parent="hTZK16zC_FTHgRc9aFk6-31" connectable="0" vertex="1"><mxGeometry x="1" relative="1" as="geometry"><mxPoint x="20" y="20" as="offset"/></mxGeometry></mxCell><mxCell id="hTZK16zC_FTHgRc9aFk6-33" value="" style="endArrow=none;html=1;rounded=0;edgeStyle=orthogonalEdgeStyle;entryX=0;entryY=0.5;entryDx=0;entryDy=0;exitX=0.5;exitY=1;exitDx=0;exitDy=0;" parent="hTZK16zC_FTHgRc9aFk6-1" source="hTZK16zC_FTHgRc9aFk6-30" target="hTZK16zC_FTHgRc9aFk6-8" edge="1"><mxGeometry relative="1" as="geometry"><mxPoint x="845" y="740" as="sourcePoint"/><mxPoint x="760" y="750" as="targetPoint"/></mxGeometry></mxCell><mxCell id="hTZK16zC_FTHgRc9aFk6-34" value="1:N" style="resizable=0;html=1;align=right;verticalAlign=bottom;" parent="hTZK16zC_FTHgRc9aFk6-33" connectable="0" vertex="1"><mxGeometry x="1" relative="1" as="geometry"><mxPoint x="-10" y="20" as="offset"/></mxGeometry></mxCell><mxCell id="AFlesmBmFnRysSdwtxAo-16" style="edgeStyle=none;rounded=0;orthogonalLoop=1;jettySize=auto;html=1;exitX=0.5;exitY=0;exitDx=0;exitDy=0;entryX=0.25;entryY=1;entryDx=0;entryDy=0;endArrow=none;endFill=0;" edge="1" parent="hTZK16zC_FTHgRc9aFk6-1" source="hTZK16zC_FTHgRc9aFk6-35" target="hTZK16zC_FTHgRc9aFk6-4"><mxGeometry relative="1" as="geometry"><Array as="points"><mxPoint x="720" y="460"/><mxPoint x="750" y="460"/></Array></mxGeometry></mxCell><mxCell id="hTZK16zC_FTHgRc9aFk6-35" value="HISTORY&lt;br&gt;(Service_Schedule)" style="shape=rhombus;perimeter=rhombusPerimeter;whiteSpace=wrap;html=1;align=center;" parent="hTZK16zC_FTHgRc9aFk6-1" vertex="1"><mxGeometry x="685" y="770" width="70" height="60" as="geometry"/></mxCell><mxCell id="hTZK16zC_FTHgRc9aFk6-36" value="" style="endArrow=none;html=1;rounded=0;edgeStyle=orthogonalEdgeStyle;entryX=0.75;entryY=1;entryDx=0;entryDy=0;exitX=0.5;exitY=0;exitDx=0;exitDy=0;" parent="hTZK16zC_FTHgRc9aFk6-1" source="hTZK16zC_FTHgRc9aFk6-35" target="hTZK16zC_FTHgRc9aFk6-3" edge="1"><mxGeometry relative="1" as="geometry"><mxPoint x="285" y="730" as="sourcePoint"/><mxPoint x="600" y="620" as="targetPoint"/><Array as="points"><mxPoint x="720" y="740"/><mxPoint x="630" y="740"/></Array></mxGeometry></mxCell><mxCell id="hTZK16zC_FTHgRc9aFk6-37" value="1:N" style="resizable=0;html=1;align=right;verticalAlign=bottom;" parent="hTZK16zC_FTHgRc9aFk6-36" connectable="0" vertex="1"><mxGeometry x="1" relative="1" as="geometry"><mxPoint x="20" y="20" as="offset"/></mxGeometry></mxCell><mxCell id="hTZK16zC_FTHgRc9aFk6-38" value="" style="endArrow=none;html=1;rounded=0;edgeStyle=orthogonalEdgeStyle;entryX=0;entryY=0.5;entryDx=0;entryDy=0;exitX=0.5;exitY=1;exitDx=0;exitDy=0;" parent="hTZK16zC_FTHgRc9aFk6-1" source="hTZK16zC_FTHgRc9aFk6-35" target="hTZK16zC_FTHgRc9aFk6-5" edge="1"><mxGeometry relative="1" as="geometry"><mxPoint x="685" y="810" as="sourcePoint"/><mxPoint x="600" y="820" as="targetPoint"/><Array as="points"><mxPoint x="720" y="880"/></Array></mxGeometry></mxCell><mxCell id="hTZK16zC_FTHgRc9aFk6-39" value="1:N" style="resizable=0;html=1;align=right;verticalAlign=bottom;" parent="hTZK16zC_FTHgRc9aFk6-38" connectable="0" vertex="1"><mxGeometry x="1" relative="1" as="geometry"><mxPoint x="-5" as="offset"/></mxGeometry></mxCell><mxCell id="hTZK16zC_FTHgRc9aFk6-40" value="&lt;font style=&quot;font-size: 10px&quot;&gt;ORDINATION&lt;/font&gt;" style="shape=rhombus;perimeter=rhombusPerimeter;whiteSpace=wrap;html=1;align=center;" parent="hTZK16zC_FTHgRc9aFk6-1" vertex="1"><mxGeometry x="570" y="440" width="70" height="60" as="geometry"/></mxCell><mxCell id="hTZK16zC_FTHgRc9aFk6-41" value="" style="endArrow=none;html=1;rounded=0;edgeStyle=orthogonalEdgeStyle;entryX=0;entryY=0.75;entryDx=0;entryDy=0;exitX=0.5;exitY=0;exitDx=0;exitDy=0;" parent="hTZK16zC_FTHgRc9aFk6-1" source="hTZK16zC_FTHgRc9aFk6-40" target="hTZK16zC_FTHgRc9aFk6-4" edge="1"><mxGeometry relative="1" as="geometry"><mxPoint x="285" y="440" as="sourcePoint"/><mxPoint x="705" y="430" as="targetPoint"/></mxGeometry></mxCell><mxCell id="hTZK16zC_FTHgRc9aFk6-42" value="1:1" style="resizable=0;html=1;align=right;verticalAlign=bottom;" parent="hTZK16zC_FTHgRc9aFk6-41" connectable="0" vertex="1"><mxGeometry x="1" relative="1" as="geometry"><mxPoint y="20" as="offset"/></mxGeometry></mxCell><mxCell id="hTZK16zC_FTHgRc9aFk6-43" value="" style="endArrow=none;html=1;rounded=0;edgeStyle=orthogonalEdgeStyle;entryX=0.5;entryY=0;entryDx=0;entryDy=0;exitX=0.5;exitY=1;exitDx=0;exitDy=0;" parent="hTZK16zC_FTHgRc9aFk6-1" source="hTZK16zC_FTHgRc9aFk6-40" target="hTZK16zC_FTHgRc9aFk6-3" edge="1"><mxGeometry relative="1" as="geometry"><mxPoint x="685" y="520" as="sourcePoint"/><mxPoint x="585" y="550" as="targetPoint"/></mxGeometry></mxCell><mxCell id="hTZK16zC_FTHgRc9aFk6-44" value="0:N" style="resizable=0;html=1;align=right;verticalAlign=bottom;" parent="hTZK16zC_FTHgRc9aFk6-43" connectable="0" vertex="1"><mxGeometry x="1" relative="1" as="geometry"><mxPoint x="20" as="offset"/></mxGeometry></mxCell><mxCell id="hTZK16zC_FTHgRc9aFk6-45" value="&lt;font style=&quot;font-size: 10px&quot;&gt;SHIPMENT&lt;/font&gt;" style="shape=rhombus;perimeter=rhombusPerimeter;whiteSpace=wrap;html=1;align=center;" parent="hTZK16zC_FTHgRc9aFk6-1" vertex="1"><mxGeometry x="1145" y="380" width="70" height="60" as="geometry"/></mxCell><mxCell id="hTZK16zC_FTHgRc9aFk6-46" value="" style="endArrow=none;html=1;rounded=0;edgeStyle=orthogonalEdgeStyle;entryX=1;entryY=0.75;entryDx=0;entryDy=0;exitX=0;exitY=0.5;exitDx=0;exitDy=0;" parent="hTZK16zC_FTHgRc9aFk6-1" source="hTZK16zC_FTHgRc9aFk6-45" target="hTZK16zC_FTHgRc9aFk6-4" edge="1"><mxGeometry relative="1" as="geometry"><mxPoint x="655" y="440" as="sourcePoint"/><mxPoint x="545" y="230" as="targetPoint"/></mxGeometry></mxCell><mxCell id="hTZK16zC_FTHgRc9aFk6-47" value="1:1" style="resizable=0;html=1;align=right;verticalAlign=bottom;" parent="hTZK16zC_FTHgRc9aFk6-46" connectable="0" vertex="1"><mxGeometry x="1" relative="1" as="geometry"><mxPoint x="25" y="20" as="offset"/></mxGeometry></mxCell><mxCell id="hTZK16zC_FTHgRc9aFk6-48" value="" style="endArrow=none;html=1;rounded=0;edgeStyle=orthogonalEdgeStyle;entryX=0;entryY=0.5;entryDx=0;entryDy=0;exitX=1;exitY=0.5;exitDx=0;exitDy=0;" parent="hTZK16zC_FTHgRc9aFk6-1" source="hTZK16zC_FTHgRc9aFk6-45" target="hTZK16zC_FTHgRc9aFk6-6" edge="1"><mxGeometry relative="1" as="geometry"><mxPoint x="1055" y="520" as="sourcePoint"/><mxPoint x="970" y="530" as="targetPoint"/></mxGeometry></mxCell><mxCell id="hTZK16zC_FTHgRc9aFk6-49" value="0:N" style="resizable=0;html=1;align=right;verticalAlign=bottom;" parent="hTZK16zC_FTHgRc9aFk6-48" connectable="0" vertex="1"><mxGeometry x="1" relative="1" as="geometry"><mxPoint x="-5" as="offset"/></mxGeometry></mxCell><mxCell id="hTZK16zC_FTHgRc9aFk6-55" value="INCLUDE&lt;br&gt;(Order_Optional_Composition)" style="shape=rhombus;perimeter=rhombusPerimeter;whiteSpace=wrap;html=1;align=center;" parent="hTZK16zC_FTHgRc9aFk6-1" vertex="1"><mxGeometry x="935" y="530" width="70" height="60" as="geometry"/></mxCell><mxCell id="hTZK16zC_FTHgRc9aFk6-56" value="" style="endArrow=none;html=1;rounded=0;edgeStyle=orthogonalEdgeStyle;entryX=0.75;entryY=1;entryDx=0;entryDy=0;exitX=0.5;exitY=0;exitDx=0;exitDy=0;" parent="hTZK16zC_FTHgRc9aFk6-1" source="hTZK16zC_FTHgRc9aFk6-55" target="hTZK16zC_FTHgRc9aFk6-4" edge="1"><mxGeometry relative="1" as="geometry"><mxPoint x="515" y="570" as="sourcePoint"/><mxPoint x="830" y="460" as="targetPoint"/></mxGeometry></mxCell><mxCell id="hTZK16zC_FTHgRc9aFk6-57" value="0:N" style="resizable=0;html=1;align=right;verticalAlign=bottom;" parent="hTZK16zC_FTHgRc9aFk6-56" connectable="0" vertex="1"><mxGeometry x="1" relative="1" as="geometry"><mxPoint x="25" y="20" as="offset"/></mxGeometry></mxCell><mxCell id="hTZK16zC_FTHgRc9aFk6-58" value="" style="endArrow=none;html=1;rounded=0;edgeStyle=orthogonalEdgeStyle;entryX=0.25;entryY=0;entryDx=0;entryDy=0;exitX=0.5;exitY=1;exitDx=0;exitDy=0;" parent="hTZK16zC_FTHgRc9aFk6-1" source="hTZK16zC_FTHgRc9aFk6-55" target="hTZK16zC_FTHgRc9aFk6-8" edge="1"><mxGeometry relative="1" as="geometry"><mxPoint x="915" y="650" as="sourcePoint"/><mxPoint x="830" y="660" as="targetPoint"/></mxGeometry></mxCell><mxCell id="hTZK16zC_FTHgRc9aFk6-59" value="0:N" style="resizable=0;html=1;align=right;verticalAlign=bottom;" parent="hTZK16zC_FTHgRc9aFk6-58" connectable="0" vertex="1"><mxGeometry x="1" relative="1" as="geometry"><mxPoint x="-5" as="offset"/></mxGeometry></mxCell><mxCell id="hTZK16zC_FTHgRc9aFk6-60" style="rounded=0;orthogonalLoop=1;jettySize=auto;html=1;exitX=1;exitY=0.5;exitDx=0;exitDy=0;entryX=0.25;entryY=0;entryDx=0;entryDy=0;endArrow=none;endFill=0;" parent="hTZK16zC_FTHgRc9aFk6-1" source="hTZK16zC_FTHgRc9aFk6-61" target="hTZK16zC_FTHgRc9aFk6-3" edge="1"><mxGeometry relative="1" as="geometry"/></mxCell><mxCell id="hTZK16zC_FTHgRc9aFk6-61" value="&lt;u&gt;Username&lt;/u&gt;" style="ellipse;whiteSpace=wrap;html=1;align=center;" parent="hTZK16zC_FTHgRc9aFk6-1" vertex="1"><mxGeometry x="420" y="410" width="100" height="40" as="geometry"/></mxCell><mxCell id="hTZK16zC_FTHgRc9aFk6-62" style="edgeStyle=none;rounded=0;orthogonalLoop=1;jettySize=auto;html=1;exitX=1;exitY=0.5;exitDx=0;exitDy=0;entryX=0;entryY=0.25;entryDx=0;entryDy=0;endArrow=none;endFill=0;" parent="hTZK16zC_FTHgRc9aFk6-1" source="hTZK16zC_FTHgRc9aFk6-63" target="hTZK16zC_FTHgRc9aFk6-3" edge="1"><mxGeometry relative="1" as="geometry"/></mxCell><mxCell id="hTZK16zC_FTHgRc9aFk6-63" value="Email" style="ellipse;whiteSpace=wrap;html=1;align=center;" parent="hTZK16zC_FTHgRc9aFk6-1" vertex="1"><mxGeometry x="420" y="470" width="100" height="40" as="geometry"/></mxCell><mxCell id="hTZK16zC_FTHgRc9aFk6-64" style="edgeStyle=none;rounded=0;orthogonalLoop=1;jettySize=auto;html=1;exitX=1;exitY=0.5;exitDx=0;exitDy=0;entryX=0;entryY=0.5;entryDx=0;entryDy=0;endArrow=none;endFill=0;" parent="hTZK16zC_FTHgRc9aFk6-1" source="hTZK16zC_FTHgRc9aFk6-65" target="hTZK16zC_FTHgRc9aFk6-3" edge="1"><mxGeometry relative="1" as="geometry"/></mxCell><mxCell id="hTZK16zC_FTHgRc9aFk6-65" value="Password" style="ellipse;whiteSpace=wrap;html=1;align=center;" parent="hTZK16zC_FTHgRc9aFk6-1" vertex="1"><mxGeometry x="420" y="530" width="100" height="40" as="geometry"/></mxCell><mxCell id="hTZK16zC_FTHgRc9aFk6-66" value="" style="edgeStyle=none;rounded=0;orthogonalLoop=1;jettySize=auto;html=1;endArrow=none;endFill=0;entryX=1;entryY=0;entryDx=0;entryDy=0;" parent="hTZK16zC_FTHgRc9aFk6-1" source="hTZK16zC_FTHgRc9aFk6-67" target="hTZK16zC_FTHgRc9aFk6-4" edge="1"><mxGeometry relative="1" as="geometry"/></mxCell><mxCell id="hTZK16zC_FTHgRc9aFk6-67" value="&lt;u&gt;ID&lt;/u&gt;" style="ellipse;whiteSpace=wrap;html=1;align=center;" parent="hTZK16zC_FTHgRc9aFk6-1" vertex="1"><mxGeometry x="850" y="260" width="100" height="40" as="geometry"/></mxCell><mxCell id="hTZK16zC_FTHgRc9aFk6-68" style="edgeStyle=none;rounded=0;orthogonalLoop=1;jettySize=auto;html=1;exitX=0.5;exitY=1;exitDx=0;exitDy=0;entryX=0.5;entryY=0;entryDx=0;entryDy=0;endArrow=none;endFill=0;" parent="hTZK16zC_FTHgRc9aFk6-1" source="hTZK16zC_FTHgRc9aFk6-69" target="hTZK16zC_FTHgRc9aFk6-4" edge="1"><mxGeometry relative="1" as="geometry"/></mxCell><mxCell id="hTZK16zC_FTHgRc9aFk6-69" value="Date_Creation" style="ellipse;whiteSpace=wrap;html=1;align=center;" parent="hTZK16zC_FTHgRc9aFk6-1" vertex="1"><mxGeometry x="725" y="250" width="100" height="40" as="geometry"/></mxCell><mxCell id="hTZK16zC_FTHgRc9aFk6-70" style="edgeStyle=none;rounded=0;orthogonalLoop=1;jettySize=auto;html=1;exitX=0.5;exitY=1;exitDx=0;exitDy=0;entryX=0;entryY=0;entryDx=0;entryDy=0;endArrow=none;endFill=0;" parent="hTZK16zC_FTHgRc9aFk6-1" source="hTZK16zC_FTHgRc9aFk6-71" target="hTZK16zC_FTHgRc9aFk6-4" edge="1"><mxGeometry relative="1" as="geometry"/></mxCell><mxCell id="hTZK16zC_FTHgRc9aFk6-71" value="Hour_Creation" style="ellipse;whiteSpace=wrap;html=1;align=center;" parent="hTZK16zC_FTHgRc9aFk6-1" vertex="1"><mxGeometry x="590" y="250" width="100" height="40" as="geometry"/></mxCell><mxCell id="hTZK16zC_FTHgRc9aFk6-72" style="edgeStyle=none;rounded=0;orthogonalLoop=1;jettySize=auto;html=1;exitX=0;exitY=0.5;exitDx=0;exitDy=0;entryX=1;entryY=0.25;entryDx=0;entryDy=0;endArrow=none;endFill=0;" parent="hTZK16zC_FTHgRc9aFk6-1" source="hTZK16zC_FTHgRc9aFk6-73" target="hTZK16zC_FTHgRc9aFk6-6" edge="1"><mxGeometry relative="1" as="geometry"/></mxCell><mxCell id="hTZK16zC_FTHgRc9aFk6-73" value="Name" style="ellipse;whiteSpace=wrap;html=1;align=center;" parent="hTZK16zC_FTHgRc9aFk6-1" vertex="1"><mxGeometry x="1440" y="340" width="100" height="40" as="geometry"/></mxCell><mxCell id="hTZK16zC_FTHgRc9aFk6-74" style="edgeStyle=none;rounded=0;orthogonalLoop=1;jettySize=auto;html=1;exitX=0;exitY=0.5;exitDx=0;exitDy=0;entryX=1;entryY=0.75;entryDx=0;entryDy=0;endArrow=none;endFill=0;" parent="hTZK16zC_FTHgRc9aFk6-1" source="hTZK16zC_FTHgRc9aFk6-75" target="hTZK16zC_FTHgRc9aFk6-6" edge="1"><mxGeometry relative="1" as="geometry"/></mxCell><mxCell id="hTZK16zC_FTHgRc9aFk6-75" value="&lt;u&gt;ID&lt;/u&gt;" style="ellipse;whiteSpace=wrap;html=1;align=center;" parent="hTZK16zC_FTHgRc9aFk6-1" vertex="1"><mxGeometry x="1440" y="440" width="100" height="40" as="geometry"/></mxCell><mxCell id="hTZK16zC_FTHgRc9aFk6-76" style="edgeStyle=none;rounded=0;orthogonalLoop=1;jettySize=auto;html=1;exitX=0.5;exitY=0;exitDx=0;exitDy=0;entryX=0.5;entryY=1;entryDx=0;entryDy=0;endArrow=none;endFill=0;" parent="hTZK16zC_FTHgRc9aFk6-1" source="hTZK16zC_FTHgRc9aFk6-77" target="hTZK16zC_FTHgRc9aFk6-8" edge="1"><mxGeometry relative="1" as="geometry"/></mxCell><mxCell id="hTZK16zC_FTHgRc9aFk6-77" value="Name" style="ellipse;whiteSpace=wrap;html=1;align=center;" parent="hTZK16zC_FTHgRc9aFk6-1" vertex="1"><mxGeometry x="1050" y="775" width="100" height="40" as="geometry"/></mxCell><mxCell id="hTZK16zC_FTHgRc9aFk6-78" style="edgeStyle=none;rounded=0;orthogonalLoop=1;jettySize=auto;html=1;exitX=0.5;exitY=0;exitDx=0;exitDy=0;entryX=0.75;entryY=1;entryDx=0;entryDy=0;endArrow=none;endFill=0;" parent="hTZK16zC_FTHgRc9aFk6-1" source="hTZK16zC_FTHgRc9aFk6-79" target="hTZK16zC_FTHgRc9aFk6-8" edge="1"><mxGeometry relative="1" as="geometry"/></mxCell><mxCell id="hTZK16zC_FTHgRc9aFk6-79" value="&lt;u&gt;ID&lt;/u&gt;" style="ellipse;whiteSpace=wrap;html=1;align=center;" parent="hTZK16zC_FTHgRc9aFk6-1" vertex="1"><mxGeometry x="1160" y="775" width="100" height="40" as="geometry"/></mxCell><mxCell id="hTZK16zC_FTHgRc9aFk6-80" style="edgeStyle=none;rounded=0;orthogonalLoop=1;jettySize=auto;html=1;exitX=0.5;exitY=0;exitDx=0;exitDy=0;entryX=1;entryY=0.25;entryDx=0;entryDy=0;endArrow=none;endFill=0;" parent="hTZK16zC_FTHgRc9aFk6-1" source="hTZK16zC_FTHgRc9aFk6-81" target="hTZK16zC_FTHgRc9aFk6-7" edge="1"><mxGeometry relative="1" as="geometry"/></mxCell><mxCell id="hTZK16zC_FTHgRc9aFk6-81" value="Monthly_Fee" style="ellipse;whiteSpace=wrap;html=1;align=center;" parent="hTZK16zC_FTHgRc9aFk6-1" vertex="1"><mxGeometry x="1500" y="90" width="100" height="40" as="geometry"/></mxCell><mxCell id="hTZK16zC_FTHgRc9aFk6-82" style="edgeStyle=none;rounded=0;orthogonalLoop=1;jettySize=auto;html=1;exitX=0.5;exitY=0;exitDx=0;exitDy=0;entryX=0.75;entryY=1;entryDx=0;entryDy=0;endArrow=none;endFill=0;" parent="hTZK16zC_FTHgRc9aFk6-1" source="hTZK16zC_FTHgRc9aFk6-83" target="hTZK16zC_FTHgRc9aFk6-7" edge="1"><mxGeometry relative="1" as="geometry"/></mxCell><mxCell id="hTZK16zC_FTHgRc9aFk6-83" value="&lt;u&gt;ID&lt;/u&gt;" style="ellipse;whiteSpace=wrap;html=1;align=center;" parent="hTZK16zC_FTHgRc9aFk6-1" vertex="1"><mxGeometry x="1360" y="220" width="100" height="40" as="geometry"/></mxCell><mxCell id="hTZK16zC_FTHgRc9aFk6-84" style="edgeStyle=none;rounded=0;orthogonalLoop=1;jettySize=auto;html=1;exitX=0.5;exitY=1;exitDx=0;exitDy=0;entryX=0.25;entryY=0;entryDx=0;entryDy=0;endArrow=none;endFill=0;" parent="hTZK16zC_FTHgRc9aFk6-1" source="hTZK16zC_FTHgRc9aFk6-85" target="hTZK16zC_FTHgRc9aFk6-7" edge="1"><mxGeometry relative="1" as="geometry"/></mxCell><mxCell id="hTZK16zC_FTHgRc9aFk6-85" value="Period" style="ellipse;whiteSpace=wrap;html=1;align=center;" parent="hTZK16zC_FTHgRc9aFk6-1" vertex="1"><mxGeometry x="1257.5" y="50" width="100" height="40" as="geometry"/></mxCell><mxCell id="hTZK16zC_FTHgRc9aFk6-86" value="" style="html=1;verticalAlign=bottom;labelBackgroundColor=none;endArrow=oval;endFill=0;endSize=8;rounded=0;" parent="hTZK16zC_FTHgRc9aFk6-1" edge="1"><mxGeometry width="160" relative="1" as="geometry"><mxPoint x="1260" y="210" as="sourcePoint"/><mxPoint x="1490" y="210" as="targetPoint"/><Array as="points"><mxPoint x="1340" y="210"/></Array></mxGeometry></mxCell><mxCell id="hTZK16zC_FTHgRc9aFk6-87" style="rounded=0;orthogonalLoop=1;jettySize=auto;html=1;exitX=1;exitY=1;exitDx=0;exitDy=0;entryX=0.25;entryY=0;entryDx=0;entryDy=0;endArrow=none;endFill=0;" parent="hTZK16zC_FTHgRc9aFk6-1" source="hTZK16zC_FTHgRc9aFk6-88" target="hTZK16zC_FTHgRc9aFk6-2" edge="1"><mxGeometry relative="1" as="geometry"/></mxCell><mxCell id="hTZK16zC_FTHgRc9aFk6-88" value="&lt;u&gt;Rejection_Time&lt;/u&gt;" style="ellipse;whiteSpace=wrap;html=1;align=center;" parent="hTZK16zC_FTHgRc9aFk6-1" vertex="1"><mxGeometry x="290" y="765" width="100" height="40" as="geometry"/></mxCell><mxCell id="hTZK16zC_FTHgRc9aFk6-89" style="edgeStyle=orthogonalEdgeStyle;rounded=0;orthogonalLoop=1;jettySize=auto;html=1;exitX=1;exitY=0.5;exitDx=0;exitDy=0;entryX=0;entryY=0.5;entryDx=0;entryDy=0;endArrow=none;endFill=0;" parent="hTZK16zC_FTHgRc9aFk6-1" source="hTZK16zC_FTHgRc9aFk6-90" target="hTZK16zC_FTHgRc9aFk6-2" edge="1"><mxGeometry relative="1" as="geometry"/></mxCell><mxCell id="hTZK16zC_FTHgRc9aFk6-90" value="Amount" style="ellipse;whiteSpace=wrap;html=1;align=center;" parent="hTZK16zC_FTHgRc9aFk6-1" vertex="1"><mxGeometry x="260" y="860" width="100" height="40" as="geometry"/></mxCell><mxCell id="hTZK16zC_FTHgRc9aFk6-91" style="rounded=0;orthogonalLoop=1;jettySize=auto;html=1;exitX=0.5;exitY=1;exitDx=0;exitDy=0;entryX=0.5;entryY=0;entryDx=0;entryDy=0;endArrow=none;endFill=0;" parent="hTZK16zC_FTHgRc9aFk6-1" source="hTZK16zC_FTHgRc9aFk6-92" target="hTZK16zC_FTHgRc9aFk6-2" edge="1"><mxGeometry relative="1" as="geometry"/></mxCell><mxCell id="hTZK16zC_FTHgRc9aFk6-92" value="&lt;u&gt;Rejection_Date&lt;/u&gt;" style="ellipse;whiteSpace=wrap;html=1;align=center;" parent="hTZK16zC_FTHgRc9aFk6-1" vertex="1"><mxGeometry x="410" y="765" width="100" height="40" as="geometry"/></mxCell><mxCell id="hTZK16zC_FTHgRc9aFk6-93" style="edgeStyle=none;rounded=0;orthogonalLoop=1;jettySize=auto;html=1;exitX=0;exitY=0.5;exitDx=0;exitDy=0;entryX=1;entryY=0.75;entryDx=0;entryDy=0;endArrow=none;endFill=0;" parent="hTZK16zC_FTHgRc9aFk6-1" source="hTZK16zC_FTHgRc9aFk6-94" target="hTZK16zC_FTHgRc9aFk6-5" edge="1"><mxGeometry relative="1" as="geometry"/></mxCell><mxCell id="hTZK16zC_FTHgRc9aFk6-94" value="&lt;u&gt;ID&lt;/u&gt;" style="ellipse;whiteSpace=wrap;html=1;align=center;" parent="hTZK16zC_FTHgRc9aFk6-1" vertex="1"><mxGeometry x="1450" y="890" width="100" height="40" as="geometry"/></mxCell><mxCell id="hTZK16zC_FTHgRc9aFk6-95" style="edgeStyle=none;rounded=0;orthogonalLoop=1;jettySize=auto;html=1;exitX=0.5;exitY=0;exitDx=0;exitDy=0;entryX=0.75;entryY=1;entryDx=0;entryDy=0;endArrow=none;endFill=0;" parent="hTZK16zC_FTHgRc9aFk6-1" source="hTZK16zC_FTHgRc9aFk6-96" target="hTZK16zC_FTHgRc9aFk6-14" edge="1"><mxGeometry relative="1" as="geometry"/></mxCell><mxCell id="hTZK16zC_FTHgRc9aFk6-96" value="SMS" style="ellipse;whiteSpace=wrap;html=1;align=center;" parent="hTZK16zC_FTHgRc9aFk6-1" vertex="1"><mxGeometry x="1680" y="1050" width="100" height="40" as="geometry"/></mxCell><mxCell id="uyfdgXovaq0SkpgSyAwf-24" style="edgeStyle=none;rounded=0;orthogonalLoop=1;jettySize=auto;html=1;exitX=0.5;exitY=0;exitDx=0;exitDy=0;entryX=0.25;entryY=1;entryDx=0;entryDy=0;endArrow=none;endFill=0;" parent="hTZK16zC_FTHgRc9aFk6-1" source="hTZK16zC_FTHgRc9aFk6-98" target="hTZK16zC_FTHgRc9aFk6-14" edge="1"><mxGeometry relative="1" as="geometry"/></mxCell><mxCell id="hTZK16zC_FTHgRc9aFk6-98" value="SMS_Fee" style="ellipse;whiteSpace=wrap;html=1;align=center;" parent="hTZK16zC_FTHgRc9aFk6-1" vertex="1"><mxGeometry x="1560" y="1050" width="100" height="40" as="geometry"/></mxCell><mxCell id="hTZK16zC_FTHgRc9aFk6-99" style="edgeStyle=none;rounded=0;orthogonalLoop=1;jettySize=auto;html=1;exitX=0;exitY=0.5;exitDx=0;exitDy=0;entryX=1;entryY=0.75;entryDx=0;entryDy=0;endArrow=none;endFill=0;" parent="hTZK16zC_FTHgRc9aFk6-1" source="hTZK16zC_FTHgRc9aFk6-100" target="hTZK16zC_FTHgRc9aFk6-14" edge="1"><mxGeometry relative="1" as="geometry"/></mxCell><mxCell id="hTZK16zC_FTHgRc9aFk6-100" value="Minutes" style="ellipse;whiteSpace=wrap;html=1;align=center;" parent="hTZK16zC_FTHgRc9aFk6-1" vertex="1"><mxGeometry x="1750" y="990" width="100" height="40" as="geometry"/></mxCell><mxCell id="hTZK16zC_FTHgRc9aFk6-101" style="edgeStyle=none;rounded=0;orthogonalLoop=1;jettySize=auto;html=1;exitX=0;exitY=0.5;exitDx=0;exitDy=0;entryX=1;entryY=0.25;entryDx=0;entryDy=0;endArrow=none;endFill=0;" parent="hTZK16zC_FTHgRc9aFk6-1" source="hTZK16zC_FTHgRc9aFk6-102" target="hTZK16zC_FTHgRc9aFk6-14" edge="1"><mxGeometry relative="1" as="geometry"/></mxCell><mxCell id="hTZK16zC_FTHgRc9aFk6-102" value="Minutes_Fee" style="ellipse;whiteSpace=wrap;html=1;align=center;" parent="hTZK16zC_FTHgRc9aFk6-1" vertex="1"><mxGeometry x="1750" y="930" width="100" height="40" as="geometry"/></mxCell><mxCell id="hTZK16zC_FTHgRc9aFk6-103" style="edgeStyle=none;rounded=0;orthogonalLoop=1;jettySize=auto;html=1;exitX=0.5;exitY=0;exitDx=0;exitDy=0;entryX=0.75;entryY=1;entryDx=0;entryDy=0;endArrow=none;endFill=0;" parent="hTZK16zC_FTHgRc9aFk6-1" source="hTZK16zC_FTHgRc9aFk6-104" target="hTZK16zC_FTHgRc9aFk6-10" edge="1"><mxGeometry relative="1" as="geometry"/></mxCell><mxCell id="hTZK16zC_FTHgRc9aFk6-104" value="GB_Fee" style="ellipse;whiteSpace=wrap;html=1;align=center;" parent="hTZK16zC_FTHgRc9aFk6-1" vertex="1"><mxGeometry x="1292.5" y="1070" width="100" height="40" as="geometry"/></mxCell><mxCell id="hTZK16zC_FTHgRc9aFk6-105" style="edgeStyle=none;rounded=0;orthogonalLoop=1;jettySize=auto;html=1;exitX=0.5;exitY=0;exitDx=0;exitDy=0;entryX=0.25;entryY=1;entryDx=0;entryDy=0;endArrow=none;endFill=0;" parent="hTZK16zC_FTHgRc9aFk6-1" source="hTZK16zC_FTHgRc9aFk6-106" target="hTZK16zC_FTHgRc9aFk6-10" edge="1"><mxGeometry relative="1" as="geometry"/></mxCell><mxCell id="hTZK16zC_FTHgRc9aFk6-106" value="GB" style="ellipse;whiteSpace=wrap;html=1;align=center;" parent="hTZK16zC_FTHgRc9aFk6-1" vertex="1"><mxGeometry x="1157.5" y="1070" width="100" height="40" as="geometry"/></mxCell><mxCell id="hTZK16zC_FTHgRc9aFk6-108" style="rounded=0;orthogonalLoop=1;jettySize=auto;html=1;exitX=0;exitY=0.5;exitDx=0;exitDy=0;entryX=1;entryY=0.5;entryDx=0;entryDy=0;endArrow=none;endFill=0;" parent="hTZK16zC_FTHgRc9aFk6-1" source="hTZK16zC_FTHgRc9aFk6-107" target="hTZK16zC_FTHgRc9aFk6-5" edge="1"><mxGeometry relative="1" as="geometry"/></mxCell><mxCell id="hTZK16zC_FTHgRc9aFk6-107" value="Type" style="ellipse;whiteSpace=wrap;html=1;align=center;" parent="hTZK16zC_FTHgRc9aFk6-1" vertex="1"><mxGeometry x="1450" y="840" width="100" height="40" as="geometry"/></mxCell><mxCell id="hTZK16zC_FTHgRc9aFk6-112" style="edgeStyle=none;rounded=0;orthogonalLoop=1;jettySize=auto;html=1;exitX=1;exitY=0;exitDx=0;exitDy=0;entryX=0.25;entryY=1;entryDx=0;entryDy=0;endArrow=none;endFill=0;" parent="hTZK16zC_FTHgRc9aFk6-1" source="hTZK16zC_FTHgRc9aFk6-111" target="hTZK16zC_FTHgRc9aFk6-8" edge="1"><mxGeometry relative="1" as="geometry"/></mxCell><mxCell id="hTZK16zC_FTHgRc9aFk6-111" value="Monthly_Fee" style="ellipse;whiteSpace=wrap;html=1;align=center;" parent="hTZK16zC_FTHgRc9aFk6-1" vertex="1"><mxGeometry x="930" y="775" width="100" height="40" as="geometry"/></mxCell><mxCell id="hTZK16zC_FTHgRc9aFk6-115" style="edgeStyle=none;rounded=0;orthogonalLoop=1;jettySize=auto;html=1;exitX=0.5;exitY=1;exitDx=0;exitDy=0;entryX=1;entryY=0.25;entryDx=0;entryDy=0;endArrow=none;endFill=0;" parent="hTZK16zC_FTHgRc9aFk6-1" source="hTZK16zC_FTHgRc9aFk6-114" target="hTZK16zC_FTHgRc9aFk6-4" edge="1"><mxGeometry relative="1" as="geometry"><Array as="points"><mxPoint x="1090" y="390"/></Array></mxGeometry></mxCell><mxCell id="hTZK16zC_FTHgRc9aFk6-123" style="edgeStyle=none;rounded=0;orthogonalLoop=1;jettySize=auto;html=1;exitX=0.5;exitY=0;exitDx=0;exitDy=0;endArrow=none;endFill=0;entryX=0;entryY=0.5;entryDx=0;entryDy=0;" parent="hTZK16zC_FTHgRc9aFk6-1" source="hTZK16zC_FTHgRc9aFk6-114" target="hTZK16zC_FTHgRc9aFk6-7" edge="1"><mxGeometry relative="1" as="geometry"><mxPoint x="1300" y="160" as="targetPoint"/><Array as="points"><mxPoint x="1090" y="160"/></Array></mxGeometry></mxCell><mxCell id="hTZK16zC_FTHgRc9aFk6-114" value="CHOOSE" style="rhombus;whiteSpace=wrap;html=1;" parent="hTZK16zC_FTHgRc9aFk6-1" vertex="1"><mxGeometry x="995" y="260" width="190" height="80" as="geometry"/></mxCell><mxCell id="uyfdgXovaq0SkpgSyAwf-1" style="rounded=0;orthogonalLoop=1;jettySize=auto;html=1;exitX=0.5;exitY=0;exitDx=0;exitDy=0;entryX=0.75;entryY=1;entryDx=0;entryDy=0;endArrow=none;endFill=0;" parent="hTZK16zC_FTHgRc9aFk6-1" source="uyfdgXovaq0SkpgSyAwf-0" target="hTZK16zC_FTHgRc9aFk6-2" edge="1"><mxGeometry relative="1" as="geometry"/></mxCell><mxCell id="uyfdgXovaq0SkpgSyAwf-0" value="Email" style="ellipse;whiteSpace=wrap;html=1;align=center;" parent="hTZK16zC_FTHgRc9aFk6-1" vertex="1"><mxGeometry x="480" y="970" width="100" height="40" as="geometry"/></mxCell><mxCell id="uyfdgXovaq0SkpgSyAwf-2" value="Is_Active" style="ellipse;whiteSpace=wrap;html=1;align=center;" parent="hTZK16zC_FTHgRc9aFk6-1" vertex="1"><mxGeometry x="360" y="970" width="100" height="40" as="geometry"/></mxCell><mxCell id="uyfdgXovaq0SkpgSyAwf-7" style="rounded=0;orthogonalLoop=1;jettySize=auto;html=1;exitX=1;exitY=0.5;exitDx=0;exitDy=0;entryX=0;entryY=0.75;entryDx=0;entryDy=0;endArrow=none;endFill=0;" parent="hTZK16zC_FTHgRc9aFk6-1" source="uyfdgXovaq0SkpgSyAwf-5" target="hTZK16zC_FTHgRc9aFk6-3" edge="1"><mxGeometry relative="1" as="geometry"/></mxCell><mxCell id="uyfdgXovaq0SkpgSyAwf-5" value="Number_Rejections" style="ellipse;whiteSpace=wrap;html=1;align=center;" parent="hTZK16zC_FTHgRc9aFk6-1" vertex="1"><mxGeometry x="390" y="590" width="130" height="40" as="geometry"/></mxCell><mxCell id="uyfdgXovaq0SkpgSyAwf-8" style="rounded=0;orthogonalLoop=1;jettySize=auto;html=1;exitX=1;exitY=0.5;exitDx=0;exitDy=0;entryX=0.25;entryY=1;entryDx=0;entryDy=0;endArrow=none;endFill=0;" parent="hTZK16zC_FTHgRc9aFk6-1" source="uyfdgXovaq0SkpgSyAwf-6" target="hTZK16zC_FTHgRc9aFk6-3" edge="1"><mxGeometry relative="1" as="geometry"/></mxCell><mxCell id="uyfdgXovaq0SkpgSyAwf-6" value="Insolvent" style="ellipse;whiteSpace=wrap;html=1;align=center;" parent="hTZK16zC_FTHgRc9aFk6-1" vertex="1"><mxGeometry x="420" y="650" width="100" height="40" as="geometry"/></mxCell><mxCell id="uyfdgXovaq0SkpgSyAwf-9" value="Employee" style="rounded=1;arcSize=10;whiteSpace=wrap;html=1;align=center;" parent="hTZK16zC_FTHgRc9aFk6-1" vertex="1"><mxGeometry x="220" y="540" width="100" height="40" as="geometry"/></mxCell><mxCell id="uyfdgXovaq0SkpgSyAwf-15" style="edgeStyle=none;rounded=0;orthogonalLoop=1;jettySize=auto;html=1;exitX=1;exitY=0.5;exitDx=0;exitDy=0;entryX=0;entryY=0.25;entryDx=0;entryDy=0;endArrow=none;endFill=0;" parent="hTZK16zC_FTHgRc9aFk6-1" source="uyfdgXovaq0SkpgSyAwf-10" target="uyfdgXovaq0SkpgSyAwf-9" edge="1"><mxGeometry relative="1" as="geometry"/></mxCell><mxCell id="uyfdgXovaq0SkpgSyAwf-10" value="&lt;u&gt;Username&lt;/u&gt;" style="ellipse;whiteSpace=wrap;html=1;align=center;" parent="hTZK16zC_FTHgRc9aFk6-1" vertex="1"><mxGeometry x="70" y="480" width="100" height="40" as="geometry"/></mxCell><mxCell id="uyfdgXovaq0SkpgSyAwf-13" style="edgeStyle=none;rounded=0;orthogonalLoop=1;jettySize=auto;html=1;exitX=1;exitY=0.5;exitDx=0;exitDy=0;entryX=0;entryY=0.5;entryDx=0;entryDy=0;endArrow=none;endFill=0;" parent="hTZK16zC_FTHgRc9aFk6-1" source="uyfdgXovaq0SkpgSyAwf-11" target="uyfdgXovaq0SkpgSyAwf-9" edge="1"><mxGeometry relative="1" as="geometry"/></mxCell><mxCell id="uyfdgXovaq0SkpgSyAwf-11" value="Email" style="ellipse;whiteSpace=wrap;html=1;align=center;" parent="hTZK16zC_FTHgRc9aFk6-1" vertex="1"><mxGeometry x="70" y="540" width="100" height="40" as="geometry"/></mxCell><mxCell id="uyfdgXovaq0SkpgSyAwf-14" style="edgeStyle=none;rounded=0;orthogonalLoop=1;jettySize=auto;html=1;exitX=1;exitY=0.5;exitDx=0;exitDy=0;entryX=0;entryY=0.75;entryDx=0;entryDy=0;endArrow=none;endFill=0;" parent="hTZK16zC_FTHgRc9aFk6-1" source="uyfdgXovaq0SkpgSyAwf-12" target="uyfdgXovaq0SkpgSyAwf-9" edge="1"><mxGeometry relative="1" as="geometry"/></mxCell><mxCell id="uyfdgXovaq0SkpgSyAwf-12" value="Password" style="ellipse;whiteSpace=wrap;html=1;align=center;" parent="hTZK16zC_FTHgRc9aFk6-1" vertex="1"><mxGeometry x="70" y="600" width="100" height="40" as="geometry"/></mxCell><mxCell id="uyfdgXovaq0SkpgSyAwf-17" value="FIxed_Internet_Service" style="rounded=1;arcSize=10;whiteSpace=wrap;html=1;align=center;" parent="hTZK16zC_FTHgRc9aFk6-1" vertex="1"><mxGeometry x="945" y="980" width="145" height="40" as="geometry"/></mxCell><mxCell id="uyfdgXovaq0SkpgSyAwf-20" style="edgeStyle=none;rounded=0;orthogonalLoop=1;jettySize=auto;html=1;exitX=0.5;exitY=0;exitDx=0;exitDy=0;entryX=0.75;entryY=1;entryDx=0;entryDy=0;endArrow=none;endFill=0;" parent="hTZK16zC_FTHgRc9aFk6-1" source="uyfdgXovaq0SkpgSyAwf-18" target="uyfdgXovaq0SkpgSyAwf-17" edge="1"><mxGeometry relative="1" as="geometry"/></mxCell><mxCell id="uyfdgXovaq0SkpgSyAwf-18" value="GB_Fee" style="ellipse;whiteSpace=wrap;html=1;align=center;" parent="hTZK16zC_FTHgRc9aFk6-1" vertex="1"><mxGeometry x="1025" y="1070" width="100" height="40" as="geometry"/></mxCell><mxCell id="uyfdgXovaq0SkpgSyAwf-21" style="edgeStyle=none;rounded=0;orthogonalLoop=1;jettySize=auto;html=1;exitX=0.5;exitY=0;exitDx=0;exitDy=0;entryX=0.25;entryY=1;entryDx=0;entryDy=0;endArrow=none;endFill=0;" parent="hTZK16zC_FTHgRc9aFk6-1" source="uyfdgXovaq0SkpgSyAwf-19" target="uyfdgXovaq0SkpgSyAwf-17" edge="1"><mxGeometry relative="1" as="geometry"/></mxCell><mxCell id="uyfdgXovaq0SkpgSyAwf-19" value="GB" style="ellipse;whiteSpace=wrap;html=1;align=center;" parent="hTZK16zC_FTHgRc9aFk6-1" vertex="1"><mxGeometry x="890" y="1070" width="100" height="40" as="geometry"/></mxCell><mxCell id="uyfdgXovaq0SkpgSyAwf-25" style="edgeStyle=orthogonalEdgeStyle;rounded=0;orthogonalLoop=1;jettySize=auto;html=1;exitX=0.5;exitY=0;exitDx=0;exitDy=0;entryX=0.5;entryY=1;entryDx=0;entryDy=0;" parent="hTZK16zC_FTHgRc9aFk6-1" source="uyfdgXovaq0SkpgSyAwf-17" target="hTZK16zC_FTHgRc9aFk6-5" edge="1"><mxGeometry relative="1" as="geometry"><mxPoint x="1290" y="990" as="sourcePoint"/><mxPoint x="1355" y="910" as="targetPoint"/></mxGeometry></mxCell><mxCell id="uyfdgXovaq0SkpgSyAwf-28" style="edgeStyle=none;rounded=0;orthogonalLoop=1;jettySize=auto;html=1;exitX=0;exitY=0.5;exitDx=0;exitDy=0;entryX=1;entryY=0.25;entryDx=0;entryDy=0;endArrow=none;endFill=0;" parent="hTZK16zC_FTHgRc9aFk6-1" source="uyfdgXovaq0SkpgSyAwf-27" target="hTZK16zC_FTHgRc9aFk6-5" edge="1"><mxGeometry relative="1" as="geometry"/></mxCell><mxCell id="uyfdgXovaq0SkpgSyAwf-27" value="Expiration_Date" style="ellipse;whiteSpace=wrap;html=1;align=center;" parent="hTZK16zC_FTHgRc9aFk6-1" vertex="1"><mxGeometry x="1450" y="790" width="100" height="40" as="geometry"/></mxCell><mxCell id="uyfdgXovaq0SkpgSyAwf-29" value="Expiration_Date" style="ellipse;whiteSpace=wrap;html=1;align=center;" parent="hTZK16zC_FTHgRc9aFk6-1" vertex="1"><mxGeometry x="1176" y="710" width="100" height="40" as="geometry"/></mxCell><mxCell id="uyfdgXovaq0SkpgSyAwf-32" style="edgeStyle=none;rounded=0;orthogonalLoop=1;jettySize=auto;html=1;exitX=1;exitY=0.5;exitDx=0;exitDy=0;entryX=0;entryY=0.5;entryDx=0;entryDy=0;endArrow=none;endFill=0;" parent="hTZK16zC_FTHgRc9aFk6-1" source="uyfdgXovaq0SkpgSyAwf-31" target="hTZK16zC_FTHgRc9aFk6-4" edge="1"><mxGeometry relative="1" as="geometry"/></mxCell><mxCell id="uyfdgXovaq0SkpgSyAwf-31" value="Date_Subscription" style="ellipse;whiteSpace=wrap;html=1;align=center;" parent="hTZK16zC_FTHgRc9aFk6-1" vertex="1"><mxGeometry x="452" y="300" width="110" height="40" as="geometry"/></mxCell><mxCell id="uyfdgXovaq0SkpgSyAwf-37" style="edgeStyle=none;rounded=0;orthogonalLoop=1;jettySize=auto;html=1;exitX=0.5;exitY=1;exitDx=0;exitDy=0;entryX=0.25;entryY=0;entryDx=0;entryDy=0;endArrow=none;endFill=0;" parent="hTZK16zC_FTHgRc9aFk6-1" source="uyfdgXovaq0SkpgSyAwf-33" target="hTZK16zC_FTHgRc9aFk6-4" edge="1"><mxGeometry relative="1" as="geometry"/></mxCell><mxCell id="uyfdgXovaq0SkpgSyAwf-33" value="Total_Cost" style="ellipse;whiteSpace=wrap;html=1;align=center;" parent="hTZK16zC_FTHgRc9aFk6-1" vertex="1"><mxGeometry x="650" y="200" width="100" height="40" as="geometry"/></mxCell><mxCell id="uyfdgXovaq0SkpgSyAwf-38" style="edgeStyle=none;rounded=0;orthogonalLoop=1;jettySize=auto;html=1;exitX=0.5;exitY=1;exitDx=0;exitDy=0;entryX=0.75;entryY=0;entryDx=0;entryDy=0;endArrow=none;endFill=0;" parent="hTZK16zC_FTHgRc9aFk6-1" source="uyfdgXovaq0SkpgSyAwf-34" target="hTZK16zC_FTHgRc9aFk6-4" edge="1"><mxGeometry relative="1" as="geometry"/></mxCell><mxCell id="uyfdgXovaq0SkpgSyAwf-34" value="Is_Valid" style="ellipse;whiteSpace=wrap;html=1;align=center;" parent="hTZK16zC_FTHgRc9aFk6-1" vertex="1"><mxGeometry x="800" y="200" width="100" height="40" as="geometry"/></mxCell><mxCell id="uyfdgXovaq0SkpgSyAwf-36" style="edgeStyle=none;rounded=0;orthogonalLoop=1;jettySize=auto;html=1;exitX=0.5;exitY=1;exitDx=0;exitDy=0;entryX=0;entryY=0.25;entryDx=0;entryDy=0;endArrow=none;endFill=0;" parent="hTZK16zC_FTHgRc9aFk6-1" source="uyfdgXovaq0SkpgSyAwf-35" target="hTZK16zC_FTHgRc9aFk6-4" edge="1"><mxGeometry relative="1" as="geometry"/></mxCell><mxCell id="uyfdgXovaq0SkpgSyAwf-35" value="Number_Rejections" style="ellipse;whiteSpace=wrap;html=1;align=center;" parent="hTZK16zC_FTHgRc9aFk6-1" vertex="1"><mxGeometry x="444" y="210" width="126" height="40" as="geometry"/></mxCell><mxCell id="uyfdgXovaq0SkpgSyAwf-40" style="edgeStyle=none;rounded=0;orthogonalLoop=1;jettySize=auto;html=1;exitX=0;exitY=0.5;exitDx=0;exitDy=0;entryX=1;entryY=0.5;entryDx=0;entryDy=0;endArrow=none;endFill=0;" parent="hTZK16zC_FTHgRc9aFk6-1" source="uyfdgXovaq0SkpgSyAwf-39" target="hTZK16zC_FTHgRc9aFk6-6" edge="1"><mxGeometry relative="1" as="geometry"/></mxCell><mxCell id="uyfdgXovaq0SkpgSyAwf-39" value="Expiration_Date" style="ellipse;whiteSpace=wrap;html=1;align=center;" parent="hTZK16zC_FTHgRc9aFk6-1" vertex="1"><mxGeometry x="1440" y="390" width="100" height="40" as="geometry"/></mxCell><mxCell id="uyfdgXovaq0SkpgSyAwf-43" style="edgeStyle=none;rounded=0;orthogonalLoop=1;jettySize=auto;html=1;exitX=0.5;exitY=1;exitDx=0;exitDy=0;entryX=0.75;entryY=0;entryDx=0;entryDy=0;endArrow=none;endFill=0;" parent="hTZK16zC_FTHgRc9aFk6-1" source="uyfdgXovaq0SkpgSyAwf-41" target="hTZK16zC_FTHgRc9aFk6-7" edge="1"><mxGeometry relative="1" as="geometry"/></mxCell><mxCell id="uyfdgXovaq0SkpgSyAwf-41" value="Total_Cost" style="ellipse;whiteSpace=wrap;html=1;align=center;" parent="hTZK16zC_FTHgRc9aFk6-1" vertex="1"><mxGeometry x="1380" y="50" width="100" height="40" as="geometry"/></mxCell><mxCell id="uyfdgXovaq0SkpgSyAwf-44" style="edgeStyle=none;rounded=0;orthogonalLoop=1;jettySize=auto;html=1;exitX=0;exitY=0.5;exitDx=0;exitDy=0;entryX=1;entryY=0.75;entryDx=0;entryDy=0;endArrow=none;endFill=0;" parent="hTZK16zC_FTHgRc9aFk6-1" source="uyfdgXovaq0SkpgSyAwf-42" target="hTZK16zC_FTHgRc9aFk6-7" edge="1"><mxGeometry relative="1" as="geometry"/></mxCell><mxCell id="uyfdgXovaq0SkpgSyAwf-42" value="Expiration_Date" style="ellipse;whiteSpace=wrap;html=1;align=center;" parent="hTZK16zC_FTHgRc9aFk6-1" vertex="1"><mxGeometry x="1500" y="150" width="100" height="40" as="geometry"/></mxCell><mxCell id="uyfdgXovaq0SkpgSyAwf-45" value="1:1" style="resizable=0;html=1;align=right;verticalAlign=bottom;" parent="hTZK16zC_FTHgRc9aFk6-1" connectable="0" vertex="1"><mxGeometry x="849.9999999999998" y="390" as="geometry"/></mxCell><mxCell id="uyfdgXovaq0SkpgSyAwf-46" value="1:N" style="resizable=0;html=1;align=right;verticalAlign=bottom;" parent="hTZK16zC_FTHgRc9aFk6-1" connectable="0" vertex="1"><mxGeometry x="1370" y="390.0042857142857" as="geometry"/></mxCell><mxCell id="uyfdgXovaq0SkpgSyAwf-47" value="1:1" style="resizable=0;html=1;align=right;verticalAlign=bottom;" parent="hTZK16zC_FTHgRc9aFk6-1" connectable="0" vertex="1"><mxGeometry x="1341" y="200.0042857142857" as="geometry"/></mxCell><mxCell id="AFlesmBmFnRysSdwtxAo-2" style="edgeStyle=orthogonalEdgeStyle;rounded=0;orthogonalLoop=1;jettySize=auto;html=1;exitX=0.5;exitY=0;exitDx=0;exitDy=0;entryX=0.5;entryY=1;entryDx=0;entryDy=0;endArrow=none;endFill=0;" edge="1" parent="hTZK16zC_FTHgRc9aFk6-1" source="AFlesmBmFnRysSdwtxAo-0" target="hTZK16zC_FTHgRc9aFk6-3"><mxGeometry relative="1" as="geometry"><Array as="points"><mxPoint x="565" y="740"/><mxPoint x="605" y="740"/></Array></mxGeometry></mxCell><mxCell id="AFlesmBmFnRysSdwtxAo-0" value="USERNAME" style="shape=rhombus;perimeter=rhombusPerimeter;whiteSpace=wrap;html=1;align=center;" vertex="1" parent="hTZK16zC_FTHgRc9aFk6-1"><mxGeometry x="530" y="755" width="70" height="60" as="geometry"/></mxCell><mxCell id="AFlesmBmFnRysSdwtxAo-3" value="" style="html=1;verticalAlign=bottom;labelBackgroundColor=none;endArrow=oval;endFill=0;endSize=8;rounded=0;" edge="1" parent="hTZK16zC_FTHgRc9aFk6-1"><mxGeometry width="160" relative="1" as="geometry"><mxPoint x="360" y="830" as="sourcePoint"/><mxPoint x="590" y="830" as="targetPoint"/><Array as="points"><mxPoint x="440" y="830"/></Array></mxGeometry></mxCell><mxCell id="AFlesmBmFnRysSdwtxAo-4" value="1:1" style="text;html=1;align=center;verticalAlign=middle;resizable=0;points=[];autosize=1;strokeColor=none;" vertex="1" parent="hTZK16zC_FTHgRc9aFk6-1"><mxGeometry x="510" y="860" width="30" height="20" as="geometry"/></mxCell><mxCell id="AFlesmBmFnRysSdwtxAo-5" value="0:N" style="resizable=0;html=1;align=right;verticalAlign=bottom;" connectable="0" vertex="1" parent="hTZK16zC_FTHgRc9aFk6-1"><mxGeometry x="605" y="590" as="geometry"/></mxCell><mxCell id="AFlesmBmFnRysSdwtxAo-6" value="" style="endArrow=none;html=1;rounded=0;edgeStyle=orthogonalEdgeStyle;entryX=0.5;entryY=1;entryDx=0;entryDy=0;exitX=0.5;exitY=0;exitDx=0;exitDy=0;" edge="1" parent="hTZK16zC_FTHgRc9aFk6-1" source="hTZK16zC_FTHgRc9aFk6-30" target="hTZK16zC_FTHgRc9aFk6-4"><mxGeometry relative="1" as="geometry"><mxPoint x="850" y="630" as="sourcePoint"/><mxPoint x="665" y="560" as="targetPoint"/></mxGeometry></mxCell><mxCell id="AFlesmBmFnRysSdwtxAo-7" value="1:N" style="resizable=0;html=1;align=right;verticalAlign=bottom;" connectable="0" vertex="1" parent="AFlesmBmFnRysSdwtxAo-6"><mxGeometry x="1" relative="1" as="geometry"><mxPoint x="20" y="20" as="offset"/></mxGeometry></mxCell><mxCell id="AFlesmBmFnRysSdwtxAo-11" style="edgeStyle=none;rounded=0;orthogonalLoop=1;jettySize=auto;html=1;exitX=0;exitY=0;exitDx=0;exitDy=0;entryX=1;entryY=1;entryDx=0;entryDy=0;endArrow=none;endFill=0;" edge="1" parent="hTZK16zC_FTHgRc9aFk6-1" source="AFlesmBmFnRysSdwtxAo-8" target="hTZK16zC_FTHgRc9aFk6-30"><mxGeometry relative="1" as="geometry"/></mxCell><mxCell id="AFlesmBmFnRysSdwtxAo-8" value="Activation_Date" style="ellipse;whiteSpace=wrap;html=1;align=center;" vertex="1" parent="hTZK16zC_FTHgRc9aFk6-1"><mxGeometry x="875" y="680" width="100" height="40" as="geometry"/></mxCell><mxCell id="AFlesmBmFnRysSdwtxAo-10" style="rounded=0;orthogonalLoop=1;jettySize=auto;html=1;exitX=0.5;exitY=0;exitDx=0;exitDy=0;entryX=0;entryY=1;entryDx=0;entryDy=0;endArrow=none;endFill=0;" edge="1" parent="hTZK16zC_FTHgRc9aFk6-1" source="AFlesmBmFnRysSdwtxAo-9" target="hTZK16zC_FTHgRc9aFk6-30"><mxGeometry relative="1" as="geometry"/></mxCell><mxCell id="AFlesmBmFnRysSdwtxAo-9" value="Activation_Time" style="ellipse;whiteSpace=wrap;html=1;align=center;" vertex="1" parent="hTZK16zC_FTHgRc9aFk6-1"><mxGeometry x="727" y="680" width="100" height="40" as="geometry"/></mxCell><mxCell id="AFlesmBmFnRysSdwtxAo-13" style="edgeStyle=none;rounded=0;orthogonalLoop=1;jettySize=auto;html=1;exitX=0.5;exitY=0;exitDx=0;exitDy=0;endArrow=none;endFill=0;" edge="1" parent="hTZK16zC_FTHgRc9aFk6-1" source="AFlesmBmFnRysSdwtxAo-12" target="hTZK16zC_FTHgRc9aFk6-35"><mxGeometry relative="1" as="geometry"/></mxCell><mxCell id="AFlesmBmFnRysSdwtxAo-12" value="Activation_Time" style="ellipse;whiteSpace=wrap;html=1;align=center;" vertex="1" parent="hTZK16zC_FTHgRc9aFk6-1"><mxGeometry x="605" y="850" width="100" height="40" as="geometry"/></mxCell><mxCell id="AFlesmBmFnRysSdwtxAo-15" style="edgeStyle=none;rounded=0;orthogonalLoop=1;jettySize=auto;html=1;exitX=0;exitY=0.5;exitDx=0;exitDy=0;entryX=1;entryY=1;entryDx=0;entryDy=0;endArrow=none;endFill=0;" edge="1" parent="hTZK16zC_FTHgRc9aFk6-1" source="AFlesmBmFnRysSdwtxAo-14" target="hTZK16zC_FTHgRc9aFk6-35"><mxGeometry relative="1" as="geometry"/></mxCell><mxCell id="AFlesmBmFnRysSdwtxAo-14" value="Activation_Date" style="ellipse;whiteSpace=wrap;html=1;align=center;" vertex="1" parent="hTZK16zC_FTHgRc9aFk6-1"><mxGeometry x="790" y="820" width="100" height="40" as="geometry"/></mxCell></root></mxGraphModel></diagram><diagram name="Logic" id="FoNJrGKpIfs3VQEYDBUo"><mxGraphModel dx="2884" dy="1870" grid="1" gridSize="10" guides="1" tooltips="1" connect="1" arrows="1" fold="1" page="1" pageScale="1" pageWidth="827" pageHeight="1169" math="0" shadow="0"><root><mxCell id="wXOhoXnXluSk_stjxNF--0"/><mxCell id="wXOhoXnXluSk_stjxNF--1" parent="wXOhoXnXluSk_stjxNF--0"/><mxCell id="wXOhoXnXluSk_stjxNF--2" value="&lt;font style=&quot;font-size: 20px&quot;&gt;Client(&lt;u&gt;Username&lt;/u&gt;, Password, Email, Number_Rejections, Insolvent)&lt;/font&gt;" style="text;html=1;align=center;verticalAlign=middle;resizable=0;points=[];autosize=1;strokeColor=none;fillColor=none;fontStyle=0" parent="wXOhoXnXluSk_stjxNF--1" vertex="1"><mxGeometry x="90" y="410" width="610" height="20" as="geometry"/></mxCell><mxCell id="wXOhoXnXluSk_stjxNF--3" value="&lt;font style=&quot;font-size: 20px&quot;&gt;Order(&lt;u&gt;ID&lt;/u&gt;, Client, Hour_Creation, Date_Creation, Validity_ID, Package_ID, Date_Subscription, Total_Cost, Is_Valid, Number_Rejections)&lt;/font&gt;" style="text;html=1;align=center;verticalAlign=middle;resizable=0;points=[];autosize=1;strokeColor=none;fillColor=none;fontStyle=0" parent="wXOhoXnXluSk_stjxNF--1" vertex="1"><mxGeometry x="-495" y="210" width="1220" height="20" as="geometry"/></mxCell><mxCell id="wXOhoXnXluSk_stjxNF--4" value="&lt;font style=&quot;font-size: 20px&quot;&gt;Validity(&lt;u&gt;ID, Package_ID&lt;/u&gt;, Period, Monthly_Fee, Total_Cost, Expiration_Date)&lt;/font&gt;" style="text;html=1;align=center;verticalAlign=middle;resizable=0;points=[];autosize=1;strokeColor=none;fillColor=none;fontStyle=0" parent="wXOhoXnXluSk_stjxNF--1" vertex="1"><mxGeometry x="237" y="70" width="690" height="20" as="geometry"/></mxCell><mxCell id="wXOhoXnXluSk_stjxNF--5" value="&lt;div&gt;&lt;div&gt;&lt;div&gt;&lt;div style=&quot;text-align: left&quot;&gt;&lt;span style=&quot;font-size: 20px&quot;&gt;Service_Package(&lt;/span&gt;&lt;u style=&quot;font-size: 20px&quot;&gt;ID&lt;/u&gt;&lt;span style=&quot;font-size: 20px&quot;&gt;, Name&lt;/span&gt;&lt;span style=&quot;font-size: 20px ; text-align: center&quot;&gt;, Expiration_Date&lt;/span&gt;&lt;span style=&quot;font-size: 20px&quot;&gt;)&lt;/span&gt;&lt;/div&gt;&lt;/div&gt;&lt;/div&gt;&lt;/div&gt;" style="text;html=1;align=center;verticalAlign=middle;resizable=0;points=[];autosize=1;strokeColor=none;fillColor=none;fontStyle=0" parent="wXOhoXnXluSk_stjxNF--1" vertex="1"><mxGeometry x="1380" y="240" width="420" height="20" as="geometry"/></mxCell><mxCell id="wXOhoXnXluSk_stjxNF--6" value="&lt;font style=&quot;font-size: 20px&quot;&gt;Service(&lt;u&gt;ID&lt;/u&gt;, Type, Expiration_Date)&lt;/font&gt;" style="text;html=1;align=center;verticalAlign=middle;resizable=0;points=[];autosize=1;strokeColor=none;fillColor=none;fontStyle=0" parent="wXOhoXnXluSk_stjxNF--1" vertex="1"><mxGeometry x="1315" y="930" width="320" height="20" as="geometry"/></mxCell><mxCell id="wXOhoXnXluSk_stjxNF--7" value="&lt;font style=&quot;font-size: 20px ; font-weight: normal&quot;&gt;Mobile_Phone_Service(&lt;u&gt;ID&lt;/u&gt;, Minutes, SMS, Minutes_Fee, SMS_Fee)&lt;/font&gt;" style="text;html=1;align=center;verticalAlign=middle;resizable=0;points=[];autosize=1;strokeColor=none;fillColor=none;fontStyle=1" parent="wXOhoXnXluSk_stjxNF--1" vertex="1"><mxGeometry x="1530" y="1100" width="620" height="20" as="geometry"/></mxCell><mxCell id="wXOhoXnXluSk_stjxNF--8" value="&lt;font style=&quot;font-size: 20px&quot;&gt;Optional_Product(&lt;u&gt;ID&lt;/u&gt;, Name, Monthly_Fee, Expiration_Date)&lt;/font&gt;" style="text;html=1;align=center;verticalAlign=middle;resizable=0;points=[];autosize=1;strokeColor=none;fillColor=none;fontStyle=0" parent="wXOhoXnXluSk_stjxNF--1" vertex="1"><mxGeometry x="259" y="850" width="550" height="20" as="geometry"/></mxCell><mxCell id="wXOhoXnXluSk_stjxNF--9" value="&lt;font style=&quot;font-size: 20px&quot;&gt;Service_Composition(&lt;u&gt;Package_ID, Service_ID&lt;/u&gt;)&lt;/font&gt;" style="text;html=1;align=center;verticalAlign=middle;resizable=0;points=[];autosize=1;strokeColor=none;fillColor=none;fontStyle=0" parent="wXOhoXnXluSk_stjxNF--1" vertex="1"><mxGeometry x="1710" y="750" width="440" height="20" as="geometry"/></mxCell><mxCell id="wXOhoXnXluSk_stjxNF--10" value="&lt;font style=&quot;font-size: 20px&quot;&gt;Optional_Schedule(&lt;u&gt;Order_ID&lt;/u&gt;,&amp;nbsp;&lt;u&gt;Username, Optional_Product_ID&lt;/u&gt;, Activation_Date, Deactivation_Date)&lt;/font&gt;" style="text;html=1;align=center;verticalAlign=middle;resizable=0;points=[];autosize=1;strokeColor=none;fillColor=none;" parent="wXOhoXnXluSk_stjxNF--1" vertex="1"><mxGeometry x="10" y="680" width="900" height="20" as="geometry"/></mxCell><mxCell id="wXOhoXnXluSk_stjxNF--11" value="&lt;font style=&quot;font-size: 20px&quot;&gt;Auditing(&lt;u&gt;Username&lt;/u&gt;, Email, Amount, Rejection_Date, Rejection_Time, Is_Active)&lt;/font&gt;" style="text;html=1;align=center;verticalAlign=middle;resizable=0;points=[];autosize=1;strokeColor=none;fillColor=none;" parent="wXOhoXnXluSk_stjxNF--1" vertex="1"><mxGeometry x="625" y="310" width="720" height="20" as="geometry"/></mxCell><mxCell id="wXOhoXnXluSk_stjxNF--12" value="" style="endArrow=classic;html=1;rounded=0;fontSize=20;entryX=0.158;entryY=-0.15;entryDx=0;entryDy=0;entryPerimeter=0;exitX=0.103;exitY=1.05;exitDx=0;exitDy=0;exitPerimeter=0;" parent="wXOhoXnXluSk_stjxNF--1" source="wXOhoXnXluSk_stjxNF--3" target="wXOhoXnXluSk_stjxNF--2" edge="1"><mxGeometry width="50" height="50" relative="1" as="geometry"><mxPoint x="240" y="710" as="sourcePoint"/><mxPoint x="290" y="660" as="targetPoint"/><Array as="points"><mxPoint x="-369" y="350"/><mxPoint x="186" y="350"/></Array></mxGeometry></mxCell><mxCell id="wXOhoXnXluSk_stjxNF--13" value="" style="endArrow=classic;html=1;rounded=0;fontSize=20;entryX=0.223;entryY=1.1;entryDx=0;entryDy=0;entryPerimeter=0;exitX=0.396;exitY=-0.025;exitDx=0;exitDy=0;exitPerimeter=0;" parent="wXOhoXnXluSk_stjxNF--1" source="wXOhoXnXluSk_stjxNF--3" target="wXOhoXnXluSk_stjxNF--4" edge="1"><mxGeometry width="50" height="50" relative="1" as="geometry"><mxPoint x="-20" y="200" as="sourcePoint"/><mxPoint x="290" y="630" as="targetPoint"/><Array as="points"><mxPoint x="-12" y="160"/><mxPoint x="391" y="160"/></Array></mxGeometry></mxCell><mxCell id="wXOhoXnXluSk_stjxNF--14" value="" style="endArrow=classic;html=1;rounded=0;fontSize=20;entryX=0.442;entryY=-0.25;entryDx=0;entryDy=0;entryPerimeter=0;exitX=0.278;exitY=1.043;exitDx=0;exitDy=0;exitPerimeter=0;" parent="wXOhoXnXluSk_stjxNF--1" source="wXOhoXnXluSk_stjxNF--4" target="wXOhoXnXluSk_stjxNF--5" edge="1"><mxGeometry width="50" height="50" relative="1" as="geometry"><mxPoint x="320" y="680" as="sourcePoint"/><mxPoint x="250.20000000000005" y="649" as="targetPoint"/><Array as="points"><mxPoint x="429" y="160"/><mxPoint x="1564" y="160"/></Array></mxGeometry></mxCell><mxCell id="wXOhoXnXluSk_stjxNF--16" value="&lt;font style=&quot;font-size: 20px&quot;&gt;Mobile_Internet_Service(&lt;u&gt;ID&lt;/u&gt;, GB, GB_Fee)&lt;/font&gt;" style="text;html=1;align=center;verticalAlign=middle;resizable=0;points=[];autosize=1;strokeColor=none;fillColor=none;fontStyle=0" parent="wXOhoXnXluSk_stjxNF--1" vertex="1"><mxGeometry x="1095" y="1100" width="390" height="20" as="geometry"/></mxCell><mxCell id="wXOhoXnXluSk_stjxNF--17" value="" style="endArrow=classic;html=1;rounded=0;fontSize=20;entryX=0.282;entryY=1.083;entryDx=0;entryDy=0;entryPerimeter=0;" parent="wXOhoXnXluSk_stjxNF--1" target="wXOhoXnXluSk_stjxNF--6" edge="1"><mxGeometry width="50" height="50" relative="1" as="geometry"><mxPoint x="1335" y="1100" as="sourcePoint"/><mxPoint x="695" y="980" as="targetPoint"/><Array as="points"><mxPoint x="1335" y="1020"/><mxPoint x="1406" y="1020"/></Array></mxGeometry></mxCell><mxCell id="wXOhoXnXluSk_stjxNF--18" value="" style="endArrow=classic;html=1;rounded=0;fontSize=20;exitX=0.375;exitY=-0.017;exitDx=0;exitDy=0;exitPerimeter=0;entryX=0.31;entryY=1.033;entryDx=0;entryDy=0;entryPerimeter=0;" parent="wXOhoXnXluSk_stjxNF--1" source="wXOhoXnXluSk_stjxNF--7" target="wXOhoXnXluSk_stjxNF--6" edge="1"><mxGeometry width="50" height="50" relative="1" as="geometry"><mxPoint x="1765" y="1098" as="sourcePoint"/><mxPoint x="1423" y="950" as="targetPoint"/><Array as="points"><mxPoint x="1760" y="1020"/><mxPoint x="1415" y="1020"/></Array></mxGeometry></mxCell><mxCell id="L7VXPWFC84MTkAvFYwwD-0" value="" style="endArrow=classic;html=1;rounded=0;fontSize=12;exitX=0.586;exitY=0;exitDx=0;exitDy=0;exitPerimeter=0;entryX=0.453;entryY=1.083;entryDx=0;entryDy=0;entryPerimeter=0;" parent="wXOhoXnXluSk_stjxNF--1" source="wXOhoXnXluSk_stjxNF--9" target="wXOhoXnXluSk_stjxNF--5" edge="1"><mxGeometry width="50" height="50" relative="1" as="geometry"><mxPoint x="310" y="960" as="sourcePoint"/><mxPoint x="360" y="910" as="targetPoint"/><Array as="points"><mxPoint x="1971" y="410"/><mxPoint x="1571" y="410"/></Array></mxGeometry></mxCell><mxCell id="L7VXPWFC84MTkAvFYwwD-1" value="" style="endArrow=classic;html=1;rounded=0;fontSize=12;exitX=0.862;exitY=1.033;exitDx=0;exitDy=0;exitPerimeter=0;entryX=0.29;entryY=-0.029;entryDx=0;entryDy=0;entryPerimeter=0;" parent="wXOhoXnXluSk_stjxNF--1" source="wXOhoXnXluSk_stjxNF--9" target="wXOhoXnXluSk_stjxNF--6" edge="1"><mxGeometry width="50" height="50" relative="1" as="geometry"><mxPoint x="432.23" y="839.8800000000001" as="sourcePoint"/><mxPoint x="1020" y="790" as="targetPoint"/><Array as="points"><mxPoint x="2089" y="890"/><mxPoint x="1408" y="890"/></Array></mxGeometry></mxCell><mxCell id="L7VXPWFC84MTkAvFYwwD-2" value="" style="endArrow=classic;html=1;rounded=0;fontSize=12;exitX=0.852;exitY=1.05;exitDx=0;exitDy=0;exitPerimeter=0;entryX=0.343;entryY=-0.057;entryDx=0;entryDy=0;entryPerimeter=0;fontStyle=1;strokeWidth=4;" parent="wXOhoXnXluSk_stjxNF--1" source="L7VXPWFC84MTkAvFYwwD-3" target="wXOhoXnXluSk_stjxNF--8" edge="1"><mxGeometry width="50" height="50" relative="1" as="geometry"><mxPoint x="490" y="790" as="sourcePoint"/><mxPoint x="900" y="910" as="targetPoint"/><Array as="points"><mxPoint x="1655" y="810"/><mxPoint x="448" y="810"/></Array></mxGeometry></mxCell><mxCell id="L7VXPWFC84MTkAvFYwwD-3" value="&lt;font style=&quot;font-size: 20px&quot;&gt;Optional_Product_Composition(&lt;u&gt;Package_ID, Optional_Product_ID)&lt;/u&gt;&lt;/font&gt;" style="text;html=1;align=center;verticalAlign=middle;resizable=0;points=[];autosize=1;strokeColor=none;fillColor=none;fontStyle=0" parent="wXOhoXnXluSk_stjxNF--1" vertex="1"><mxGeometry x="1135" y="560" width="610" height="20" as="geometry"/></mxCell><mxCell id="L7VXPWFC84MTkAvFYwwD-4" value="" style="endArrow=classic;html=1;rounded=0;fontSize=12;entryX=0.432;entryY=1.117;entryDx=0;entryDy=0;entryPerimeter=0;" parent="wXOhoXnXluSk_stjxNF--1" target="wXOhoXnXluSk_stjxNF--5" edge="1"><mxGeometry width="50" height="50" relative="1" as="geometry"><mxPoint x="1485" y="561" as="sourcePoint"/><mxPoint x="888.4000000000001" y="851.28" as="targetPoint"/><Array as="points"><mxPoint x="1485" y="410"/><mxPoint x="1561" y="410"/></Array></mxGeometry></mxCell><mxCell id="L7VXPWFC84MTkAvFYwwD-5" value="&lt;font style=&quot;font-size: 20px&quot;&gt;Order_Optional_Composition(&lt;u&gt;Order_ID, Optional_Product_ID&lt;/u&gt;)&lt;/font&gt;" style="text;html=1;align=center;verticalAlign=middle;resizable=0;points=[];autosize=1;strokeColor=none;fillColor=none;fontStyle=0" parent="wXOhoXnXluSk_stjxNF--1" vertex="1"><mxGeometry x="-620" y="860" width="570" height="20" as="geometry"/></mxCell><mxCell id="L7VXPWFC84MTkAvFYwwD-6" value="" style="endArrow=classic;html=1;rounded=0;fontSize=12;exitX=0.562;exitY=-0.04;exitDx=0;exitDy=0;exitPerimeter=0;entryX=0.057;entryY=1.05;entryDx=0;entryDy=0;entryPerimeter=0;" parent="wXOhoXnXluSk_stjxNF--1" source="L7VXPWFC84MTkAvFYwwD-5" target="wXOhoXnXluSk_stjxNF--3" edge="1"><mxGeometry width="50" height="50" relative="1" as="geometry"><mxPoint x="580" y="620" as="sourcePoint"/><mxPoint x="833" y="230" as="targetPoint"/><Array as="points"><mxPoint x="-300" y="750"/><mxPoint x="-425" y="750"/></Array></mxGeometry></mxCell><mxCell id="L7VXPWFC84MTkAvFYwwD-7" value="" style="endArrow=classic;html=1;rounded=0;fontSize=12;exitX=0.787;exitY=1.207;exitDx=0;exitDy=0;exitPerimeter=0;entryX=0.331;entryY=0.943;entryDx=0;entryDy=0;entryPerimeter=0;" parent="wXOhoXnXluSk_stjxNF--1" source="L7VXPWFC84MTkAvFYwwD-5" target="wXOhoXnXluSk_stjxNF--8" edge="1"><mxGeometry width="50" height="50" relative="1" as="geometry"><mxPoint x="182.74" y="441.06000000000006" as="sourcePoint"/><mxPoint x="233.07999999999993" y="557.52" as="targetPoint"/><Array as="points"><mxPoint x="-171" y="960"/><mxPoint x="441" y="960"/></Array></mxGeometry></mxCell><mxCell id="L7VXPWFC84MTkAvFYwwD-8" value="" style="endArrow=classic;html=1;rounded=0;fontSize=12;entryX=0.181;entryY=1.233;entryDx=0;entryDy=0;entryPerimeter=0;exitX=0.359;exitY=0.067;exitDx=0;exitDy=0;exitPerimeter=0;" parent="wXOhoXnXluSk_stjxNF--1" source="wXOhoXnXluSk_stjxNF--10" target="wXOhoXnXluSk_stjxNF--2" edge="1"><mxGeometry width="50" height="50" relative="1" as="geometry"><mxPoint x="1020" y="830" as="sourcePoint"/><mxPoint x="800" y="570" as="targetPoint"/><Array as="points"><mxPoint x="333" y="550"/><mxPoint x="200" y="550"/></Array></mxGeometry></mxCell><mxCell id="L7VXPWFC84MTkAvFYwwD-9" value="" style="endArrow=classic;html=1;rounded=0;fontSize=12;exitX=0.469;exitY=0.986;exitDx=0;exitDy=0;exitPerimeter=0;entryX=0.318;entryY=-0.091;entryDx=0;entryDy=0;entryPerimeter=0;" parent="wXOhoXnXluSk_stjxNF--1" source="wXOhoXnXluSk_stjxNF--10" target="wXOhoXnXluSk_stjxNF--8" edge="1"><mxGeometry width="50" height="50" relative="1" as="geometry"><mxPoint x="930" y="550" as="sourcePoint"/><mxPoint x="1300" y="720" as="targetPoint"/><Array as="points"/></mxGeometry></mxCell><mxCell id="Z3MKjClOpT0yfExqItpc-0" value="&lt;font style=&quot;font-size: 20px&quot;&gt;Service_Schedule(&lt;u&gt;Order_ID, Username, ServiceID&lt;/u&gt;, ActivationDate, DeactivationDate)&lt;/font&gt;" style="text;html=1;align=center;verticalAlign=middle;resizable=0;points=[];autosize=1;strokeColor=none;fillColor=none;" parent="wXOhoXnXluSk_stjxNF--1" vertex="1"><mxGeometry x="420" y="510" width="780" height="20" as="geometry"/></mxCell><mxCell id="Z3MKjClOpT0yfExqItpc-1" value="" style="endArrow=classic;html=1;rounded=0;fontSize=12;exitX=0.411;exitY=-0.1;exitDx=0;exitDy=0;exitPerimeter=0;entryX=0.224;entryY=1.15;entryDx=0;entryDy=0;entryPerimeter=0;" parent="wXOhoXnXluSk_stjxNF--1" source="Z3MKjClOpT0yfExqItpc-0" target="wXOhoXnXluSk_stjxNF--2" edge="1"><mxGeometry width="50" height="50" relative="1" as="geometry"><mxPoint x="1027.92" y="558" as="sourcePoint"/><mxPoint x="645.8400000000001" y="431.28" as="targetPoint"/><Array as="points"><mxPoint x="741" y="480"/><mxPoint x="227" y="480"/></Array></mxGeometry></mxCell><mxCell id="Z3MKjClOpT0yfExqItpc-2" value="" style="endArrow=classic;html=1;rounded=0;fontSize=12;exitX=0.523;exitY=1.025;exitDx=0;exitDy=0;exitPerimeter=0;entryX=0.263;entryY=-0.043;entryDx=0;entryDy=0;entryPerimeter=0;" parent="wXOhoXnXluSk_stjxNF--1" source="Z3MKjClOpT0yfExqItpc-0" target="wXOhoXnXluSk_stjxNF--6" edge="1"><mxGeometry width="50" height="50" relative="1" as="geometry"><mxPoint x="1165.75" y="562" as="sourcePoint"/><mxPoint x="1390" y="1020" as="targetPoint"/><Array as="points"><mxPoint x="828" y="630"/><mxPoint x="1399" y="630"/></Array></mxGeometry></mxCell><mxCell id="J7atwfTw_nqtU-0R85Ng-0" value="&lt;font style=&quot;font-size: 20px&quot;&gt;Employee(&lt;u&gt;Username&lt;/u&gt;, Password, Email)&lt;/font&gt;" style="text;html=1;align=center;verticalAlign=middle;resizable=0;points=[];autosize=1;strokeColor=none;fillColor=none;fontStyle=0" parent="wXOhoXnXluSk_stjxNF--1" vertex="1"><mxGeometry x="-440" y="1080" width="370" height="20" as="geometry"/></mxCell><mxCell id="J7atwfTw_nqtU-0R85Ng-1" value="&lt;font style=&quot;font-size: 20px&quot;&gt;Fixed_Internet_Service(&lt;u&gt;ID&lt;/u&gt;, GB, GB_Fee)&lt;/font&gt;" style="text;html=1;align=center;verticalAlign=middle;resizable=0;points=[];autosize=1;strokeColor=none;fillColor=none;fontStyle=0" parent="wXOhoXnXluSk_stjxNF--1" vertex="1"><mxGeometry x="685" y="1100" width="380" height="20" as="geometry"/></mxCell><mxCell id="J7atwfTw_nqtU-0R85Ng-2" value="" style="endArrow=classic;html=1;rounded=0;fontSize=20;entryX=0.222;entryY=1.058;entryDx=0;entryDy=0;entryPerimeter=0;exitX=0.479;exitY=-0.108;exitDx=0;exitDy=0;exitPerimeter=0;" parent="wXOhoXnXluSk_stjxNF--1" source="wXOhoXnXluSk_stjxNF--3" target="wXOhoXnXluSk_stjxNF--4" edge="1"><mxGeometry width="50" height="50" relative="1" as="geometry"><mxPoint x="-9.159999999999854" y="219.5" as="sourcePoint"/><mxPoint x="389.78999999999996" y="102" as="targetPoint"/><Array as="points"><mxPoint x="88" y="160"/><mxPoint x="390" y="160"/></Array></mxGeometry></mxCell><mxCell id="J7atwfTw_nqtU-0R85Ng-3" value="" style="endArrow=classic;html=1;rounded=0;fontSize=20;entryX=0.26;entryY=1.033;entryDx=0;entryDy=0;entryPerimeter=0;" parent="wXOhoXnXluSk_stjxNF--1" target="wXOhoXnXluSk_stjxNF--6" edge="1"><mxGeometry width="50" height="50" relative="1" as="geometry"><mxPoint x="909" y="1100" as="sourcePoint"/><mxPoint x="1405" y="950" as="targetPoint"/><Array as="points"><mxPoint x="909" y="1020"/><mxPoint x="1398" y="1020"/></Array></mxGeometry></mxCell><mxCell id="J7atwfTw_nqtU-0R85Ng-6" value="" style="endArrow=classic;html=1;rounded=0;fontSize=12;exitX=0.246;exitY=-0.1;exitDx=0;exitDy=0;exitPerimeter=0;entryX=0.067;entryY=1.083;entryDx=0;entryDy=0;entryPerimeter=0;" parent="wXOhoXnXluSk_stjxNF--1" source="wXOhoXnXluSk_stjxNF--10" target="wXOhoXnXluSk_stjxNF--3" edge="1"><mxGeometry width="50" height="50" relative="1" as="geometry"><mxPoint x="343.0999999999997" y="691.3400000000001" as="sourcePoint"/><mxPoint x="-440" y="240" as="targetPoint"/><Array as="points"><mxPoint x="231" y="590"/><mxPoint x="-413" y="590"/></Array></mxGeometry></mxCell><mxCell id="J7atwfTw_nqtU-0R85Ng-7" value="" style="endArrow=classic;html=1;rounded=0;fontSize=12;exitX=0.285;exitY=1.024;exitDx=0;exitDy=0;exitPerimeter=0;entryX=0.075;entryY=1.082;entryDx=0;entryDy=0;entryPerimeter=0;" parent="wXOhoXnXluSk_stjxNF--1" source="Z3MKjClOpT0yfExqItpc-0" target="wXOhoXnXluSk_stjxNF--3" edge="1"><mxGeometry width="50" height="50" relative="1" as="geometry"><mxPoint x="241.4000000000001" y="688" as="sourcePoint"/><mxPoint x="-433.56999999999994" y="241.66000000000008" as="targetPoint"/><Array as="points"><mxPoint x="642" y="570"/><mxPoint x="-403" y="570"/></Array></mxGeometry></mxCell><mxCell id="J7atwfTw_nqtU-0R85Ng-8" value="" style="endArrow=none;html=1;rounded=0;fontSize=20;entryX=0.205;entryY=-0.15;entryDx=0;entryDy=0;entryPerimeter=0;exitX=0.202;exitY=-0.25;exitDx=0;exitDy=0;exitPerimeter=0;endFill=0;startArrow=classic;startFill=1;" parent="wXOhoXnXluSk_stjxNF--1" source="wXOhoXnXluSk_stjxNF--2" target="wXOhoXnXluSk_stjxNF--11" edge="1"><mxGeometry width="50" height="50" relative="1" as="geometry"><mxPoint x="429.94000000000005" y="100.8599999999999" as="sourcePoint"/><mxPoint x="1574.48" y="245" as="targetPoint"/><Array as="points"><mxPoint x="213" y="270"/><mxPoint x="773" y="270"/></Array></mxGeometry></mxCell></root></mxGraphModel></diagram><diagram id="pJa-9UJa8lDg88VhocNh" name="Login/Registration"><mxGraphModel dx="855" dy="533" grid="1" gridSize="10" guides="1" tooltips="1" connect="1" arrows="1" fold="1" page="1" pageScale="1" pageWidth="827" pageHeight="1169" background="#DAD2D8" math="0" shadow="0"><root><mxCell id="W2ZQOT0r2wCQW-X1LLgA-0"/><mxCell id="W2ZQOT0r2wCQW-X1LLgA-1" parent="W2ZQOT0r2wCQW-X1LLgA-0"/><mxCell id="W2ZQOT0r2wCQW-X1LLgA-3" value="" style="whiteSpace=wrap;html=1;rounded=0;fillColor=#FAE5C7;strokeColor=#0F8B8D;fontColor=#143642;sketch=1;" parent="W2ZQOT0r2wCQW-X1LLgA-1" vertex="1"><mxGeometry x="30" y="95" width="200" height="290" as="geometry"/></mxCell><mxCell id="W2ZQOT0r2wCQW-X1LLgA-2" value="RegistrationForm" style="whiteSpace=wrap;html=1;rounded=0;fillColor=#FAE5C7;strokeColor=#0F8B8D;fontColor=#143642;sketch=1;" parent="W2ZQOT0r2wCQW-X1LLgA-1" vertex="1"><mxGeometry x="60" y="130" width="120" height="60" as="geometry"/></mxCell><mxCell id="W2ZQOT0r2wCQW-X1LLgA-4" value="LoginForm" style="whiteSpace=wrap;html=1;rounded=0;fillColor=#FAE5C7;strokeColor=#0F8B8D;fontColor=#143642;sketch=1;" parent="W2ZQOT0r2wCQW-X1LLgA-1" vertex="1"><mxGeometry x="60" y="210" width="120" height="60" as="geometry"/></mxCell><mxCell id="W2ZQOT0r2wCQW-X1LLgA-6" value="WithoutBrowsingLink" style="whiteSpace=wrap;html=1;rounded=0;fillColor=#FAE5C7;strokeColor=#0F8B8D;fontColor=#143642;sketch=1;" parent="W2ZQOT0r2wCQW-X1LLgA-1" vertex="1"><mxGeometry x="60" y="290" width="120" height="60" as="geometry"/></mxCell><mxCell id="W2ZQOT0r2wCQW-X1LLgA-7" value="LANDING PAGE" style="text;html=1;strokeColor=none;fillColor=none;align=center;verticalAlign=middle;whiteSpace=wrap;rounded=0;fontColor=#143642;sketch=1;" parent="W2ZQOT0r2wCQW-X1LLgA-1" vertex="1"><mxGeometry x="30" y="95" width="140" height="30" as="geometry"/></mxCell><mxCell id="W2ZQOT0r2wCQW-X1LLgA-10" value="" style="group;rounded=0;fontColor=#143642;sketch=1;" parent="W2ZQOT0r2wCQW-X1LLgA-1" vertex="1" connectable="0"><mxGeometry x="610" y="100" width="200" height="290" as="geometry"/></mxCell><mxCell id="W2ZQOT0r2wCQW-X1LLgA-8" value="" style="whiteSpace=wrap;html=1;rounded=0;fillColor=#FAE5C7;strokeColor=#0F8B8D;fontColor=#143642;sketch=1;" parent="W2ZQOT0r2wCQW-X1LLgA-10" vertex="1"><mxGeometry width="200" height="290" as="geometry"/></mxCell><mxCell id="W2ZQOT0r2wCQW-X1LLgA-9" value="HOME PAGE" style="text;html=1;strokeColor=none;fillColor=none;align=center;verticalAlign=middle;whiteSpace=wrap;rounded=0;fontColor=#143642;sketch=1;" parent="W2ZQOT0r2wCQW-X1LLgA-10" vertex="1"><mxGeometry width="140" height="30" as="geometry"/></mxCell><mxCell id="W2ZQOT0r2wCQW-X1LLgA-32" value="" style="rounded=1;whiteSpace=wrap;html=1;fillColor=#FAE5C7;strokeColor=#0F8B8D;fontColor=#143642;sketch=1;" parent="W2ZQOT0r2wCQW-X1LLgA-10" vertex="1"><mxGeometry x="40" y="115" width="120" height="60" as="geometry"/></mxCell><mxCell id="W2ZQOT0r2wCQW-X1LLgA-11" value="" style="group;rounded=0;fontColor=#143642;sketch=1;" parent="W2ZQOT0r2wCQW-X1LLgA-1" vertex="1" connectable="0"><mxGeometry x="590" y="505" width="200" height="290" as="geometry"/></mxCell><mxCell id="W2ZQOT0r2wCQW-X1LLgA-12" value="" style="whiteSpace=wrap;html=1;rounded=0;fillColor=#FAE5C7;strokeColor=#0F8B8D;fontColor=#143642;sketch=1;" parent="W2ZQOT0r2wCQW-X1LLgA-11" vertex="1"><mxGeometry width="200" height="290" as="geometry"/></mxCell><mxCell id="W2ZQOT0r2wCQW-X1LLgA-13" value="REGISTRATION PAGE" style="text;html=1;strokeColor=none;fillColor=none;align=center;verticalAlign=middle;whiteSpace=wrap;rounded=0;fontColor=#143642;sketch=1;" parent="W2ZQOT0r2wCQW-X1LLgA-11" vertex="1"><mxGeometry width="140" height="30" as="geometry"/></mxCell><mxCell id="W2ZQOT0r2wCQW-X1LLgA-19" value="RegistrationForm" style="whiteSpace=wrap;html=1;rounded=0;fillColor=#FAE5C7;strokeColor=#0F8B8D;fontColor=#143642;sketch=1;" parent="W2ZQOT0r2wCQW-X1LLgA-11" vertex="1"><mxGeometry x="20" y="120" width="120" height="60" as="geometry"/></mxCell><mxCell id="W2ZQOT0r2wCQW-X1LLgA-14" value="" style="group;rounded=0;fontColor=#143642;sketch=1;" parent="W2ZQOT0r2wCQW-X1LLgA-1" vertex="1" connectable="0"><mxGeometry x="20" y="510" width="200" height="290" as="geometry"/></mxCell><mxCell id="W2ZQOT0r2wCQW-X1LLgA-15" value="" style="whiteSpace=wrap;html=1;rounded=0;fillColor=#FAE5C7;strokeColor=#0F8B8D;fontColor=#143642;sketch=1;" parent="W2ZQOT0r2wCQW-X1LLgA-14" vertex="1"><mxGeometry width="200" height="290" as="geometry"/></mxCell><mxCell id="W2ZQOT0r2wCQW-X1LLgA-16" value="LOGIN PAGE" style="text;html=1;strokeColor=none;fillColor=none;align=center;verticalAlign=middle;whiteSpace=wrap;rounded=0;fontColor=#143642;sketch=1;" parent="W2ZQOT0r2wCQW-X1LLgA-14" vertex="1"><mxGeometry width="140" height="30" as="geometry"/></mxCell><mxCell id="W2ZQOT0r2wCQW-X1LLgA-17" value="LoginForm" style="whiteSpace=wrap;html=1;rounded=0;fillColor=#FAE5C7;strokeColor=#0F8B8D;fontColor=#143642;sketch=1;" parent="W2ZQOT0r2wCQW-X1LLgA-14" vertex="1"><mxGeometry x="20" y="40" width="120" height="60" as="geometry"/></mxCell><mxCell id="W2ZQOT0r2wCQW-X1LLgA-20" value="" style="endArrow=classic;html=1;entryX=0.5;entryY=0;entryDx=0;entryDy=0;rounded=0;labelBackgroundColor=#DAD2D8;strokeColor=#A8201A;fontColor=#143642;sketch=1;curved=1;" parent="W2ZQOT0r2wCQW-X1LLgA-1" target="W2ZQOT0r2wCQW-X1LLgA-7" edge="1"><mxGeometry width="50" height="50" relative="1" as="geometry"><mxPoint x="100" y="10" as="sourcePoint"/><mxPoint x="300" y="390" as="targetPoint"/></mxGeometry></mxCell><mxCell id="W2ZQOT0r2wCQW-X1LLgA-21" value="" style="endArrow=classic;html=1;startArrow=oval;startFill=1;endSize=6;startSize=20;endFill=1;exitX=1;exitY=0.5;exitDx=0;exitDy=0;entryX=0;entryY=0.5;entryDx=0;entryDy=0;rounded=0;labelBackgroundColor=#DAD2D8;strokeColor=#A8201A;fontColor=#143642;sketch=1;curved=1;" parent="W2ZQOT0r2wCQW-X1LLgA-1" source="W2ZQOT0r2wCQW-X1LLgA-2" target="W2ZQOT0r2wCQW-X1LLgA-26" edge="1"><mxGeometry width="50" height="50" relative="1" as="geometry"><mxPoint x="340" y="290" as="sourcePoint"/><mxPoint x="360" y="160" as="targetPoint"/></mxGeometry></mxCell><mxCell id="W2ZQOT0r2wCQW-X1LLgA-22" value="" style="endArrow=classic;html=1;startArrow=oval;startFill=1;endSize=6;startSize=20;endFill=1;exitX=1;exitY=0.5;exitDx=0;exitDy=0;entryX=0;entryY=0.5;entryDx=0;entryDy=0;rounded=0;labelBackgroundColor=#DAD2D8;strokeColor=#A8201A;fontColor=#143642;sketch=1;curved=1;" parent="W2ZQOT0r2wCQW-X1LLgA-1" source="W2ZQOT0r2wCQW-X1LLgA-4" target="W2ZQOT0r2wCQW-X1LLgA-27" edge="1"><mxGeometry width="50" height="50" relative="1" as="geometry"><mxPoint x="260" y="250" as="sourcePoint"/><mxPoint x="350" y="240" as="targetPoint"/></mxGeometry></mxCell><mxCell id="W2ZQOT0r2wCQW-X1LLgA-23" value="" style="endArrow=classic;html=1;startArrow=oval;startFill=1;endSize=6;startSize=20;endFill=1;exitX=1;exitY=0.5;exitDx=0;exitDy=0;entryX=0;entryY=0.5;entryDx=0;entryDy=0;rounded=0;labelBackgroundColor=#DAD2D8;strokeColor=#A8201A;fontColor=#143642;sketch=1;curved=1;" parent="W2ZQOT0r2wCQW-X1LLgA-1" source="W2ZQOT0r2wCQW-X1LLgA-6" target="W2ZQOT0r2wCQW-X1LLgA-24" edge="1"><mxGeometry width="50" height="50" relative="1" as="geometry"><mxPoint x="200" y="180" as="sourcePoint"/><mxPoint x="380" y="180" as="targetPoint"/></mxGeometry></mxCell><mxCell id="W2ZQOT0r2wCQW-X1LLgA-24" value="HomePage&lt;br&gt;@GoToHomePageServlet" style="shape=parallelogram;perimeter=parallelogramPerimeter;whiteSpace=wrap;html=1;fixedSize=1;rounded=0;fillColor=#FAE5C7;strokeColor=#0F8B8D;fontColor=#143642;sketch=1;" parent="W2ZQOT0r2wCQW-X1LLgA-1" vertex="1"><mxGeometry x="390" y="290" width="180" height="60" as="geometry"/></mxCell><mxCell id="W2ZQOT0r2wCQW-X1LLgA-25" value="" style="endArrow=classic;html=1;startArrow=oval;startFill=1;endSize=6;startSize=20;endFill=1;exitX=1;exitY=0.5;exitDx=0;exitDy=0;entryX=0;entryY=0.75;entryDx=0;entryDy=0;rounded=0;labelBackgroundColor=#DAD2D8;strokeColor=#A8201A;fontColor=#143642;sketch=1;curved=1;" parent="W2ZQOT0r2wCQW-X1LLgA-1" source="W2ZQOT0r2wCQW-X1LLgA-24" target="W2ZQOT0r2wCQW-X1LLgA-8" edge="1"><mxGeometry width="50" height="50" relative="1" as="geometry"><mxPoint x="390" y="410" as="sourcePoint"/><mxPoint x="500" y="410" as="targetPoint"/></mxGeometry></mxCell><mxCell id="W2ZQOT0r2wCQW-X1LLgA-26" value="register&lt;br&gt;@CredentialServlet" style="shape=parallelogram;perimeter=parallelogramPerimeter;whiteSpace=wrap;html=1;fixedSize=1;rounded=0;fillColor=#FAE5C7;strokeColor=#0F8B8D;fontColor=#143642;sketch=1;" parent="W2ZQOT0r2wCQW-X1LLgA-1" vertex="1"><mxGeometry x="360" y="130" width="140" height="60" as="geometry"/></mxCell><mxCell id="W2ZQOT0r2wCQW-X1LLgA-27" value="login&lt;br&gt;@LoginServlet" style="shape=parallelogram;perimeter=parallelogramPerimeter;whiteSpace=wrap;html=1;fixedSize=1;rounded=0;fillColor=#FAE5C7;strokeColor=#0F8B8D;fontColor=#143642;sketch=1;" parent="W2ZQOT0r2wCQW-X1LLgA-1" vertex="1"><mxGeometry x="280" y="210" width="116" height="60" as="geometry"/></mxCell><mxCell id="W2ZQOT0r2wCQW-X1LLgA-28" value="" style="endArrow=classic;html=1;startArrow=oval;startFill=1;endSize=6;startSize=20;endFill=1;exitX=1;exitY=0.5;exitDx=0;exitDy=0;rounded=0;labelBackgroundColor=#DAD2D8;strokeColor=#A8201A;fontColor=#143642;sketch=1;curved=1;entryX=0.5;entryY=0;entryDx=0;entryDy=0;" parent="W2ZQOT0r2wCQW-X1LLgA-1" source="W2ZQOT0r2wCQW-X1LLgA-27" target="W2ZQOT0r2wCQW-X1LLgA-24" edge="1"><mxGeometry width="50" height="50" relative="1" as="geometry"><mxPoint x="560" y="330" as="sourcePoint"/><mxPoint x="470" y="288" as="targetPoint"/><Array as="points"><mxPoint x="480" y="240"/></Array></mxGeometry></mxCell><mxCell id="fcCqxNZEkLNuHA9ZesSX-2" value="OK" style="edgeLabel;html=1;align=center;verticalAlign=middle;resizable=0;points=[];labelBackgroundColor=#DAD2D8;fontColor=#143642;sketch=1;" parent="W2ZQOT0r2wCQW-X1LLgA-28" vertex="1" connectable="0"><mxGeometry x="0.0673" y="2" relative="1" as="geometry"><mxPoint as="offset"/></mxGeometry></mxCell><mxCell id="W2ZQOT0r2wCQW-X1LLgA-30" value="" style="endArrow=classic;html=1;startArrow=oval;startFill=1;endSize=6;startSize=20;endFill=1;exitX=1;exitY=0.5;exitDx=0;exitDy=0;entryX=0.75;entryY=0;entryDx=0;entryDy=0;rounded=0;labelBackgroundColor=#DAD2D8;strokeColor=#A8201A;fontColor=#143642;sketch=1;curved=1;" parent="W2ZQOT0r2wCQW-X1LLgA-1" source="W2ZQOT0r2wCQW-X1LLgA-26" target="W2ZQOT0r2wCQW-X1LLgA-3" edge="1"><mxGeometry width="50" height="50" relative="1" as="geometry"><mxPoint x="190.00000000000023" y="170" as="sourcePoint"/><mxPoint x="379.9999999999998" y="170" as="targetPoint"/><Array as="points"><mxPoint x="540" y="160"/><mxPoint x="540" y="40"/><mxPoint x="180" y="40"/></Array></mxGeometry></mxCell><mxCell id="W2ZQOT0r2wCQW-X1LLgA-33" value="" style="endArrow=classic;html=1;startArrow=oval;startFill=1;endSize=6;startSize=20;endFill=1;exitX=0.25;exitY=1;exitDx=0;exitDy=0;entryX=0.75;entryY=0;entryDx=0;entryDy=0;rounded=0;labelBackgroundColor=#DAD2D8;strokeColor=#A8201A;fontColor=#143642;sketch=1;curved=1;" parent="W2ZQOT0r2wCQW-X1LLgA-1" source="W2ZQOT0r2wCQW-X1LLgA-32" target="W2ZQOT0r2wCQW-X1LLgA-15" edge="1"><mxGeometry width="50" height="50" relative="1" as="geometry"><mxPoint x="560" y="330" as="sourcePoint"/><mxPoint x="660" y="327.5" as="targetPoint"/><Array as="points"><mxPoint x="680" y="450"/><mxPoint x="170" y="450"/></Array></mxGeometry></mxCell><mxCell id="W2ZQOT0r2wCQW-X1LLgA-34" value="" style="endArrow=classic;html=1;startArrow=oval;startFill=1;endSize=6;startSize=20;endFill=1;exitX=0.75;exitY=1;exitDx=0;exitDy=0;rounded=0;entryX=0.75;entryY=0;entryDx=0;entryDy=0;labelBackgroundColor=#DAD2D8;strokeColor=#A8201A;fontColor=#143642;sketch=1;curved=1;" parent="W2ZQOT0r2wCQW-X1LLgA-1" source="W2ZQOT0r2wCQW-X1LLgA-32" target="W2ZQOT0r2wCQW-X1LLgA-12" edge="1"><mxGeometry width="50" height="50" relative="1" as="geometry"><mxPoint x="570" y="340" as="sourcePoint"/><mxPoint x="740" y="510" as="targetPoint"/></mxGeometry></mxCell><mxCell id="W2ZQOT0r2wCQW-X1LLgA-35" value="register&lt;br&gt;@CredentialServlet" style="shape=parallelogram;perimeter=parallelogramPerimeter;whiteSpace=wrap;html=1;fixedSize=1;rounded=0;fillColor=#FAE5C7;strokeColor=#0F8B8D;fontColor=#143642;sketch=1;" parent="W2ZQOT0r2wCQW-X1LLgA-1" vertex="1"><mxGeometry x="350" y="625" width="150" height="60" as="geometry"/></mxCell><mxCell id="W2ZQOT0r2wCQW-X1LLgA-36" value="" style="endArrow=classic;html=1;startArrow=oval;startFill=1;endSize=6;startSize=20;endFill=1;exitX=0;exitY=0.5;exitDx=0;exitDy=0;entryX=1;entryY=0.5;entryDx=0;entryDy=0;rounded=0;labelBackgroundColor=#DAD2D8;strokeColor=#A8201A;fontColor=#143642;sketch=1;curved=1;" parent="W2ZQOT0r2wCQW-X1LLgA-1" source="W2ZQOT0r2wCQW-X1LLgA-19" target="W2ZQOT0r2wCQW-X1LLgA-35" edge="1"><mxGeometry width="50" height="50" relative="1" as="geometry"><mxPoint x="190" y="170" as="sourcePoint"/><mxPoint x="380" y="170" as="targetPoint"/></mxGeometry></mxCell><mxCell id="W2ZQOT0r2wCQW-X1LLgA-37" value="" style="endArrow=classic;html=1;startArrow=oval;startFill=1;endSize=6;startSize=20;endFill=1;exitX=0;exitY=0.5;exitDx=0;exitDy=0;entryX=1;entryY=0.5;entryDx=0;entryDy=0;rounded=0;labelBackgroundColor=#DAD2D8;strokeColor=#A8201A;fontColor=#143642;sketch=1;curved=1;" parent="W2ZQOT0r2wCQW-X1LLgA-1" source="W2ZQOT0r2wCQW-X1LLgA-35" target="W2ZQOT0r2wCQW-X1LLgA-15" edge="1"><mxGeometry width="50" height="50" relative="1" as="geometry"><mxPoint x="620" y="600" as="sourcePoint"/><mxPoint x="500" y="600" as="targetPoint"/></mxGeometry></mxCell><mxCell id="fcCqxNZEkLNuHA9ZesSX-6" value="OK" style="edgeLabel;html=1;align=center;verticalAlign=middle;resizable=0;points=[];labelBackgroundColor=#DAD2D8;fontColor=#143642;sketch=1;" parent="W2ZQOT0r2wCQW-X1LLgA-37" vertex="1" connectable="0"><mxGeometry x="-0.1" y="-4" relative="1" as="geometry"><mxPoint as="offset"/></mxGeometry></mxCell><mxCell id="W2ZQOT0r2wCQW-X1LLgA-38" value="" style="endArrow=classic;html=1;startArrow=oval;startFill=1;endSize=6;startSize=20;endFill=1;exitX=1;exitY=0.5;exitDx=0;exitDy=0;entryX=0;entryY=0.5;entryDx=0;entryDy=0;rounded=0;labelBackgroundColor=#DAD2D8;strokeColor=#A8201A;fontColor=#143642;sketch=1;curved=1;" parent="W2ZQOT0r2wCQW-X1LLgA-1" source="W2ZQOT0r2wCQW-X1LLgA-17" target="W2ZQOT0r2wCQW-X1LLgA-39" edge="1"><mxGeometry width="50" height="50" relative="1" as="geometry"><mxPoint x="277" y="500" as="sourcePoint"/><mxPoint x="447" y="500" as="targetPoint"/></mxGeometry></mxCell><mxCell id="W2ZQOT0r2wCQW-X1LLgA-39" value="login&lt;br&gt;@LoginServlet" style="shape=parallelogram;perimeter=parallelogramPerimeter;whiteSpace=wrap;html=1;fixedSize=1;rounded=0;fillColor=#FAE5C7;strokeColor=#0F8B8D;fontColor=#143642;sketch=1;" parent="W2ZQOT0r2wCQW-X1LLgA-1" vertex="1"><mxGeometry x="280" y="550" width="116" height="60" as="geometry"/></mxCell><mxCell id="W2ZQOT0r2wCQW-X1LLgA-40" value="" style="endArrow=classic;html=1;startArrow=oval;startFill=1;endSize=6;startSize=20;endFill=1;exitX=1;exitY=0.5;exitDx=0;exitDy=0;entryX=0.5;entryY=1;entryDx=0;entryDy=0;rounded=0;labelBackgroundColor=#DAD2D8;strokeColor=#A8201A;fontColor=#143642;sketch=1;curved=1;" parent="W2ZQOT0r2wCQW-X1LLgA-1" source="W2ZQOT0r2wCQW-X1LLgA-39" target="W2ZQOT0r2wCQW-X1LLgA-24" edge="1"><mxGeometry width="50" height="50" relative="1" as="geometry"><mxPoint x="657" y="590" as="sourcePoint"/><mxPoint x="550.8461538461538" y="568.4615384615386" as="targetPoint"/><Array as="points"><mxPoint x="500" y="580"/></Array></mxGeometry></mxCell><mxCell id="fcCqxNZEkLNuHA9ZesSX-0" value="" style="endArrow=classic;html=1;startArrow=oval;startFill=1;endSize=6;startSize=20;endFill=1;exitX=0.5;exitY=0;exitDx=0;exitDy=0;entryX=1;entryY=0.25;entryDx=0;entryDy=0;rounded=0;fontStyle=1;labelBackgroundColor=#DAD2D8;strokeColor=#A8201A;fontColor=#143642;sketch=1;curved=1;" parent="W2ZQOT0r2wCQW-X1LLgA-1" source="W2ZQOT0r2wCQW-X1LLgA-27" target="W2ZQOT0r2wCQW-X1LLgA-4" edge="1"><mxGeometry width="50" height="50" relative="1" as="geometry"><mxPoint x="396" y="250" as="sourcePoint"/><mxPoint x="463.84615384615404" y="318.46153846153857" as="targetPoint"/><Array as="points"><mxPoint x="338" y="190"/><mxPoint x="260" y="190"/><mxPoint x="260" y="225"/></Array></mxGeometry></mxCell><mxCell id="fcCqxNZEkLNuHA9ZesSX-1" value="Error" style="edgeLabel;html=1;align=center;verticalAlign=middle;resizable=0;points=[];labelBackgroundColor=#DAD2D8;fontColor=#143642;sketch=1;" parent="fcCqxNZEkLNuHA9ZesSX-0" vertex="1" connectable="0"><mxGeometry x="-0.252" y="1" relative="1" as="geometry"><mxPoint as="offset"/></mxGeometry></mxCell><mxCell id="fcCqxNZEkLNuHA9ZesSX-3" value="" style="endArrow=classic;html=1;startArrow=oval;startFill=1;endSize=6;startSize=20;endFill=1;exitX=0.5;exitY=0;exitDx=0;exitDy=0;entryX=1;entryY=0.25;entryDx=0;entryDy=0;rounded=0;fontStyle=1;labelBackgroundColor=#DAD2D8;strokeColor=#A8201A;fontColor=#143642;sketch=1;curved=1;" parent="W2ZQOT0r2wCQW-X1LLgA-1" source="W2ZQOT0r2wCQW-X1LLgA-39" target="W2ZQOT0r2wCQW-X1LLgA-17" edge="1"><mxGeometry width="50" height="50" relative="1" as="geometry"><mxPoint x="350" y="520" as="sourcePoint"/><mxPoint x="192" y="535" as="targetPoint"/><Array as="points"><mxPoint x="338" y="510"/><mxPoint x="272" y="510"/><mxPoint x="272" y="565"/></Array></mxGeometry></mxCell><mxCell id="fcCqxNZEkLNuHA9ZesSX-4" value="Error" style="edgeLabel;html=1;align=center;verticalAlign=middle;resizable=0;points=[];labelBackgroundColor=#DAD2D8;fontColor=#143642;sketch=1;" parent="fcCqxNZEkLNuHA9ZesSX-3" vertex="1" connectable="0"><mxGeometry x="-0.252" y="1" relative="1" as="geometry"><mxPoint as="offset"/></mxGeometry></mxCell><mxCell id="fcCqxNZEkLNuHA9ZesSX-5" value="" style="endArrow=classic;html=1;startArrow=oval;startFill=1;endSize=6;startSize=20;endFill=1;exitX=0.5;exitY=1;exitDx=0;exitDy=0;entryX=0;entryY=0.75;entryDx=0;entryDy=0;rounded=0;labelBackgroundColor=#DAD2D8;strokeColor=#A8201A;fontColor=#143642;sketch=1;curved=1;" parent="W2ZQOT0r2wCQW-X1LLgA-1" source="W2ZQOT0r2wCQW-X1LLgA-35" target="W2ZQOT0r2wCQW-X1LLgA-12" edge="1"><mxGeometry width="50" height="50" relative="1" as="geometry"><mxPoint x="370" y="665" as="sourcePoint"/><mxPoint x="230" y="665" as="targetPoint"/><Array as="points"><mxPoint x="425" y="723"/></Array></mxGeometry></mxCell><mxCell id="fcCqxNZEkLNuHA9ZesSX-7" value="Error" style="edgeLabel;html=1;align=center;verticalAlign=middle;resizable=0;points=[];labelBackgroundColor=#DAD2D8;fontColor=#143642;sketch=1;" parent="fcCqxNZEkLNuHA9ZesSX-5" vertex="1" connectable="0"><mxGeometry x="0.1542" y="2" relative="1" as="geometry"><mxPoint as="offset"/></mxGeometry></mxCell></root></mxGraphModel></diagram><diagram name="Purchase" id="xSAx0uXFxgdn-zu0PXJ3"><mxGraphModel dx="881" dy="801" grid="1" gridSize="10" guides="1" tooltips="1" connect="1" arrows="1" fold="1" page="1" pageScale="1" pageWidth="827" pageHeight="1169" background="#DAD2D8" math="0" shadow="0"><root><mxCell id="exRd122ZKtnsMIyY167K-0"/><mxCell id="exRd122ZKtnsMIyY167K-1" parent="exRd122ZKtnsMIyY167K-0"/><mxCell id="exRd122ZKtnsMIyY167K-2" value="" style="group;fontStyle=1;fontColor=#143642;rounded=1;sketch=1;" vertex="1" connectable="0" parent="exRd122ZKtnsMIyY167K-1"><mxGeometry x="24" y="330" width="200" height="290" as="geometry"/></mxCell><mxCell id="exRd122ZKtnsMIyY167K-3" value="" style="whiteSpace=wrap;html=1;fillColor=#FAE5C7;strokeColor=#0F8B8D;fontColor=#143642;rounded=1;sketch=1;" vertex="1" parent="exRd122ZKtnsMIyY167K-2"><mxGeometry width="200" height="290" as="geometry"/></mxCell><mxCell id="exRd122ZKtnsMIyY167K-4" value="HOME PAGE" style="text;html=1;strokeColor=none;fillColor=none;align=center;verticalAlign=middle;whiteSpace=wrap;fontColor=#143642;rounded=1;sketch=1;" vertex="1" parent="exRd122ZKtnsMIyY167K-2"><mxGeometry width="140" height="30" as="geometry"/></mxCell><mxCell id="exRd122ZKtnsMIyY167K-5" value="BuyServiceLink" style="whiteSpace=wrap;html=1;fillColor=#FAE5C7;strokeColor=#0F8B8D;fontColor=#143642;rounded=1;sketch=1;" vertex="1" parent="exRd122ZKtnsMIyY167K-2"><mxGeometry x="30" y="190" width="120" height="60" as="geometry"/></mxCell><mxCell id="exRd122ZKtnsMIyY167K-6" value="PayInsolvent" style="whiteSpace=wrap;html=1;fillColor=#FAE5C7;strokeColor=#0F8B8D;fontColor=#143642;rounded=1;sketch=1;" vertex="1" parent="exRd122ZKtnsMIyY167K-2"><mxGeometry x="30" y="100" width="120" height="60" as="geometry"/></mxCell><mxCell id="exRd122ZKtnsMIyY167K-7" value="" style="group;fontColor=#143642;rounded=1;sketch=1;" vertex="1" connectable="0" parent="exRd122ZKtnsMIyY167K-1"><mxGeometry x="24" y="690" width="200" height="290" as="geometry"/></mxCell><mxCell id="exRd122ZKtnsMIyY167K-8" value="" style="whiteSpace=wrap;html=1;fillColor=#FAE5C7;strokeColor=#0F8B8D;fontColor=#143642;rounded=1;sketch=1;" vertex="1" parent="exRd122ZKtnsMIyY167K-7"><mxGeometry width="200" height="290" as="geometry"/></mxCell><mxCell id="exRd122ZKtnsMIyY167K-9" value="BUY SERVICE PAGE" style="text;html=1;strokeColor=none;fillColor=none;align=center;verticalAlign=middle;whiteSpace=wrap;fontColor=#143642;rounded=1;sketch=1;" vertex="1" parent="exRd122ZKtnsMIyY167K-7"><mxGeometry width="140" height="30" as="geometry"/></mxCell><mxCell id="exRd122ZKtnsMIyY167K-10" value="BuyForm" style="whiteSpace=wrap;html=1;fillColor=#FAE5C7;strokeColor=#0F8B8D;fontColor=#143642;rounded=1;sketch=1;" vertex="1" parent="exRd122ZKtnsMIyY167K-7"><mxGeometry x="40" y="115" width="120" height="60" as="geometry"/></mxCell><mxCell id="exRd122ZKtnsMIyY167K-11" value="ChooseProduct" style="whiteSpace=wrap;html=1;fillColor=#FAE5C7;strokeColor=#0F8B8D;fontColor=#143642;rounded=1;sketch=1;" vertex="1" parent="exRd122ZKtnsMIyY167K-7"><mxGeometry x="40" y="200" width="120" height="60" as="geometry"/></mxCell><mxCell id="exRd122ZKtnsMIyY167K-12" value="" style="group;fontColor=#143642;rounded=1;sketch=1;" vertex="1" connectable="0" parent="exRd122ZKtnsMIyY167K-1"><mxGeometry x="604" y="330" width="200" height="290" as="geometry"/></mxCell><mxCell id="exRd122ZKtnsMIyY167K-13" value="" style="whiteSpace=wrap;html=1;fillColor=#FAE5C7;strokeColor=#0F8B8D;fontColor=#143642;rounded=1;sketch=1;" vertex="1" parent="exRd122ZKtnsMIyY167K-12"><mxGeometry width="200" height="290" as="geometry"/></mxCell><mxCell id="exRd122ZKtnsMIyY167K-14" value="CONFIRMATION PAGE" style="text;html=1;strokeColor=none;fillColor=none;align=center;verticalAlign=middle;whiteSpace=wrap;fontColor=#143642;rounded=1;sketch=1;" vertex="1" parent="exRd122ZKtnsMIyY167K-12"><mxGeometry x="6" y="10" width="140" height="30" as="geometry"/></mxCell><mxCell id="exRd122ZKtnsMIyY167K-15" value="Login/Registration" style="whiteSpace=wrap;html=1;fillColor=#FAE5C7;strokeColor=#0F8B8D;fontColor=#143642;rounded=1;sketch=1;" vertex="1" parent="exRd122ZKtnsMIyY167K-12"><mxGeometry x="40" y="190" width="120" height="60" as="geometry"/></mxCell><mxCell id="exRd122ZKtnsMIyY167K-16" value="BuyButton" style="whiteSpace=wrap;html=1;fillColor=#FAE5C7;strokeColor=#0F8B8D;fontColor=#143642;rounded=1;sketch=1;" vertex="1" parent="exRd122ZKtnsMIyY167K-12"><mxGeometry x="40" y="70" width="120" height="60" as="geometry"/></mxCell><mxCell id="exRd122ZKtnsMIyY167K-17" value="" style="endArrow=classic;html=1;startArrow=oval;startFill=1;endSize=6;startSize=20;endFill=1;exitX=1;exitY=0.5;exitDx=0;exitDy=0;entryX=1;entryY=0.25;entryDx=0;entryDy=0;labelBackgroundColor=#DAD2D8;strokeColor=#A8201A;fontColor=#143642;sketch=1;curved=1;" edge="1" parent="exRd122ZKtnsMIyY167K-1" source="exRd122ZKtnsMIyY167K-5" target="exRd122ZKtnsMIyY167K-8"><mxGeometry width="50" height="50" relative="1" as="geometry"><mxPoint x="370" y="530" as="sourcePoint"/><mxPoint x="304" y="620" as="targetPoint"/><Array as="points"><mxPoint x="270" y="550"/><mxPoint x="270" y="763"/></Array></mxGeometry></mxCell><mxCell id="exRd122ZKtnsMIyY167K-18" value="" style="endArrow=classic;html=1;startArrow=oval;startFill=1;endSize=6;startSize=20;endFill=1;exitX=1;exitY=0.5;exitDx=0;exitDy=0;entryX=0.5;entryY=1;entryDx=0;entryDy=0;labelBackgroundColor=#DAD2D8;strokeColor=#A8201A;fontColor=#143642;sketch=1;curved=1;" edge="1" parent="exRd122ZKtnsMIyY167K-1" source="exRd122ZKtnsMIyY167K-10" target="exRd122ZKtnsMIyY167K-19"><mxGeometry width="50" height="50" relative="1" as="geometry"><mxPoint x="184" y="420" as="sourcePoint"/><mxPoint x="484" y="773" as="targetPoint"/><Array as="points"><mxPoint x="494" y="835"/></Array></mxGeometry></mxCell><mxCell id="exRd122ZKtnsMIyY167K-19" value="CheckForm&lt;br&gt;@BuyPageServlet" style="shape=parallelogram;perimeter=parallelogramPerimeter;whiteSpace=wrap;html=1;fixedSize=1;fillColor=#FAE5C7;strokeColor=#0F8B8D;fontColor=#143642;rounded=1;sketch=1;" vertex="1" parent="exRd122ZKtnsMIyY167K-1"><mxGeometry x="419" y="760" width="150" height="60" as="geometry"/></mxCell><mxCell id="exRd122ZKtnsMIyY167K-20" value="" style="endArrow=classic;html=1;startArrow=oval;startFill=1;endSize=6;startSize=20;endFill=1;exitX=0.5;exitY=0;exitDx=0;exitDy=0;entryX=0.5;entryY=1;entryDx=0;entryDy=0;labelBackgroundColor=#DAD2D8;strokeColor=#A8201A;fontColor=#143642;sketch=1;curved=1;" edge="1" parent="exRd122ZKtnsMIyY167K-1" source="exRd122ZKtnsMIyY167K-19" target="exRd122ZKtnsMIyY167K-27"><mxGeometry width="50" height="50" relative="1" as="geometry"><mxPoint x="194" y="845" as="sourcePoint"/><mxPoint x="494" y="570" as="targetPoint"/><Array as="points"/></mxGeometry></mxCell><mxCell id="exRd122ZKtnsMIyY167K-21" value="OK" style="edgeLabel;html=1;align=center;verticalAlign=middle;resizable=0;points=[];labelBackgroundColor=#DAD2D8;fontColor=#143642;rounded=1;sketch=1;" vertex="1" connectable="0" parent="exRd122ZKtnsMIyY167K-20"><mxGeometry x="-0.3444" y="-5" relative="1" as="geometry"><mxPoint as="offset"/></mxGeometry></mxCell><mxCell id="exRd122ZKtnsMIyY167K-22" value="" style="endArrow=classic;html=1;startArrow=oval;startFill=1;endSize=6;startSize=20;endFill=1;exitX=0;exitY=0.5;exitDx=0;exitDy=0;entryX=1.005;entryY=0.355;entryDx=0;entryDy=0;entryPerimeter=0;labelBackgroundColor=#DAD2D8;strokeColor=#A8201A;fontColor=#143642;sketch=1;curved=1;" edge="1" parent="exRd122ZKtnsMIyY167K-1" source="exRd122ZKtnsMIyY167K-19" target="exRd122ZKtnsMIyY167K-8"><mxGeometry width="50" height="50" relative="1" as="geometry"><mxPoint x="194" y="900" as="sourcePoint"/><mxPoint x="504" y="830" as="targetPoint"/><Array as="points"/></mxGeometry></mxCell><mxCell id="exRd122ZKtnsMIyY167K-23" value="Error" style="edgeLabel;html=1;align=center;verticalAlign=middle;resizable=0;points=[];labelBackgroundColor=#DAD2D8;fontColor=#143642;rounded=1;sketch=1;" vertex="1" connectable="0" parent="exRd122ZKtnsMIyY167K-22"><mxGeometry x="-0.3518" y="-2" relative="1" as="geometry"><mxPoint as="offset"/></mxGeometry></mxCell><mxCell id="exRd122ZKtnsMIyY167K-24" value="" style="endArrow=classic;html=1;startArrow=oval;startFill=1;endSize=6;startSize=20;endFill=1;exitX=0.5;exitY=1;exitDx=0;exitDy=0;entryX=0.5;entryY=0;entryDx=0;entryDy=0;labelBackgroundColor=#DAD2D8;strokeColor=#A8201A;fontColor=#143642;sketch=1;curved=1;" edge="1" parent="exRd122ZKtnsMIyY167K-1" source="exRd122ZKtnsMIyY167K-15" target="exRd122ZKtnsMIyY167K-25"><mxGeometry width="50" height="50" relative="1" as="geometry"><mxPoint x="454" y="800" as="sourcePoint"/><mxPoint x="684" y="700" as="targetPoint"/><Array as="points"/></mxGeometry></mxCell><mxCell id="exRd122ZKtnsMIyY167K-25" value="Login/Registration" style="whiteSpace=wrap;html=1;dashed=1;fillColor=#FAE5C7;strokeColor=#0F8B8D;fontColor=#143642;rounded=1;sketch=1;" vertex="1" parent="exRd122ZKtnsMIyY167K-1"><mxGeometry x="644" y="700" width="120" height="60" as="geometry"/></mxCell><mxCell id="exRd122ZKtnsMIyY167K-26" value="" style="endArrow=classic;html=1;startArrow=oval;startFill=1;endSize=6;startSize=20;endFill=1;exitX=0.75;exitY=0;exitDx=0;exitDy=0;entryX=0.75;entryY=1;entryDx=0;entryDy=0;labelBackgroundColor=#DAD2D8;strokeColor=#A8201A;fontColor=#143642;sketch=1;curved=1;" edge="1" parent="exRd122ZKtnsMIyY167K-1" source="exRd122ZKtnsMIyY167K-25" target="exRd122ZKtnsMIyY167K-13"><mxGeometry width="50" height="50" relative="1" as="geometry"><mxPoint x="694" y="590" as="sourcePoint"/><mxPoint x="694" y="710" as="targetPoint"/><Array as="points"><mxPoint x="734" y="660"/><mxPoint x="754" y="660"/></Array></mxGeometry></mxCell><mxCell id="exRd122ZKtnsMIyY167K-27" value="PrepareDetails&lt;br&gt;@ConfirmationPageServlet" style="shape=parallelogram;perimeter=parallelogramPerimeter;whiteSpace=wrap;html=1;fixedSize=1;fillColor=#FAE5C7;strokeColor=#0F8B8D;fontColor=#143642;rounded=1;sketch=1;" vertex="1" parent="exRd122ZKtnsMIyY167K-1"><mxGeometry x="406" y="620" width="176" height="60" as="geometry"/></mxCell><mxCell id="exRd122ZKtnsMIyY167K-28" value="" style="endArrow=classic;html=1;startArrow=oval;startFill=1;endSize=6;startSize=20;endFill=1;exitX=0.5;exitY=0;exitDx=0;exitDy=0;entryX=0;entryY=0.75;entryDx=0;entryDy=0;labelBackgroundColor=#DAD2D8;strokeColor=#A8201A;fontColor=#143642;sketch=1;curved=1;" edge="1" parent="exRd122ZKtnsMIyY167K-1" source="exRd122ZKtnsMIyY167K-27" target="exRd122ZKtnsMIyY167K-13"><mxGeometry width="50" height="50" relative="1" as="geometry"><mxPoint x="504" y="770" as="sourcePoint"/><mxPoint x="494" y="540" as="targetPoint"/><Array as="points"><mxPoint x="494" y="548"/></Array></mxGeometry></mxCell><mxCell id="exRd122ZKtnsMIyY167K-29" value="ExternalPayment&lt;br&gt;@PaymentServelt" style="whiteSpace=wrap;html=1;dashed=1;fillColor=#FAE5C7;strokeColor=#0F8B8D;fontColor=#143642;rounded=1;sketch=1;" vertex="1" parent="exRd122ZKtnsMIyY167K-1"><mxGeometry x="434" y="445" width="120" height="60" as="geometry"/></mxCell><mxCell id="exRd122ZKtnsMIyY167K-30" value="" style="endArrow=classic;html=1;startArrow=oval;startFill=1;endSize=6;startSize=20;endFill=1;exitX=0;exitY=0.5;exitDx=0;exitDy=0;entryX=1;entryY=0.5;entryDx=0;entryDy=0;labelBackgroundColor=#DAD2D8;strokeColor=#A8201A;fontColor=#143642;sketch=1;curved=1;" edge="1" parent="exRd122ZKtnsMIyY167K-1" source="exRd122ZKtnsMIyY167K-16" target="exRd122ZKtnsMIyY167K-29"><mxGeometry width="50" height="50" relative="1" as="geometry"><mxPoint x="694" y="590" as="sourcePoint"/><mxPoint x="694" y="710" as="targetPoint"/><Array as="points"><mxPoint x="594" y="430"/><mxPoint x="594" y="475"/></Array></mxGeometry></mxCell><mxCell id="exRd122ZKtnsMIyY167K-31" value="" style="endArrow=classic;html=1;startArrow=oval;startFill=1;endSize=6;startSize=20;endFill=1;exitX=0.5;exitY=0;exitDx=0;exitDy=0;entryX=1;entryY=0.5;entryDx=0;entryDy=0;labelBackgroundColor=#DAD2D8;strokeColor=#A8201A;fontColor=#143642;sketch=1;curved=1;" edge="1" parent="exRd122ZKtnsMIyY167K-1" source="exRd122ZKtnsMIyY167K-29" target="exRd122ZKtnsMIyY167K-34"><mxGeometry width="50" height="50" relative="1" as="geometry"><mxPoint x="634" y="440" as="sourcePoint"/><mxPoint x="369" y="380" as="targetPoint"/><Array as="points"><mxPoint x="494" y="360"/></Array></mxGeometry></mxCell><mxCell id="exRd122ZKtnsMIyY167K-32" value="" style="endArrow=classic;html=1;startArrow=oval;startFill=1;endSize=6;startSize=20;endFill=1;exitX=1;exitY=0.5;exitDx=0;exitDy=0;entryX=0;entryY=0.5;entryDx=0;entryDy=0;labelBackgroundColor=#DAD2D8;strokeColor=#A8201A;fontColor=#143642;sketch=1;curved=1;" edge="1" parent="exRd122ZKtnsMIyY167K-1" source="exRd122ZKtnsMIyY167K-6" target="exRd122ZKtnsMIyY167K-27"><mxGeometry width="50" height="50" relative="1" as="geometry"><mxPoint x="184" y="560" as="sourcePoint"/><mxPoint x="234" y="772.5" as="targetPoint"/><Array as="points"><mxPoint x="320" y="460"/><mxPoint x="320" y="650"/></Array></mxGeometry></mxCell><mxCell id="exRd122ZKtnsMIyY167K-33" value="" style="group;fontColor=#143642;rounded=1;sketch=1;" vertex="1" connectable="0" parent="exRd122ZKtnsMIyY167K-1"><mxGeometry x="300" y="310" width="170" height="100" as="geometry"/></mxCell><mxCell id="exRd122ZKtnsMIyY167K-34" value="" style="whiteSpace=wrap;html=1;fillColor=#FAE5C7;strokeColor=#0F8B8D;fontColor=#143642;rounded=1;sketch=1;" vertex="1" parent="exRd122ZKtnsMIyY167K-33"><mxGeometry width="170" height="100" as="geometry"/></mxCell><mxCell id="exRd122ZKtnsMIyY167K-35" value="PAYMENT RESULT" style="text;html=1;strokeColor=none;fillColor=none;align=center;verticalAlign=middle;whiteSpace=wrap;fontColor=#143642;rounded=1;sketch=1;" vertex="1" parent="exRd122ZKtnsMIyY167K-33"><mxGeometry y="3" width="140" height="30" as="geometry"/></mxCell><mxCell id="exRd122ZKtnsMIyY167K-36" value="Ok Button" style="whiteSpace=wrap;html=1;fillColor=#FAE5C7;strokeColor=#0F8B8D;fontColor=#143642;rounded=1;sketch=1;" vertex="1" parent="exRd122ZKtnsMIyY167K-33"><mxGeometry x="20" y="40" width="120" height="40" as="geometry"/></mxCell><mxCell id="exRd122ZKtnsMIyY167K-37" value="" style="endArrow=classic;html=1;startArrow=oval;startFill=1;endSize=6;startSize=20;endFill=1;exitX=1;exitY=0.5;exitDx=0;exitDy=0;entryX=0;entryY=0.5;entryDx=0;entryDy=0;labelBackgroundColor=#DAD2D8;strokeColor=#A8201A;fontColor=#143642;sketch=1;curved=1;" edge="1" parent="exRd122ZKtnsMIyY167K-1" source="exRd122ZKtnsMIyY167K-11" target="exRd122ZKtnsMIyY167K-38"><mxGeometry width="50" height="50" relative="1" as="geometry"><mxPoint x="194" y="940" as="sourcePoint"/><mxPoint x="504" y="830" as="targetPoint"/><Array as="points"/></mxGeometry></mxCell><mxCell id="exRd122ZKtnsMIyY167K-38" value="SelectPackage&lt;br&gt;@BuyPageServlet" style="shape=parallelogram;perimeter=parallelogramPerimeter;whiteSpace=wrap;html=1;fixedSize=1;fillColor=#FAE5C7;strokeColor=#0F8B8D;fontColor=#143642;rounded=1;sketch=1;" vertex="1" parent="exRd122ZKtnsMIyY167K-1"><mxGeometry x="278" y="890" width="136" height="60" as="geometry"/></mxCell><mxCell id="exRd122ZKtnsMIyY167K-39" value="" style="endArrow=classic;html=1;startArrow=oval;startFill=1;endSize=6;startSize=20;endFill=1;exitX=0.5;exitY=1;exitDx=0;exitDy=0;entryX=0.5;entryY=1;entryDx=0;entryDy=0;labelBackgroundColor=#DAD2D8;strokeColor=#A8201A;fontColor=#143642;sketch=1;curved=1;" edge="1" parent="exRd122ZKtnsMIyY167K-1" source="exRd122ZKtnsMIyY167K-38" target="exRd122ZKtnsMIyY167K-8"><mxGeometry width="50" height="50" relative="1" as="geometry"><mxPoint x="194" y="845" as="sourcePoint"/><mxPoint x="294" y="845" as="targetPoint"/><Array as="points"><mxPoint x="346" y="1030"/><mxPoint x="124" y="1030"/></Array></mxGeometry></mxCell><mxCell id="exRd122ZKtnsMIyY167K-40" value="GoToHomePage&lt;br&gt;@&amp;nbsp;GoToHomePage Servlet" style="shape=parallelogram;perimeter=parallelogramPerimeter;whiteSpace=wrap;html=1;fixedSize=1;fillColor=#FAE5C7;strokeColor=#0F8B8D;fontColor=#143642;rounded=1;sketch=1;" vertex="1" parent="exRd122ZKtnsMIyY167K-1"><mxGeometry x="290.5" y="200" width="189" height="60" as="geometry"/></mxCell><mxCell id="exRd122ZKtnsMIyY167K-41" value="" style="endArrow=classic;html=1;startArrow=oval;startFill=1;endSize=6;startSize=20;endFill=1;entryX=0.5;entryY=1;entryDx=0;entryDy=0;exitX=0.5;exitY=0;exitDx=0;exitDy=0;labelBackgroundColor=#DAD2D8;strokeColor=#A8201A;fontColor=#143642;sketch=1;curved=1;" edge="1" parent="exRd122ZKtnsMIyY167K-1" source="exRd122ZKtnsMIyY167K-34" target="exRd122ZKtnsMIyY167K-40"><mxGeometry width="50" height="50" relative="1" as="geometry"><mxPoint x="380" y="290" as="sourcePoint"/><mxPoint x="234" y="412.5" as="targetPoint"/><Array as="points"/></mxGeometry></mxCell><mxCell id="exRd122ZKtnsMIyY167K-42" value="" style="endArrow=classic;html=1;startArrow=oval;startFill=1;endSize=6;startSize=20;endFill=1;entryX=0.5;entryY=0;entryDx=0;entryDy=0;labelBackgroundColor=#DAD2D8;strokeColor=#A8201A;fontColor=#143642;sketch=1;curved=1;" edge="1" parent="exRd122ZKtnsMIyY167K-1" target="exRd122ZKtnsMIyY167K-4"><mxGeometry width="50" height="50" relative="1" as="geometry"><mxPoint x="94" y="250" as="sourcePoint"/><mxPoint x="80" y="320" as="targetPoint"/><Array as="points"/></mxGeometry></mxCell><mxCell id="exRd122ZKtnsMIyY167K-43" value="" style="endArrow=classic;html=1;startArrow=oval;startFill=1;endSize=6;startSize=20;endFill=1;entryX=1;entryY=0.25;entryDx=0;entryDy=0;exitX=0;exitY=0.5;exitDx=0;exitDy=0;labelBackgroundColor=#DAD2D8;strokeColor=#A8201A;fontColor=#143642;sketch=1;curved=1;" edge="1" parent="exRd122ZKtnsMIyY167K-1" source="exRd122ZKtnsMIyY167K-40" target="exRd122ZKtnsMIyY167K-3"><mxGeometry width="50" height="50" relative="1" as="geometry"><mxPoint x="284" y="370" as="sourcePoint"/><mxPoint x="384" y="390" as="targetPoint"/><Array as="points"><mxPoint x="254" y="230"/><mxPoint x="254" y="403"/></Array></mxGeometry></mxCell></root></mxGraphModel></diagram><diagram name="Login/Registration_Pro" id="98PxcenO4P8EmPYA0vkx"><mxGraphModel dx="855" dy="533" grid="1" gridSize="10" guides="1" tooltips="1" connect="1" arrows="1" fold="1" page="1" pageScale="1" pageWidth="827" pageHeight="1169" math="0" shadow="0"><root><mxCell id="UYj_jxrAon8e2cFk9xI4-0"/><mxCell id="UYj_jxrAon8e2cFk9xI4-1" parent="UYj_jxrAon8e2cFk9xI4-0"/><mxCell id="UYj_jxrAon8e2cFk9xI4-2" value="" style="whiteSpace=wrap;html=1;" vertex="1" parent="UYj_jxrAon8e2cFk9xI4-1"><mxGeometry x="30" y="95" width="200" height="290" as="geometry"/></mxCell><mxCell id="UYj_jxrAon8e2cFk9xI4-3" value="RegistrationForm" style="whiteSpace=wrap;html=1;" vertex="1" parent="UYj_jxrAon8e2cFk9xI4-1"><mxGeometry x="60" y="130" width="120" height="60" as="geometry"/></mxCell><mxCell id="UYj_jxrAon8e2cFk9xI4-4" value="LoginForm" style="whiteSpace=wrap;html=1;" vertex="1" parent="UYj_jxrAon8e2cFk9xI4-1"><mxGeometry x="60" y="210" width="120" height="60" as="geometry"/></mxCell><mxCell id="UYj_jxrAon8e2cFk9xI4-5" value="WithoutLoginLink" style="whiteSpace=wrap;html=1;" vertex="1" parent="UYj_jxrAon8e2cFk9xI4-1"><mxGeometry x="60" y="290" width="120" height="60" as="geometry"/></mxCell><mxCell id="UYj_jxrAon8e2cFk9xI4-6" value="LANDING PAGE" style="text;html=1;strokeColor=none;fillColor=none;align=center;verticalAlign=middle;whiteSpace=wrap;" vertex="1" parent="UYj_jxrAon8e2cFk9xI4-1"><mxGeometry x="30" y="95" width="140" height="30" as="geometry"/></mxCell><mxCell id="UYj_jxrAon8e2cFk9xI4-7" value="" style="group;" vertex="1" connectable="0" parent="UYj_jxrAon8e2cFk9xI4-1"><mxGeometry x="610" y="100" width="200" height="290" as="geometry"/></mxCell><mxCell id="UYj_jxrAon8e2cFk9xI4-8" value="" style="whiteSpace=wrap;html=1;" vertex="1" parent="UYj_jxrAon8e2cFk9xI4-7"><mxGeometry width="200" height="290" as="geometry"/></mxCell><mxCell id="UYj_jxrAon8e2cFk9xI4-9" value="HOME PAGE" style="text;html=1;strokeColor=none;fillColor=none;align=center;verticalAlign=middle;whiteSpace=wrap;" vertex="1" parent="UYj_jxrAon8e2cFk9xI4-7"><mxGeometry width="140" height="30" as="geometry"/></mxCell><mxCell id="UYj_jxrAon8e2cFk9xI4-10" value="" style="whiteSpace=wrap;html=1;" vertex="1" parent="UYj_jxrAon8e2cFk9xI4-7"><mxGeometry x="40" y="115" width="120" height="60" as="geometry"/></mxCell><mxCell id="UYj_jxrAon8e2cFk9xI4-11" value="" style="group;" vertex="1" connectable="0" parent="UYj_jxrAon8e2cFk9xI4-1"><mxGeometry x="590" y="505" width="200" height="290" as="geometry"/></mxCell><mxCell id="UYj_jxrAon8e2cFk9xI4-12" value="" style="whiteSpace=wrap;html=1;" vertex="1" parent="UYj_jxrAon8e2cFk9xI4-11"><mxGeometry width="200" height="290" as="geometry"/></mxCell><mxCell id="UYj_jxrAon8e2cFk9xI4-13" value="REGISTRATION PAGE" style="text;html=1;strokeColor=none;fillColor=none;align=center;verticalAlign=middle;whiteSpace=wrap;" vertex="1" parent="UYj_jxrAon8e2cFk9xI4-11"><mxGeometry width="140" height="30" as="geometry"/></mxCell><mxCell id="UYj_jxrAon8e2cFk9xI4-14" value="RegistrationForm" style="whiteSpace=wrap;html=1;" vertex="1" parent="UYj_jxrAon8e2cFk9xI4-11"><mxGeometry x="20" y="120" width="120" height="60" as="geometry"/></mxCell><mxCell id="UYj_jxrAon8e2cFk9xI4-15" value="" style="group;" vertex="1" connectable="0" parent="UYj_jxrAon8e2cFk9xI4-1"><mxGeometry x="20" y="510" width="200" height="290" as="geometry"/></mxCell><mxCell id="UYj_jxrAon8e2cFk9xI4-16" value="" style="whiteSpace=wrap;html=1;" vertex="1" parent="UYj_jxrAon8e2cFk9xI4-15"><mxGeometry width="200" height="290" as="geometry"/></mxCell><mxCell id="UYj_jxrAon8e2cFk9xI4-17" value="LOGIN PAGE" style="text;html=1;strokeColor=none;fillColor=none;align=center;verticalAlign=middle;whiteSpace=wrap;" vertex="1" parent="UYj_jxrAon8e2cFk9xI4-15"><mxGeometry width="140" height="30" as="geometry"/></mxCell><mxCell id="UYj_jxrAon8e2cFk9xI4-18" value="LoginForm" style="whiteSpace=wrap;html=1;" vertex="1" parent="UYj_jxrAon8e2cFk9xI4-15"><mxGeometry x="20" y="40" width="120" height="60" as="geometry"/></mxCell><mxCell id="UYj_jxrAon8e2cFk9xI4-19" value="" style="endArrow=classic;html=1;entryX=0.5;entryY=0;entryDx=0;entryDy=0;" edge="1" parent="UYj_jxrAon8e2cFk9xI4-1" target="UYj_jxrAon8e2cFk9xI4-6"><mxGeometry width="50" height="50" relative="1" as="geometry"><mxPoint x="100" y="10" as="sourcePoint"/><mxPoint x="300" y="390" as="targetPoint"/></mxGeometry></mxCell><mxCell id="UYj_jxrAon8e2cFk9xI4-20" value="" style="endArrow=classic;html=1;startArrow=oval;startFill=1;endSize=6;startSize=20;endFill=1;exitX=1;exitY=0.5;exitDx=0;exitDy=0;entryX=0;entryY=0.5;entryDx=0;entryDy=0;" edge="1" parent="UYj_jxrAon8e2cFk9xI4-1" source="UYj_jxrAon8e2cFk9xI4-3" target="UYj_jxrAon8e2cFk9xI4-25"><mxGeometry width="50" height="50" relative="1" as="geometry"><mxPoint x="340" y="290" as="sourcePoint"/><mxPoint x="360" y="160" as="targetPoint"/></mxGeometry></mxCell><mxCell id="UYj_jxrAon8e2cFk9xI4-21" value="" style="endArrow=classic;html=1;startArrow=oval;startFill=1;endSize=6;startSize=20;endFill=1;exitX=1;exitY=0.5;exitDx=0;exitDy=0;entryX=0;entryY=0.5;entryDx=0;entryDy=0;" edge="1" parent="UYj_jxrAon8e2cFk9xI4-1" source="UYj_jxrAon8e2cFk9xI4-4" target="UYj_jxrAon8e2cFk9xI4-26"><mxGeometry width="50" height="50" relative="1" as="geometry"><mxPoint x="260" y="250" as="sourcePoint"/><mxPoint x="350" y="240" as="targetPoint"/></mxGeometry></mxCell><mxCell id="UYj_jxrAon8e2cFk9xI4-22" value="" style="endArrow=classic;html=1;startArrow=oval;startFill=1;endSize=6;startSize=20;endFill=1;exitX=1;exitY=0.5;exitDx=0;exitDy=0;entryX=0;entryY=0.5;entryDx=0;entryDy=0;" edge="1" parent="UYj_jxrAon8e2cFk9xI4-1" source="UYj_jxrAon8e2cFk9xI4-5" target="UYj_jxrAon8e2cFk9xI4-23"><mxGeometry width="50" height="50" relative="1" as="geometry"><mxPoint x="200" y="180" as="sourcePoint"/><mxPoint x="380" y="180" as="targetPoint"/></mxGeometry></mxCell><mxCell id="UYj_jxrAon8e2cFk9xI4-23" value="HomePage&lt;br&gt;@GoToHomePageServlet" style="shape=parallelogram;perimeter=parallelogramPerimeter;whiteSpace=wrap;html=1;fixedSize=1;" vertex="1" parent="UYj_jxrAon8e2cFk9xI4-1"><mxGeometry x="390" y="290" width="180" height="60" as="geometry"/></mxCell><mxCell id="UYj_jxrAon8e2cFk9xI4-24" value="" style="endArrow=classic;html=1;startArrow=oval;startFill=1;endSize=6;startSize=20;endFill=1;exitX=1;exitY=0.5;exitDx=0;exitDy=0;entryX=0;entryY=0.75;entryDx=0;entryDy=0;" edge="1" parent="UYj_jxrAon8e2cFk9xI4-1" source="UYj_jxrAon8e2cFk9xI4-23" target="UYj_jxrAon8e2cFk9xI4-8"><mxGeometry width="50" height="50" relative="1" as="geometry"><mxPoint x="390" y="410" as="sourcePoint"/><mxPoint x="500" y="410" as="targetPoint"/></mxGeometry></mxCell><mxCell id="UYj_jxrAon8e2cFk9xI4-25" value="register&lt;br&gt;@CredentialServlet" style="shape=parallelogram;perimeter=parallelogramPerimeter;whiteSpace=wrap;html=1;fixedSize=1;" vertex="1" parent="UYj_jxrAon8e2cFk9xI4-1"><mxGeometry x="360" y="130" width="140" height="60" as="geometry"/></mxCell><mxCell id="UYj_jxrAon8e2cFk9xI4-26" value="login&lt;br&gt;@LoginServlet" style="shape=parallelogram;perimeter=parallelogramPerimeter;whiteSpace=wrap;html=1;fixedSize=1;" vertex="1" parent="UYj_jxrAon8e2cFk9xI4-1"><mxGeometry x="280" y="210" width="116" height="60" as="geometry"/></mxCell><mxCell id="UYj_jxrAon8e2cFk9xI4-27" value="" style="endArrow=classic;html=1;startArrow=oval;startFill=1;endSize=6;startSize=20;endFill=1;exitX=1;exitY=0.5;exitDx=0;exitDy=0;entryX=0.5;entryY=0;entryDx=0;entryDy=0;" edge="1" parent="UYj_jxrAon8e2cFk9xI4-1" source="UYj_jxrAon8e2cFk9xI4-26" target="UYj_jxrAon8e2cFk9xI4-23"><mxGeometry width="50" height="50" relative="1" as="geometry"><mxPoint x="560" y="330" as="sourcePoint"/><mxPoint x="470" y="288" as="targetPoint"/><Array as="points"><mxPoint x="480" y="240"/></Array></mxGeometry></mxCell><mxCell id="UYj_jxrAon8e2cFk9xI4-28" value="OK" style="edgeLabel;html=1;align=center;verticalAlign=middle;resizable=0;points=[];" vertex="1" connectable="0" parent="UYj_jxrAon8e2cFk9xI4-27"><mxGeometry x="0.0673" y="2" relative="1" as="geometry"><mxPoint as="offset"/></mxGeometry></mxCell><mxCell id="UYj_jxrAon8e2cFk9xI4-29" value="" style="endArrow=classic;html=1;startArrow=oval;startFill=1;endSize=6;startSize=20;endFill=1;exitX=1;exitY=0.5;exitDx=0;exitDy=0;entryX=0.75;entryY=0;entryDx=0;entryDy=0;" edge="1" parent="UYj_jxrAon8e2cFk9xI4-1" source="UYj_jxrAon8e2cFk9xI4-25" target="UYj_jxrAon8e2cFk9xI4-2"><mxGeometry width="50" height="50" relative="1" as="geometry"><mxPoint x="190.00000000000023" y="170" as="sourcePoint"/><mxPoint x="379.9999999999998" y="170" as="targetPoint"/><Array as="points"><mxPoint x="540" y="160"/><mxPoint x="540" y="40"/><mxPoint x="180" y="40"/></Array></mxGeometry></mxCell><mxCell id="UYj_jxrAon8e2cFk9xI4-30" value="" style="endArrow=classic;html=1;startArrow=oval;startFill=1;endSize=6;startSize=20;endFill=1;exitX=0.25;exitY=1;exitDx=0;exitDy=0;entryX=0.75;entryY=0;entryDx=0;entryDy=0;" edge="1" parent="UYj_jxrAon8e2cFk9xI4-1" source="UYj_jxrAon8e2cFk9xI4-10" target="UYj_jxrAon8e2cFk9xI4-16"><mxGeometry width="50" height="50" relative="1" as="geometry"><mxPoint x="560" y="330" as="sourcePoint"/><mxPoint x="660" y="327.5" as="targetPoint"/><Array as="points"><mxPoint x="680" y="450"/><mxPoint x="170" y="450"/></Array></mxGeometry></mxCell><mxCell id="UYj_jxrAon8e2cFk9xI4-31" value="" style="endArrow=classic;html=1;startArrow=oval;startFill=1;endSize=6;startSize=20;endFill=1;exitX=0.75;exitY=1;exitDx=0;exitDy=0;entryX=0.75;entryY=0;entryDx=0;entryDy=0;" edge="1" parent="UYj_jxrAon8e2cFk9xI4-1" source="UYj_jxrAon8e2cFk9xI4-10" target="UYj_jxrAon8e2cFk9xI4-12"><mxGeometry width="50" height="50" relative="1" as="geometry"><mxPoint x="570" y="340" as="sourcePoint"/><mxPoint x="740" y="510" as="targetPoint"/></mxGeometry></mxCell><mxCell id="UYj_jxrAon8e2cFk9xI4-32" value="register&lt;br&gt;@CredentialServlet" style="shape=parallelogram;perimeter=parallelogramPerimeter;whiteSpace=wrap;html=1;fixedSize=1;" vertex="1" parent="UYj_jxrAon8e2cFk9xI4-1"><mxGeometry x="350" y="625" width="150" height="60" as="geometry"/></mxCell><mxCell id="UYj_jxrAon8e2cFk9xI4-33" value="" style="endArrow=classic;html=1;startArrow=oval;startFill=1;endSize=6;startSize=20;endFill=1;exitX=0;exitY=0.5;exitDx=0;exitDy=0;entryX=1;entryY=0.5;entryDx=0;entryDy=0;" edge="1" parent="UYj_jxrAon8e2cFk9xI4-1" source="UYj_jxrAon8e2cFk9xI4-14" target="UYj_jxrAon8e2cFk9xI4-32"><mxGeometry width="50" height="50" relative="1" as="geometry"><mxPoint x="190" y="170" as="sourcePoint"/><mxPoint x="380" y="170" as="targetPoint"/></mxGeometry></mxCell><mxCell id="UYj_jxrAon8e2cFk9xI4-34" value="" style="endArrow=classic;html=1;startArrow=oval;startFill=1;endSize=6;startSize=20;endFill=1;exitX=0;exitY=0.5;exitDx=0;exitDy=0;entryX=1;entryY=0.5;entryDx=0;entryDy=0;" edge="1" parent="UYj_jxrAon8e2cFk9xI4-1" source="UYj_jxrAon8e2cFk9xI4-32" target="UYj_jxrAon8e2cFk9xI4-16"><mxGeometry width="50" height="50" relative="1" as="geometry"><mxPoint x="620" y="600" as="sourcePoint"/><mxPoint x="500" y="600" as="targetPoint"/></mxGeometry></mxCell><mxCell id="UYj_jxrAon8e2cFk9xI4-35" value="OK" style="edgeLabel;html=1;align=center;verticalAlign=middle;resizable=0;points=[];" vertex="1" connectable="0" parent="UYj_jxrAon8e2cFk9xI4-34"><mxGeometry x="-0.1" y="-4" relative="1" as="geometry"><mxPoint as="offset"/></mxGeometry></mxCell><mxCell id="UYj_jxrAon8e2cFk9xI4-36" value="" style="endArrow=classic;html=1;startArrow=oval;startFill=1;endSize=6;startSize=20;endFill=1;exitX=1;exitY=0.5;exitDx=0;exitDy=0;entryX=0;entryY=0.5;entryDx=0;entryDy=0;" edge="1" parent="UYj_jxrAon8e2cFk9xI4-1" source="UYj_jxrAon8e2cFk9xI4-18" target="UYj_jxrAon8e2cFk9xI4-37"><mxGeometry width="50" height="50" relative="1" as="geometry"><mxPoint x="277" y="500" as="sourcePoint"/><mxPoint x="447" y="500" as="targetPoint"/></mxGeometry></mxCell><mxCell id="UYj_jxrAon8e2cFk9xI4-37" value="login&lt;br&gt;@LoginServlet" style="shape=parallelogram;perimeter=parallelogramPerimeter;whiteSpace=wrap;html=1;fixedSize=1;" vertex="1" parent="UYj_jxrAon8e2cFk9xI4-1"><mxGeometry x="280" y="550" width="116" height="60" as="geometry"/></mxCell><mxCell id="UYj_jxrAon8e2cFk9xI4-38" value="" style="endArrow=classic;html=1;startArrow=oval;startFill=1;endSize=6;startSize=20;endFill=1;exitX=1;exitY=0.5;exitDx=0;exitDy=0;entryX=0.5;entryY=1;entryDx=0;entryDy=0;" edge="1" parent="UYj_jxrAon8e2cFk9xI4-1" source="UYj_jxrAon8e2cFk9xI4-37" target="UYj_jxrAon8e2cFk9xI4-23"><mxGeometry width="50" height="50" relative="1" as="geometry"><mxPoint x="657" y="590" as="sourcePoint"/><mxPoint x="550.8461538461538" y="568.4615384615386" as="targetPoint"/><Array as="points"><mxPoint x="480" y="580"/></Array></mxGeometry></mxCell><mxCell id="UYj_jxrAon8e2cFk9xI4-39" value="" style="endArrow=classic;html=1;startArrow=oval;startFill=1;endSize=6;startSize=20;endFill=1;exitX=0.5;exitY=0;exitDx=0;exitDy=0;entryX=1;entryY=0.25;entryDx=0;entryDy=0;fontStyle=1;" edge="1" parent="UYj_jxrAon8e2cFk9xI4-1" source="UYj_jxrAon8e2cFk9xI4-26" target="UYj_jxrAon8e2cFk9xI4-4"><mxGeometry width="50" height="50" relative="1" as="geometry"><mxPoint x="396" y="250" as="sourcePoint"/><mxPoint x="463.84615384615404" y="318.46153846153857" as="targetPoint"/><Array as="points"><mxPoint x="338" y="190"/><mxPoint x="260" y="190"/><mxPoint x="260" y="225"/></Array></mxGeometry></mxCell><mxCell id="UYj_jxrAon8e2cFk9xI4-40" value="Error" style="edgeLabel;html=1;align=center;verticalAlign=middle;resizable=0;points=[];" vertex="1" connectable="0" parent="UYj_jxrAon8e2cFk9xI4-39"><mxGeometry x="-0.252" y="1" relative="1" as="geometry"><mxPoint as="offset"/></mxGeometry></mxCell><mxCell id="UYj_jxrAon8e2cFk9xI4-41" value="" style="endArrow=classic;html=1;startArrow=oval;startFill=1;endSize=6;startSize=20;endFill=1;exitX=0.5;exitY=0;exitDx=0;exitDy=0;entryX=1;entryY=0.25;entryDx=0;entryDy=0;fontStyle=1;" edge="1" parent="UYj_jxrAon8e2cFk9xI4-1" source="UYj_jxrAon8e2cFk9xI4-37" target="UYj_jxrAon8e2cFk9xI4-18"><mxGeometry width="50" height="50" relative="1" as="geometry"><mxPoint x="350" y="520" as="sourcePoint"/><mxPoint x="192" y="535" as="targetPoint"/><Array as="points"><mxPoint x="338" y="510"/><mxPoint x="272" y="510"/><mxPoint x="272" y="565"/></Array></mxGeometry></mxCell><mxCell id="UYj_jxrAon8e2cFk9xI4-42" value="Error" style="edgeLabel;html=1;align=center;verticalAlign=middle;resizable=0;points=[];" vertex="1" connectable="0" parent="UYj_jxrAon8e2cFk9xI4-41"><mxGeometry x="-0.252" y="1" relative="1" as="geometry"><mxPoint as="offset"/></mxGeometry></mxCell><mxCell id="UYj_jxrAon8e2cFk9xI4-43" value="" style="endArrow=classic;html=1;startArrow=oval;startFill=1;endSize=6;startSize=20;endFill=1;exitX=0.5;exitY=1;exitDx=0;exitDy=0;entryX=0;entryY=0.75;entryDx=0;entryDy=0;" edge="1" parent="UYj_jxrAon8e2cFk9xI4-1" source="UYj_jxrAon8e2cFk9xI4-32" target="UYj_jxrAon8e2cFk9xI4-12"><mxGeometry width="50" height="50" relative="1" as="geometry"><mxPoint x="370" y="665" as="sourcePoint"/><mxPoint x="230" y="665" as="targetPoint"/><Array as="points"><mxPoint x="425" y="723"/></Array></mxGeometry></mxCell><mxCell id="UYj_jxrAon8e2cFk9xI4-44" value="Error" style="edgeLabel;html=1;align=center;verticalAlign=middle;resizable=0;points=[];" vertex="1" connectable="0" parent="UYj_jxrAon8e2cFk9xI4-43"><mxGeometry x="0.1542" y="2" relative="1" as="geometry"><mxPoint as="offset"/></mxGeometry></mxCell></root></mxGraphModel></diagram><diagram name="Purchase_Pro" id="ZcZLyiaxhOu6sEDFLL4T"><mxGraphModel dx="2057" dy="1870" grid="1" gridSize="10" guides="1" tooltips="1" connect="1" arrows="1" fold="1" page="1" pageScale="1" pageWidth="827" pageHeight="1169" math="0" shadow="0"><root><mxCell id="WFuqvylF7UFfPEK8mzbb-0"/><mxCell id="WFuqvylF7UFfPEK8mzbb-1" parent="WFuqvylF7UFfPEK8mzbb-0"/><mxCell id="WFuqvylF7UFfPEK8mzbb-2" value="" style="group;fontStyle=1" vertex="1" connectable="0" parent="WFuqvylF7UFfPEK8mzbb-1"><mxGeometry x="24" y="330" width="200" height="290" as="geometry"/></mxCell><mxCell id="WFuqvylF7UFfPEK8mzbb-3" value="" style="whiteSpace=wrap;html=1;" vertex="1" parent="WFuqvylF7UFfPEK8mzbb-2"><mxGeometry width="200" height="290" as="geometry"/></mxCell><mxCell id="WFuqvylF7UFfPEK8mzbb-4" value="HOME PAGE" style="text;html=1;strokeColor=none;fillColor=none;align=center;verticalAlign=middle;whiteSpace=wrap;" vertex="1" parent="WFuqvylF7UFfPEK8mzbb-2"><mxGeometry x="10" y="10" width="140" height="30" as="geometry"/></mxCell><mxCell id="WFuqvylF7UFfPEK8mzbb-5" value="BuyServiceLink" style="whiteSpace=wrap;html=1;" vertex="1" parent="WFuqvylF7UFfPEK8mzbb-2"><mxGeometry x="30" y="190" width="120" height="60" as="geometry"/></mxCell><mxCell id="WFuqvylF7UFfPEK8mzbb-6" value="PayInsolvent" style="whiteSpace=wrap;html=1;" vertex="1" parent="WFuqvylF7UFfPEK8mzbb-2"><mxGeometry x="30" y="100" width="120" height="60" as="geometry"/></mxCell><mxCell id="WFuqvylF7UFfPEK8mzbb-7" value="" style="group;" vertex="1" connectable="0" parent="WFuqvylF7UFfPEK8mzbb-1"><mxGeometry x="24" y="690" width="200" height="290" as="geometry"/></mxCell><mxCell id="WFuqvylF7UFfPEK8mzbb-8" value="" style="whiteSpace=wrap;html=1;" vertex="1" parent="WFuqvylF7UFfPEK8mzbb-7"><mxGeometry width="200" height="290" as="geometry"/></mxCell><mxCell id="WFuqvylF7UFfPEK8mzbb-9" value="BUY SERVICE PAGE" style="text;html=1;strokeColor=none;fillColor=none;align=center;verticalAlign=middle;whiteSpace=wrap;" vertex="1" parent="WFuqvylF7UFfPEK8mzbb-7"><mxGeometry x="10" y="10" width="140" height="30" as="geometry"/></mxCell><mxCell id="WFuqvylF7UFfPEK8mzbb-10" value="BuyForm" style="whiteSpace=wrap;html=1;" vertex="1" parent="WFuqvylF7UFfPEK8mzbb-7"><mxGeometry x="40" y="115" width="120" height="60" as="geometry"/></mxCell><mxCell id="WFuqvylF7UFfPEK8mzbb-49" value="ChooseProduct" style="whiteSpace=wrap;html=1;" vertex="1" parent="WFuqvylF7UFfPEK8mzbb-7"><mxGeometry x="40" y="200" width="120" height="60" as="geometry"/></mxCell><mxCell id="WFuqvylF7UFfPEK8mzbb-11" value="" style="group;" vertex="1" connectable="0" parent="WFuqvylF7UFfPEK8mzbb-1"><mxGeometry x="604" y="330" width="200" height="290" as="geometry"/></mxCell><mxCell id="WFuqvylF7UFfPEK8mzbb-12" value="" style="whiteSpace=wrap;html=1;" vertex="1" parent="WFuqvylF7UFfPEK8mzbb-11"><mxGeometry width="200" height="290" as="geometry"/></mxCell><mxCell id="WFuqvylF7UFfPEK8mzbb-13" value="CONFIRMATION PAGE" style="text;html=1;strokeColor=none;fillColor=none;align=center;verticalAlign=middle;whiteSpace=wrap;" vertex="1" parent="WFuqvylF7UFfPEK8mzbb-11"><mxGeometry width="140" height="30" as="geometry"/></mxCell><mxCell id="WFuqvylF7UFfPEK8mzbb-14" value="Login/Registration" style="whiteSpace=wrap;html=1;" vertex="1" parent="WFuqvylF7UFfPEK8mzbb-11"><mxGeometry x="40" y="190" width="120" height="60" as="geometry"/></mxCell><mxCell id="WFuqvylF7UFfPEK8mzbb-15" value="BuyButton" style="whiteSpace=wrap;html=1;" vertex="1" parent="WFuqvylF7UFfPEK8mzbb-11"><mxGeometry x="40" y="70" width="120" height="60" as="geometry"/></mxCell><mxCell id="WFuqvylF7UFfPEK8mzbb-16" value="" style="endArrow=classic;html=1;startArrow=oval;startFill=1;endSize=6;startSize=20;endFill=1;exitX=1;exitY=0.5;exitDx=0;exitDy=0;entryX=1;entryY=0.25;entryDx=0;entryDy=0;" edge="1" parent="WFuqvylF7UFfPEK8mzbb-1" source="WFuqvylF7UFfPEK8mzbb-5" target="WFuqvylF7UFfPEK8mzbb-8"><mxGeometry width="50" height="50" relative="1" as="geometry"><mxPoint x="370" y="530" as="sourcePoint"/><mxPoint x="304" y="620" as="targetPoint"/><Array as="points"><mxPoint x="270" y="550"/><mxPoint x="270" y="763"/></Array></mxGeometry></mxCell><mxCell id="WFuqvylF7UFfPEK8mzbb-17" value="" style="endArrow=classic;html=1;startArrow=oval;startFill=1;endSize=6;startSize=20;endFill=1;exitX=1;exitY=0.5;exitDx=0;exitDy=0;entryX=0.5;entryY=1;entryDx=0;entryDy=0;" edge="1" parent="WFuqvylF7UFfPEK8mzbb-1" source="WFuqvylF7UFfPEK8mzbb-10" target="WFuqvylF7UFfPEK8mzbb-18"><mxGeometry width="50" height="50" relative="1" as="geometry"><mxPoint x="184" y="420" as="sourcePoint"/><mxPoint x="484" y="773" as="targetPoint"/><Array as="points"><mxPoint x="494" y="835"/></Array></mxGeometry></mxCell><mxCell id="WFuqvylF7UFfPEK8mzbb-18" value="CheckForm&lt;br&gt;@BuyPageServlet" style="shape=parallelogram;perimeter=parallelogramPerimeter;whiteSpace=wrap;html=1;fixedSize=1;" vertex="1" parent="WFuqvylF7UFfPEK8mzbb-1"><mxGeometry x="419" y="760" width="150" height="60" as="geometry"/></mxCell><mxCell id="WFuqvylF7UFfPEK8mzbb-19" value="" style="endArrow=classic;html=1;startArrow=oval;startFill=1;endSize=6;startSize=20;endFill=1;exitX=0.5;exitY=0;exitDx=0;exitDy=0;entryX=0.5;entryY=1;entryDx=0;entryDy=0;" edge="1" parent="WFuqvylF7UFfPEK8mzbb-1" source="WFuqvylF7UFfPEK8mzbb-18" target="WFuqvylF7UFfPEK8mzbb-26"><mxGeometry width="50" height="50" relative="1" as="geometry"><mxPoint x="194" y="845" as="sourcePoint"/><mxPoint x="494" y="570" as="targetPoint"/><Array as="points"/></mxGeometry></mxCell><mxCell id="WFuqvylF7UFfPEK8mzbb-20" value="OK" style="edgeLabel;html=1;align=center;verticalAlign=middle;resizable=0;points=[];" vertex="1" connectable="0" parent="WFuqvylF7UFfPEK8mzbb-19"><mxGeometry x="-0.3444" y="-5" relative="1" as="geometry"><mxPoint as="offset"/></mxGeometry></mxCell><mxCell id="WFuqvylF7UFfPEK8mzbb-21" value="" style="endArrow=classic;html=1;startArrow=oval;startFill=1;endSize=6;startSize=20;endFill=1;exitX=0;exitY=0.5;exitDx=0;exitDy=0;entryX=1.005;entryY=0.355;entryDx=0;entryDy=0;entryPerimeter=0;" edge="1" parent="WFuqvylF7UFfPEK8mzbb-1" source="WFuqvylF7UFfPEK8mzbb-18" target="WFuqvylF7UFfPEK8mzbb-8"><mxGeometry width="50" height="50" relative="1" as="geometry"><mxPoint x="194" y="900" as="sourcePoint"/><mxPoint x="504" y="830" as="targetPoint"/><Array as="points"/></mxGeometry></mxCell><mxCell id="WFuqvylF7UFfPEK8mzbb-22" value="Error" style="edgeLabel;html=1;align=center;verticalAlign=middle;resizable=0;points=[];" vertex="1" connectable="0" parent="WFuqvylF7UFfPEK8mzbb-21"><mxGeometry x="-0.3518" y="-2" relative="1" as="geometry"><mxPoint as="offset"/></mxGeometry></mxCell><mxCell id="WFuqvylF7UFfPEK8mzbb-23" value="" style="endArrow=classic;html=1;startArrow=oval;startFill=1;endSize=6;startSize=20;endFill=1;exitX=0.5;exitY=1;exitDx=0;exitDy=0;entryX=0.5;entryY=0;entryDx=0;entryDy=0;" edge="1" parent="WFuqvylF7UFfPEK8mzbb-1" source="WFuqvylF7UFfPEK8mzbb-14" target="WFuqvylF7UFfPEK8mzbb-24"><mxGeometry width="50" height="50" relative="1" as="geometry"><mxPoint x="454" y="800" as="sourcePoint"/><mxPoint x="684" y="700" as="targetPoint"/><Array as="points"/></mxGeometry></mxCell><mxCell id="WFuqvylF7UFfPEK8mzbb-24" value="Login/Registration" style="whiteSpace=wrap;html=1;dashed=1;" vertex="1" parent="WFuqvylF7UFfPEK8mzbb-1"><mxGeometry x="644" y="700" width="120" height="60" as="geometry"/></mxCell><mxCell id="WFuqvylF7UFfPEK8mzbb-25" value="" style="endArrow=classic;html=1;startArrow=oval;startFill=1;endSize=6;startSize=20;endFill=1;exitX=0.75;exitY=0;exitDx=0;exitDy=0;entryX=0.75;entryY=1;entryDx=0;entryDy=0;" edge="1" parent="WFuqvylF7UFfPEK8mzbb-1" source="WFuqvylF7UFfPEK8mzbb-24" target="WFuqvylF7UFfPEK8mzbb-12"><mxGeometry width="50" height="50" relative="1" as="geometry"><mxPoint x="694" y="590" as="sourcePoint"/><mxPoint x="694" y="710" as="targetPoint"/><Array as="points"><mxPoint x="734" y="660"/><mxPoint x="754" y="660"/></Array></mxGeometry></mxCell><mxCell id="WFuqvylF7UFfPEK8mzbb-26" value="PrepareDetails&lt;br&gt;@ConfirmationPageServlet" style="shape=parallelogram;perimeter=parallelogramPerimeter;whiteSpace=wrap;html=1;fixedSize=1;" vertex="1" parent="WFuqvylF7UFfPEK8mzbb-1"><mxGeometry x="406" y="620" width="176" height="60" as="geometry"/></mxCell><mxCell id="WFuqvylF7UFfPEK8mzbb-27" value="" style="endArrow=classic;html=1;startArrow=oval;startFill=1;endSize=6;startSize=20;endFill=1;exitX=0.5;exitY=0;exitDx=0;exitDy=0;entryX=0;entryY=0.75;entryDx=0;entryDy=0;" edge="1" parent="WFuqvylF7UFfPEK8mzbb-1" source="WFuqvylF7UFfPEK8mzbb-26" target="WFuqvylF7UFfPEK8mzbb-12"><mxGeometry width="50" height="50" relative="1" as="geometry"><mxPoint x="504" y="770" as="sourcePoint"/><mxPoint x="494" y="540" as="targetPoint"/><Array as="points"><mxPoint x="494" y="548"/></Array></mxGeometry></mxCell><mxCell id="WFuqvylF7UFfPEK8mzbb-28" value="ExternalPayment&lt;br&gt;@PaymentServelt" style="whiteSpace=wrap;html=1;dashed=1;" vertex="1" parent="WFuqvylF7UFfPEK8mzbb-1"><mxGeometry x="434" y="445" width="120" height="60" as="geometry"/></mxCell><mxCell id="WFuqvylF7UFfPEK8mzbb-29" value="" style="endArrow=classic;html=1;startArrow=oval;startFill=1;endSize=6;startSize=20;endFill=1;exitX=0;exitY=0.5;exitDx=0;exitDy=0;entryX=1;entryY=0.5;entryDx=0;entryDy=0;" edge="1" parent="WFuqvylF7UFfPEK8mzbb-1" source="WFuqvylF7UFfPEK8mzbb-15" target="WFuqvylF7UFfPEK8mzbb-28"><mxGeometry width="50" height="50" relative="1" as="geometry"><mxPoint x="694" y="590" as="sourcePoint"/><mxPoint x="694" y="710" as="targetPoint"/><Array as="points"><mxPoint x="594" y="430"/><mxPoint x="594" y="475"/></Array></mxGeometry></mxCell><mxCell id="WFuqvylF7UFfPEK8mzbb-30" value="" style="endArrow=classic;html=1;startArrow=oval;startFill=1;endSize=6;startSize=20;endFill=1;exitX=0.5;exitY=0;exitDx=0;exitDy=0;entryX=1;entryY=0.5;entryDx=0;entryDy=0;" edge="1" parent="WFuqvylF7UFfPEK8mzbb-1" source="WFuqvylF7UFfPEK8mzbb-28" target="WFuqvylF7UFfPEK8mzbb-42"><mxGeometry width="50" height="50" relative="1" as="geometry"><mxPoint x="634" y="440" as="sourcePoint"/><mxPoint x="369" y="380" as="targetPoint"/><Array as="points"><mxPoint x="494" y="360"/></Array></mxGeometry></mxCell><mxCell id="WFuqvylF7UFfPEK8mzbb-31" value="" style="endArrow=classic;html=1;startArrow=oval;startFill=1;endSize=6;startSize=20;endFill=1;exitX=1;exitY=0.5;exitDx=0;exitDy=0;entryX=0;entryY=0.5;entryDx=0;entryDy=0;" edge="1" parent="WFuqvylF7UFfPEK8mzbb-1" source="WFuqvylF7UFfPEK8mzbb-6" target="WFuqvylF7UFfPEK8mzbb-26"><mxGeometry width="50" height="50" relative="1" as="geometry"><mxPoint x="184" y="560" as="sourcePoint"/><mxPoint x="234" y="772.5" as="targetPoint"/><Array as="points"><mxPoint x="320" y="460"/><mxPoint x="320" y="650"/></Array></mxGeometry></mxCell><mxCell id="WFuqvylF7UFfPEK8mzbb-48" value="" style="group" vertex="1" connectable="0" parent="WFuqvylF7UFfPEK8mzbb-1"><mxGeometry x="300" y="310" width="170" height="100" as="geometry"/></mxCell><mxCell id="WFuqvylF7UFfPEK8mzbb-42" value="" style="whiteSpace=wrap;html=1;" vertex="1" parent="WFuqvylF7UFfPEK8mzbb-48"><mxGeometry width="170" height="100" as="geometry"/></mxCell><mxCell id="WFuqvylF7UFfPEK8mzbb-43" value="PAYMENT RESULT" style="text;html=1;strokeColor=none;fillColor=none;align=center;verticalAlign=middle;whiteSpace=wrap;" vertex="1" parent="WFuqvylF7UFfPEK8mzbb-48"><mxGeometry y="3" width="140" height="30" as="geometry"/></mxCell><mxCell id="WFuqvylF7UFfPEK8mzbb-45" value="Ok Button" style="whiteSpace=wrap;html=1;" vertex="1" parent="WFuqvylF7UFfPEK8mzbb-48"><mxGeometry x="20" y="40" width="120" height="40" as="geometry"/></mxCell><mxCell id="WFuqvylF7UFfPEK8mzbb-50" value="" style="endArrow=classic;html=1;startArrow=oval;startFill=1;endSize=6;startSize=20;endFill=1;exitX=1;exitY=0.5;exitDx=0;exitDy=0;entryX=0;entryY=0.5;entryDx=0;entryDy=0;" edge="1" parent="WFuqvylF7UFfPEK8mzbb-1" source="WFuqvylF7UFfPEK8mzbb-49" target="WFuqvylF7UFfPEK8mzbb-51"><mxGeometry width="50" height="50" relative="1" as="geometry"><mxPoint x="194" y="940" as="sourcePoint"/><mxPoint x="504" y="830" as="targetPoint"/><Array as="points"/></mxGeometry></mxCell><mxCell id="WFuqvylF7UFfPEK8mzbb-51" value="SelectPackage&lt;br&gt;@BuyPageServlet" style="shape=parallelogram;perimeter=parallelogramPerimeter;whiteSpace=wrap;html=1;fixedSize=1;" vertex="1" parent="WFuqvylF7UFfPEK8mzbb-1"><mxGeometry x="278" y="890" width="136" height="60" as="geometry"/></mxCell><mxCell id="WFuqvylF7UFfPEK8mzbb-52" value="" style="endArrow=classic;html=1;startArrow=oval;startFill=1;endSize=6;startSize=20;endFill=1;exitX=0.5;exitY=1;exitDx=0;exitDy=0;entryX=0.5;entryY=1;entryDx=0;entryDy=0;" edge="1" parent="WFuqvylF7UFfPEK8mzbb-1" source="WFuqvylF7UFfPEK8mzbb-51" target="WFuqvylF7UFfPEK8mzbb-8"><mxGeometry width="50" height="50" relative="1" as="geometry"><mxPoint x="194" y="845" as="sourcePoint"/><mxPoint x="294" y="845" as="targetPoint"/><Array as="points"><mxPoint x="346" y="1030"/><mxPoint x="124" y="1030"/></Array></mxGeometry></mxCell><mxCell id="WFuqvylF7UFfPEK8mzbb-53" value="GoToHomePage&lt;br&gt;@&amp;nbsp;GoToHomePage Servlet" style="shape=parallelogram;perimeter=parallelogramPerimeter;whiteSpace=wrap;html=1;fixedSize=1;" vertex="1" parent="WFuqvylF7UFfPEK8mzbb-1"><mxGeometry x="290.5" y="200" width="199.5" height="60" as="geometry"/></mxCell><mxCell id="WFuqvylF7UFfPEK8mzbb-54" value="" style="endArrow=classic;html=1;startArrow=oval;startFill=1;endSize=6;startSize=20;endFill=1;entryX=0.75;entryY=1;entryDx=0;entryDy=0;exitX=1;exitY=0;exitDx=0;exitDy=0;" edge="1" parent="WFuqvylF7UFfPEK8mzbb-1" source="WFuqvylF7UFfPEK8mzbb-45" target="WFuqvylF7UFfPEK8mzbb-53"><mxGeometry width="50" height="50" relative="1" as="geometry"><mxPoint x="380" y="290" as="sourcePoint"/><mxPoint x="234" y="412.5" as="targetPoint"/><Array as="points"/></mxGeometry></mxCell><mxCell id="WFuqvylF7UFfPEK8mzbb-55" value="" style="endArrow=classic;html=1;startArrow=oval;startFill=1;endSize=6;startSize=20;endFill=1;entryX=0.25;entryY=0;entryDx=0;entryDy=0;" edge="1" parent="WFuqvylF7UFfPEK8mzbb-1" target="WFuqvylF7UFfPEK8mzbb-3"><mxGeometry width="50" height="50" relative="1" as="geometry"><mxPoint x="74" y="290" as="sourcePoint"/><mxPoint x="80" y="320" as="targetPoint"/><Array as="points"/></mxGeometry></mxCell><mxCell id="WFuqvylF7UFfPEK8mzbb-39" value="" style="endArrow=classic;html=1;startArrow=oval;startFill=1;endSize=6;startSize=20;endFill=1;entryX=1;entryY=0.25;entryDx=0;entryDy=0;exitX=0;exitY=0.5;exitDx=0;exitDy=0;" edge="1" parent="WFuqvylF7UFfPEK8mzbb-1" source="WFuqvylF7UFfPEK8mzbb-53" target="WFuqvylF7UFfPEK8mzbb-3"><mxGeometry width="50" height="50" relative="1" as="geometry"><mxPoint x="284" y="370" as="sourcePoint"/><mxPoint x="384" y="390" as="targetPoint"/><Array as="points"><mxPoint x="254" y="230"/><mxPoint x="254" y="380"/><mxPoint x="254" y="403"/></Array></mxGeometry></mxCell></root></mxGraphModel></diagram><diagram name="Employee" id="gDj_BLMC1CMMeQ6xyLJD"><mxGraphModel dx="4113" dy="3740" grid="1" gridSize="10" guides="1" tooltips="1" connect="1" arrows="1" fold="1" page="1" pageScale="1" pageWidth="827" pageHeight="1169" background="#DAD2D8" math="0" shadow="0"><root><mxCell id="kqftr6UnWCpk102pX667-0"/><mxCell id="kqftr6UnWCpk102pX667-1" parent="kqftr6UnWCpk102pX667-0"/><mxCell id="kqftr6UnWCpk102pX667-2" value="" style="group;fontStyle=1;fontColor=#143642;rounded=1;sketch=1;" vertex="1" connectable="0" parent="kqftr6UnWCpk102pX667-1"><mxGeometry x="24" y="330" width="200" height="430" as="geometry"/></mxCell><mxCell id="kqftr6UnWCpk102pX667-3" value="" style="whiteSpace=wrap;html=1;fillColor=#FAE5C7;strokeColor=#0F8B8D;fontColor=#143642;rounded=1;sketch=1;" vertex="1" parent="kqftr6UnWCpk102pX667-2"><mxGeometry width="200" height="430" as="geometry"/></mxCell><mxCell id="kqftr6UnWCpk102pX667-4" value="HOME PAGE" style="text;html=1;strokeColor=none;fillColor=none;align=center;verticalAlign=middle;whiteSpace=wrap;fontColor=#143642;rounded=1;sketch=1;" vertex="1" parent="kqftr6UnWCpk102pX667-2"><mxGeometry x="10" y="10" width="140" height="30" as="geometry"/></mxCell><mxCell id="kqftr6UnWCpk102pX667-6" value="salesReportButton" style="whiteSpace=wrap;html=1;fillColor=#FAE5C7;strokeColor=#0F8B8D;fontColor=#143642;rounded=1;sketch=1;" vertex="1" parent="kqftr6UnWCpk102pX667-2"><mxGeometry x="30" y="340" width="120" height="60" as="geometry"/></mxCell><mxCell id="kqftr6UnWCpk102pX667-49" value="addValidityForm" style="whiteSpace=wrap;html=1;fillColor=#FAE5C7;strokeColor=#0F8B8D;fontColor=#143642;rounded=1;sketch=1;" vertex="1" parent="kqftr6UnWCpk102pX667-2"><mxGeometry x="30" y="134" width="120" height="60" as="geometry"/></mxCell><mxCell id="kqftr6UnWCpk102pX667-48" value="createServiceForm" style="whiteSpace=wrap;html=1;fillColor=#FAE5C7;strokeColor=#0F8B8D;fontColor=#143642;rounded=1;sketch=1;" vertex="1" parent="kqftr6UnWCpk102pX667-2"><mxGeometry x="30" y="270" width="120" height="60" as="geometry"/></mxCell><mxCell id="kqftr6UnWCpk102pX667-47" value="createOptionalForm" style="whiteSpace=wrap;html=1;fillColor=#FAE5C7;strokeColor=#0F8B8D;fontColor=#143642;rounded=1;sketch=1;" vertex="1" parent="kqftr6UnWCpk102pX667-2"><mxGeometry x="30" y="202" width="120" height="60" as="geometry"/></mxCell><mxCell id="kqftr6UnWCpk102pX667-50" value="createPackageForm" style="whiteSpace=wrap;html=1;fillColor=#FAE5C7;strokeColor=#0F8B8D;fontColor=#143642;rounded=1;sketch=1;" vertex="1" parent="kqftr6UnWCpk102pX667-2"><mxGeometry x="30" y="67" width="120" height="60" as="geometry"/></mxCell><mxCell id="kqftr6UnWCpk102pX667-7" value="" style="group;fontColor=#143642;rounded=1;sketch=1;" vertex="1" connectable="0" parent="kqftr6UnWCpk102pX667-1"><mxGeometry x="20" y="830" width="200" height="290" as="geometry"/></mxCell><mxCell id="kqftr6UnWCpk102pX667-8" value="" style="whiteSpace=wrap;html=1;fillColor=#FAE5C7;strokeColor=#0F8B8D;fontColor=#143642;rounded=1;sketch=1;" vertex="1" parent="kqftr6UnWCpk102pX667-7"><mxGeometry width="200" height="160" as="geometry"/></mxCell><mxCell id="kqftr6UnWCpk102pX667-9" value="SALES REPORT" style="text;html=1;strokeColor=none;fillColor=none;align=center;verticalAlign=middle;whiteSpace=wrap;fontColor=#143642;rounded=1;sketch=1;" vertex="1" parent="kqftr6UnWCpk102pX667-7"><mxGeometry x="10" y="10" width="140" height="30" as="geometry"/></mxCell><mxCell id="kqftr6UnWCpk102pX667-10" value="GoBack" style="whiteSpace=wrap;html=1;fillColor=#FAE5C7;strokeColor=#0F8B8D;fontColor=#143642;rounded=1;sketch=1;" vertex="1" parent="kqftr6UnWCpk102pX667-7"><mxGeometry x="40" y="70" width="120" height="60" as="geometry"/></mxCell><mxCell id="kqftr6UnWCpk102pX667-18" value="" style="endArrow=classic;html=1;startArrow=oval;startFill=1;endSize=6;startSize=20;endFill=1;exitX=1;exitY=0.5;exitDx=0;exitDy=0;entryX=0.75;entryY=1;entryDx=0;entryDy=0;labelBackgroundColor=#DAD2D8;strokeColor=#A8201A;fontColor=#143642;sketch=1;curved=1;" edge="1" parent="kqftr6UnWCpk102pX667-1" source="kqftr6UnWCpk102pX667-10" target="kqftr6UnWCpk102pX667-3"><mxGeometry width="50" height="50" relative="1" as="geometry"><mxPoint x="180" y="560" as="sourcePoint"/><mxPoint x="170" y="760" as="targetPoint"/><Array as="points"><mxPoint x="246" y="930"/><mxPoint x="246" y="790"/><mxPoint x="174" y="790"/></Array></mxGeometry></mxCell><mxCell id="kqftr6UnWCpk102pX667-25" value="Login" style="whiteSpace=wrap;html=1;dashed=1;fillColor=#FAE5C7;strokeColor=#0F8B8D;fontColor=#143642;rounded=1;sketch=1;" vertex="1" parent="kqftr6UnWCpk102pX667-1"><mxGeometry x="42" y="210" width="130" height="60" as="geometry"/></mxCell><mxCell id="kqftr6UnWCpk102pX667-27" value="GoToPage&lt;br&gt;@GoToSalesReportPageServlet" style="shape=parallelogram;perimeter=parallelogramPerimeter;whiteSpace=wrap;html=1;fixedSize=1;fillColor=#FAE5C7;strokeColor=#0F8B8D;fontColor=#143642;rounded=1;sketch=1;" vertex="1" parent="kqftr6UnWCpk102pX667-1"><mxGeometry x="383" y="760" width="214" height="60" as="geometry"/></mxCell><mxCell id="kqftr6UnWCpk102pX667-28" value="" style="endArrow=classic;html=1;startArrow=oval;startFill=1;endSize=6;startSize=20;endFill=1;exitX=0.5;exitY=1;exitDx=0;exitDy=0;labelBackgroundColor=#DAD2D8;strokeColor=#A8201A;fontColor=#143642;sketch=1;curved=1;" edge="1" parent="kqftr6UnWCpk102pX667-1" source="kqftr6UnWCpk102pX667-27" target="kqftr6UnWCpk102pX667-44"><mxGeometry width="50" height="50" relative="1" as="geometry"><mxPoint x="500" y="910" as="sourcePoint"/><mxPoint x="600" y="687.5" as="targetPoint"/><Array as="points"/></mxGeometry></mxCell><mxCell id="kqftr6UnWCpk102pX667-70" value="ok" style="edgeLabel;html=1;align=center;verticalAlign=middle;resizable=0;points=[];fontColor=#143642;labelBackgroundColor=#DAD2D8;rounded=1;sketch=1;" vertex="1" connectable="0" parent="kqftr6UnWCpk102pX667-28"><mxGeometry x="0.0067" y="2" relative="1" as="geometry"><mxPoint as="offset"/></mxGeometry></mxCell><mxCell id="kqftr6UnWCpk102pX667-32" value="" style="endArrow=classic;html=1;startArrow=oval;startFill=1;endSize=6;startSize=20;endFill=1;exitX=1;exitY=0.5;exitDx=0;exitDy=0;entryX=0;entryY=0.5;entryDx=0;entryDy=0;labelBackgroundColor=#DAD2D8;strokeColor=#A8201A;fontColor=#143642;sketch=1;curved=1;" edge="1" parent="kqftr6UnWCpk102pX667-1" source="kqftr6UnWCpk102pX667-6" target="kqftr6UnWCpk102pX667-27"><mxGeometry width="50" height="50" relative="1" as="geometry"><mxPoint x="184" y="560" as="sourcePoint"/><mxPoint x="234" y="772.5" as="targetPoint"/><Array as="points"><mxPoint x="320" y="700"/><mxPoint x="320" y="790"/></Array></mxGeometry></mxCell><mxCell id="kqftr6UnWCpk102pX667-42" value="" style="endArrow=classic;html=1;startArrow=oval;startFill=1;endSize=6;startSize=20;endFill=1;entryX=0.25;entryY=0;entryDx=0;entryDy=0;exitX=0.25;exitY=1;exitDx=0;exitDy=0;labelBackgroundColor=#DAD2D8;strokeColor=#A8201A;fontColor=#143642;sketch=1;curved=1;" edge="1" parent="kqftr6UnWCpk102pX667-1" target="kqftr6UnWCpk102pX667-3" source="kqftr6UnWCpk102pX667-25"><mxGeometry width="50" height="50" relative="1" as="geometry"><mxPoint x="74" y="290" as="sourcePoint"/><mxPoint x="80" y="320" as="targetPoint"/><Array as="points"/></mxGeometry></mxCell><mxCell id="kqftr6UnWCpk102pX667-45" style="edgeStyle=orthogonalEdgeStyle;orthogonalLoop=1;jettySize=auto;html=1;exitX=0;exitY=0.5;exitDx=0;exitDy=0;fontColor=#143642;fillColor=#FAE5C7;strokeColor=#A8201A;entryX=1;entryY=0.75;entryDx=0;entryDy=0;labelBackgroundColor=#DAD2D8;sketch=1;curved=1;" edge="1" parent="kqftr6UnWCpk102pX667-1" source="kqftr6UnWCpk102pX667-44" target="kqftr6UnWCpk102pX667-8"><mxGeometry relative="1" as="geometry"/></mxCell><mxCell id="kqftr6UnWCpk102pX667-44" value="PrepareDetails&lt;br&gt;@LoadSalesReportServlet" style="shape=parallelogram;perimeter=parallelogramPerimeter;whiteSpace=wrap;html=1;fixedSize=1;fillColor=#FAE5C7;strokeColor=#0F8B8D;fontColor=#143642;rounded=1;sketch=1;" vertex="1" parent="kqftr6UnWCpk102pX667-1"><mxGeometry x="383" y="920" width="214" height="60" as="geometry"/></mxCell><mxCell id="kqftr6UnWCpk102pX667-52" value="CreatePackage&lt;br&gt;@EmployeeCreationServlet" style="shape=parallelogram;perimeter=parallelogramPerimeter;whiteSpace=wrap;html=1;fixedSize=1;fillColor=#FAE5C7;strokeColor=#0F8B8D;fontColor=#143642;rounded=1;sketch=1;" vertex="1" parent="kqftr6UnWCpk102pX667-1"><mxGeometry x="393" y="397" width="214" height="60" as="geometry"/></mxCell><mxCell id="kqftr6UnWCpk102pX667-59" value="AddValidity&lt;br&gt;@EmployeeCreationServlet" style="shape=parallelogram;perimeter=parallelogramPerimeter;whiteSpace=wrap;html=1;fixedSize=1;fillColor=#FAE5C7;strokeColor=#0F8B8D;fontColor=#143642;rounded=1;sketch=1;" vertex="1" parent="kqftr6UnWCpk102pX667-1"><mxGeometry x="393" y="464" width="214" height="60" as="geometry"/></mxCell><mxCell id="kqftr6UnWCpk102pX667-60" value="CreateOptional&lt;br&gt;@EmployeeCreationServlet" style="shape=parallelogram;perimeter=parallelogramPerimeter;whiteSpace=wrap;html=1;fixedSize=1;fillColor=#FAE5C7;strokeColor=#0F8B8D;fontColor=#143642;rounded=1;sketch=1;" vertex="1" parent="kqftr6UnWCpk102pX667-1"><mxGeometry x="393" y="532" width="214" height="60" as="geometry"/></mxCell><mxCell id="kqftr6UnWCpk102pX667-61" value="CreateService&lt;br&gt;@EmployeeCreationServlet" style="shape=parallelogram;perimeter=parallelogramPerimeter;whiteSpace=wrap;html=1;fixedSize=1;fillColor=#FAE5C7;strokeColor=#0F8B8D;fontColor=#143642;rounded=1;sketch=1;" vertex="1" parent="kqftr6UnWCpk102pX667-1"><mxGeometry x="393" y="600" width="214" height="60" as="geometry"/></mxCell><mxCell id="kqftr6UnWCpk102pX667-62" value="" style="endArrow=classic;html=1;startArrow=oval;startFill=1;endSize=6;startSize=20;endFill=1;exitX=1;exitY=0.5;exitDx=0;exitDy=0;entryX=0;entryY=0.5;entryDx=0;entryDy=0;labelBackgroundColor=#DAD2D8;strokeColor=#A8201A;fontColor=#143642;sketch=1;curved=1;" edge="1" parent="kqftr6UnWCpk102pX667-1" source="kqftr6UnWCpk102pX667-50" target="kqftr6UnWCpk102pX667-52"><mxGeometry width="50" height="50" relative="1" as="geometry"><mxPoint x="184" y="710" as="sourcePoint"/><mxPoint x="403" y="800" as="targetPoint"/><Array as="points"/></mxGeometry></mxCell><mxCell id="kqftr6UnWCpk102pX667-63" value="" style="endArrow=classic;html=1;startArrow=oval;startFill=1;endSize=6;startSize=20;endFill=1;exitX=1;exitY=0.5;exitDx=0;exitDy=0;entryX=0;entryY=0.5;entryDx=0;entryDy=0;labelBackgroundColor=#DAD2D8;strokeColor=#A8201A;fontColor=#143642;sketch=1;curved=1;" edge="1" parent="kqftr6UnWCpk102pX667-1" source="kqftr6UnWCpk102pX667-49" target="kqftr6UnWCpk102pX667-59"><mxGeometry width="50" height="50" relative="1" as="geometry"><mxPoint x="184" y="437" as="sourcePoint"/><mxPoint x="413" y="370" as="targetPoint"/><Array as="points"/></mxGeometry></mxCell><mxCell id="kqftr6UnWCpk102pX667-64" value="" style="endArrow=classic;html=1;startArrow=oval;startFill=1;endSize=6;startSize=20;endFill=1;exitX=1;exitY=0.5;exitDx=0;exitDy=0;entryX=0;entryY=0.5;entryDx=0;entryDy=0;labelBackgroundColor=#DAD2D8;strokeColor=#A8201A;fontColor=#143642;sketch=1;curved=1;" edge="1" parent="kqftr6UnWCpk102pX667-1" source="kqftr6UnWCpk102pX667-47" target="kqftr6UnWCpk102pX667-60"><mxGeometry width="50" height="50" relative="1" as="geometry"><mxPoint x="194" y="447" as="sourcePoint"/><mxPoint x="423" y="380" as="targetPoint"/><Array as="points"/></mxGeometry></mxCell><mxCell id="kqftr6UnWCpk102pX667-65" value="" style="endArrow=classic;html=1;startArrow=oval;startFill=1;endSize=6;startSize=20;endFill=1;exitX=1;exitY=0.5;exitDx=0;exitDy=0;entryX=0;entryY=0.5;entryDx=0;entryDy=0;labelBackgroundColor=#DAD2D8;strokeColor=#A8201A;fontColor=#143642;sketch=1;curved=1;" edge="1" parent="kqftr6UnWCpk102pX667-1" source="kqftr6UnWCpk102pX667-48" target="kqftr6UnWCpk102pX667-61"><mxGeometry width="50" height="50" relative="1" as="geometry"><mxPoint x="204" y="457" as="sourcePoint"/><mxPoint x="433" y="390" as="targetPoint"/><Array as="points"/></mxGeometry></mxCell><mxCell id="kqftr6UnWCpk102pX667-67" value="" style="endArrow=classic;html=1;startArrow=oval;startFill=1;endSize=6;startSize=20;endFill=1;exitX=0.5;exitY=0;exitDx=0;exitDy=0;labelBackgroundColor=#DAD2D8;strokeColor=#A8201A;fontColor=#143642;sketch=1;curved=1;" edge="1" parent="kqftr6UnWCpk102pX667-1" source="kqftr6UnWCpk102pX667-27"><mxGeometry width="50" height="50" relative="1" as="geometry"><mxPoint x="184" y="710" as="sourcePoint"/><mxPoint x="220" y="660" as="targetPoint"/><Array as="points"><mxPoint x="490" y="710"/><mxPoint x="350" y="710"/><mxPoint x="350" y="660"/></Array></mxGeometry></mxCell><mxCell id="kqftr6UnWCpk102pX667-68" value="error" style="edgeLabel;html=1;align=center;verticalAlign=middle;resizable=0;points=[];fontColor=#143642;labelBackgroundColor=#DAD2D8;rounded=1;sketch=1;" vertex="1" connectable="0" parent="kqftr6UnWCpk102pX667-67"><mxGeometry x="0.242" y="1" relative="1" as="geometry"><mxPoint as="offset"/></mxGeometry></mxCell><mxCell id="kqftr6UnWCpk102pX667-71" value="" style="endArrow=classic;html=1;startArrow=oval;startFill=1;endSize=6;startSize=20;endFill=1;exitX=1;exitY=0.5;exitDx=0;exitDy=0;entryX=0.75;entryY=0;entryDx=0;entryDy=0;labelBackgroundColor=#DAD2D8;strokeColor=#A8201A;fontColor=#143642;sketch=1;curved=1;" edge="1" parent="kqftr6UnWCpk102pX667-1" source="kqftr6UnWCpk102pX667-61" target="kqftr6UnWCpk102pX667-3"><mxGeometry width="50" height="50" relative="1" as="geometry"><mxPoint x="184" y="640" as="sourcePoint"/><mxPoint x="770" y="290" as="targetPoint"/><Array as="points"><mxPoint x="770" y="630"/><mxPoint x="770" y="290"/><mxPoint x="174" y="290"/></Array></mxGeometry></mxCell><mxCell id="kqftr6UnWCpk102pX667-72" value="" style="endArrow=classic;html=1;startArrow=oval;startFill=1;endSize=6;startSize=20;endFill=1;exitX=1;exitY=0.5;exitDx=0;exitDy=0;entryX=0.75;entryY=0;entryDx=0;entryDy=0;labelBackgroundColor=#DAD2D8;strokeColor=#A8201A;fontColor=#143642;sketch=1;curved=1;" edge="1" parent="kqftr6UnWCpk102pX667-1" source="kqftr6UnWCpk102pX667-52" target="kqftr6UnWCpk102pX667-3"><mxGeometry width="50" height="50" relative="1" as="geometry"><mxPoint x="607" y="640" as="sourcePoint"/><mxPoint x="240" y="350" as="targetPoint"/><Array as="points"><mxPoint x="710" y="427"/><mxPoint x="710" y="290"/><mxPoint x="174" y="290"/></Array></mxGeometry></mxCell><mxCell id="kqftr6UnWCpk102pX667-73" value="" style="endArrow=classic;html=1;startArrow=oval;startFill=1;endSize=6;startSize=20;endFill=1;exitX=1;exitY=0.5;exitDx=0;exitDy=0;entryX=0.75;entryY=0;entryDx=0;entryDy=0;labelBackgroundColor=#DAD2D8;strokeColor=#A8201A;fontColor=#143642;sketch=1;curved=1;" edge="1" parent="kqftr6UnWCpk102pX667-1" source="kqftr6UnWCpk102pX667-59" target="kqftr6UnWCpk102pX667-3"><mxGeometry width="50" height="50" relative="1" as="geometry"><mxPoint x="617" y="650" as="sourcePoint"/><mxPoint x="194" y="350" as="targetPoint"/><Array as="points"><mxPoint x="730" y="494"/><mxPoint x="730" y="290"/><mxPoint x="174" y="290"/></Array></mxGeometry></mxCell><mxCell id="kqftr6UnWCpk102pX667-74" value="" style="endArrow=classic;html=1;startArrow=oval;startFill=1;endSize=6;startSize=20;endFill=1;exitX=1;exitY=0.5;exitDx=0;exitDy=0;entryX=0.75;entryY=0;entryDx=0;entryDy=0;labelBackgroundColor=#DAD2D8;strokeColor=#A8201A;fontColor=#143642;sketch=1;curved=1;" edge="1" parent="kqftr6UnWCpk102pX667-1" source="kqftr6UnWCpk102pX667-60" target="kqftr6UnWCpk102pX667-3"><mxGeometry width="50" height="50" relative="1" as="geometry"><mxPoint x="627" y="660" as="sourcePoint"/><mxPoint x="204" y="360" as="targetPoint"/><Array as="points"><mxPoint x="750" y="562"/><mxPoint x="750" y="290"/><mxPoint x="174" y="290"/></Array></mxGeometry></mxCell></root></mxGraphModel></diagram><diagram name="Employee_Pro" id="-1d2F8IgR-fJyW5xQMdE"><mxGraphModel dx="617" dy="561" grid="1" gridSize="10" guides="1" tooltips="1" connect="1" arrows="1" fold="1" page="1" pageScale="1" pageWidth="827" pageHeight="1169" math="0" shadow="0"><root><mxCell id="wbBlqRA6_rD5e0ZJQuGd-0"/><mxCell id="wbBlqRA6_rD5e0ZJQuGd-1" parent="wbBlqRA6_rD5e0ZJQuGd-0"/><mxCell id="wbBlqRA6_rD5e0ZJQuGd-2" value="" style="group;fontStyle=1" vertex="1" connectable="0" parent="wbBlqRA6_rD5e0ZJQuGd-1"><mxGeometry x="24" y="330" width="200" height="430" as="geometry"/></mxCell><mxCell id="wbBlqRA6_rD5e0ZJQuGd-3" value="" style="whiteSpace=wrap;html=1;" vertex="1" parent="wbBlqRA6_rD5e0ZJQuGd-2"><mxGeometry width="200" height="430" as="geometry"/></mxCell><mxCell id="wbBlqRA6_rD5e0ZJQuGd-4" value="HOME PAGE" style="text;html=1;strokeColor=none;fillColor=none;align=center;verticalAlign=middle;whiteSpace=wrap;" vertex="1" parent="wbBlqRA6_rD5e0ZJQuGd-2"><mxGeometry x="10" y="10" width="140" height="30" as="geometry"/></mxCell><mxCell id="wbBlqRA6_rD5e0ZJQuGd-5" value="salesReportButton" style="whiteSpace=wrap;html=1;" vertex="1" parent="wbBlqRA6_rD5e0ZJQuGd-2"><mxGeometry x="30" y="340" width="120" height="60" as="geometry"/></mxCell><mxCell id="wbBlqRA6_rD5e0ZJQuGd-6" value="addValidityForm" style="whiteSpace=wrap;html=1;" vertex="1" parent="wbBlqRA6_rD5e0ZJQuGd-2"><mxGeometry x="30" y="134" width="120" height="60" as="geometry"/></mxCell><mxCell id="wbBlqRA6_rD5e0ZJQuGd-7" value="createServiceForm" style="whiteSpace=wrap;html=1;" vertex="1" parent="wbBlqRA6_rD5e0ZJQuGd-2"><mxGeometry x="30" y="270" width="120" height="60" as="geometry"/></mxCell><mxCell id="wbBlqRA6_rD5e0ZJQuGd-8" value="createOptionalForm" style="whiteSpace=wrap;html=1;" vertex="1" parent="wbBlqRA6_rD5e0ZJQuGd-2"><mxGeometry x="30" y="202" width="120" height="60" as="geometry"/></mxCell><mxCell id="wbBlqRA6_rD5e0ZJQuGd-9" value="createPackageForm" style="whiteSpace=wrap;html=1;" vertex="1" parent="wbBlqRA6_rD5e0ZJQuGd-2"><mxGeometry x="30" y="67" width="120" height="60" as="geometry"/></mxCell><mxCell id="wbBlqRA6_rD5e0ZJQuGd-10" value="" style="group;" vertex="1" connectable="0" parent="wbBlqRA6_rD5e0ZJQuGd-1"><mxGeometry x="20" y="830" width="200" height="290" as="geometry"/></mxCell><mxCell id="wbBlqRA6_rD5e0ZJQuGd-11" value="" style="whiteSpace=wrap;html=1;" vertex="1" parent="wbBlqRA6_rD5e0ZJQuGd-10"><mxGeometry width="200" height="160" as="geometry"/></mxCell><mxCell id="wbBlqRA6_rD5e0ZJQuGd-12" value="SALES REPORT" style="text;html=1;strokeColor=none;fillColor=none;align=center;verticalAlign=middle;whiteSpace=wrap;" vertex="1" parent="wbBlqRA6_rD5e0ZJQuGd-10"><mxGeometry x="10" y="10" width="140" height="30" as="geometry"/></mxCell><mxCell id="wbBlqRA6_rD5e0ZJQuGd-13" value="GoBack" style="whiteSpace=wrap;html=1;" vertex="1" parent="wbBlqRA6_rD5e0ZJQuGd-10"><mxGeometry x="40" y="70" width="120" height="60" as="geometry"/></mxCell><mxCell id="wbBlqRA6_rD5e0ZJQuGd-14" value="" style="endArrow=classic;html=1;startArrow=oval;startFill=1;endSize=6;startSize=20;endFill=1;exitX=1;exitY=0.5;exitDx=0;exitDy=0;entryX=0.75;entryY=1;entryDx=0;entryDy=0;" edge="1" parent="wbBlqRA6_rD5e0ZJQuGd-1" source="wbBlqRA6_rD5e0ZJQuGd-13" target="wbBlqRA6_rD5e0ZJQuGd-3"><mxGeometry width="50" height="50" relative="1" as="geometry"><mxPoint x="180" y="560" as="sourcePoint"/><mxPoint x="170" y="760" as="targetPoint"/><Array as="points"><mxPoint x="246" y="930"/><mxPoint x="246" y="790"/><mxPoint x="174" y="790"/></Array></mxGeometry></mxCell><mxCell id="wbBlqRA6_rD5e0ZJQuGd-15" value="Login" style="whiteSpace=wrap;html=1;dashed=1;" vertex="1" parent="wbBlqRA6_rD5e0ZJQuGd-1"><mxGeometry x="42" y="210" width="130" height="60" as="geometry"/></mxCell><mxCell id="wbBlqRA6_rD5e0ZJQuGd-16" value="GoToPage&lt;br&gt;@GoToSalesReportPageServlet" style="shape=parallelogram;perimeter=parallelogramPerimeter;whiteSpace=wrap;html=1;fixedSize=1;" vertex="1" parent="wbBlqRA6_rD5e0ZJQuGd-1"><mxGeometry x="383" y="760" width="214" height="60" as="geometry"/></mxCell><mxCell id="wbBlqRA6_rD5e0ZJQuGd-17" value="" style="endArrow=classic;html=1;startArrow=oval;startFill=1;endSize=6;startSize=20;endFill=1;exitX=0.5;exitY=1;exitDx=0;exitDy=0;" edge="1" parent="wbBlqRA6_rD5e0ZJQuGd-1" source="wbBlqRA6_rD5e0ZJQuGd-16" target="wbBlqRA6_rD5e0ZJQuGd-22"><mxGeometry width="50" height="50" relative="1" as="geometry"><mxPoint x="500" y="910" as="sourcePoint"/><mxPoint x="600" y="687.5" as="targetPoint"/><Array as="points"/></mxGeometry></mxCell><mxCell id="wbBlqRA6_rD5e0ZJQuGd-18" value="ok" style="edgeLabel;html=1;align=center;verticalAlign=middle;resizable=0;points=[];fontColor=#FFFFFF;" vertex="1" connectable="0" parent="wbBlqRA6_rD5e0ZJQuGd-17"><mxGeometry x="0.0067" y="2" relative="1" as="geometry"><mxPoint as="offset"/></mxGeometry></mxCell><mxCell id="wbBlqRA6_rD5e0ZJQuGd-19" value="" style="endArrow=classic;html=1;startArrow=oval;startFill=1;endSize=6;startSize=20;endFill=1;exitX=1;exitY=0.5;exitDx=0;exitDy=0;entryX=0;entryY=0.5;entryDx=0;entryDy=0;" edge="1" parent="wbBlqRA6_rD5e0ZJQuGd-1" source="wbBlqRA6_rD5e0ZJQuGd-5" target="wbBlqRA6_rD5e0ZJQuGd-16"><mxGeometry width="50" height="50" relative="1" as="geometry"><mxPoint x="184" y="560" as="sourcePoint"/><mxPoint x="234" y="772.5" as="targetPoint"/><Array as="points"><mxPoint x="320" y="700"/><mxPoint x="320" y="790"/></Array></mxGeometry></mxCell><mxCell id="wbBlqRA6_rD5e0ZJQuGd-20" value="" style="endArrow=classic;html=1;startArrow=oval;startFill=1;endSize=6;startSize=20;endFill=1;entryX=0.25;entryY=0;entryDx=0;entryDy=0;exitX=0.25;exitY=1;exitDx=0;exitDy=0;" edge="1" parent="wbBlqRA6_rD5e0ZJQuGd-1" source="wbBlqRA6_rD5e0ZJQuGd-15" target="wbBlqRA6_rD5e0ZJQuGd-3"><mxGeometry width="50" height="50" relative="1" as="geometry"><mxPoint x="74" y="290" as="sourcePoint"/><mxPoint x="80" y="320" as="targetPoint"/><Array as="points"/></mxGeometry></mxCell><mxCell id="wbBlqRA6_rD5e0ZJQuGd-21" style="edgeStyle=orthogonalEdgeStyle;rounded=0;sketch=0;orthogonalLoop=1;jettySize=auto;html=1;exitX=0;exitY=0.5;exitDx=0;exitDy=0;fontColor=#143642;fillColor=#FAE5C7;strokeColor=#FFFFFF;entryX=1;entryY=0.75;entryDx=0;entryDy=0;" edge="1" parent="wbBlqRA6_rD5e0ZJQuGd-1" source="wbBlqRA6_rD5e0ZJQuGd-22" target="wbBlqRA6_rD5e0ZJQuGd-11"><mxGeometry relative="1" as="geometry"/></mxCell><mxCell id="wbBlqRA6_rD5e0ZJQuGd-22" value="PrepareDetails&lt;br&gt;@LoadSalesReportServlet" style="shape=parallelogram;perimeter=parallelogramPerimeter;whiteSpace=wrap;html=1;fixedSize=1;" vertex="1" parent="wbBlqRA6_rD5e0ZJQuGd-1"><mxGeometry x="383" y="920" width="214" height="60" as="geometry"/></mxCell><mxCell id="wbBlqRA6_rD5e0ZJQuGd-23" value="CreatePackage&lt;br&gt;@EmployeeCreationServlet" style="shape=parallelogram;perimeter=parallelogramPerimeter;whiteSpace=wrap;html=1;fixedSize=1;" vertex="1" parent="wbBlqRA6_rD5e0ZJQuGd-1"><mxGeometry x="393" y="397" width="214" height="60" as="geometry"/></mxCell><mxCell id="wbBlqRA6_rD5e0ZJQuGd-24" value="AddValidity&lt;br&gt;@EmployeeCreationServlet" style="shape=parallelogram;perimeter=parallelogramPerimeter;whiteSpace=wrap;html=1;fixedSize=1;" vertex="1" parent="wbBlqRA6_rD5e0ZJQuGd-1"><mxGeometry x="393" y="464" width="214" height="60" as="geometry"/></mxCell><mxCell id="wbBlqRA6_rD5e0ZJQuGd-25" value="CreateOptional&lt;br&gt;@EmployeeCreationServlet" style="shape=parallelogram;perimeter=parallelogramPerimeter;whiteSpace=wrap;html=1;fixedSize=1;" vertex="1" parent="wbBlqRA6_rD5e0ZJQuGd-1"><mxGeometry x="393" y="532" width="214" height="60" as="geometry"/></mxCell><mxCell id="wbBlqRA6_rD5e0ZJQuGd-26" value="CreateService&lt;br&gt;@EmployeeCreationServlet" style="shape=parallelogram;perimeter=parallelogramPerimeter;whiteSpace=wrap;html=1;fixedSize=1;" vertex="1" parent="wbBlqRA6_rD5e0ZJQuGd-1"><mxGeometry x="393" y="600" width="214" height="60" as="geometry"/></mxCell><mxCell id="wbBlqRA6_rD5e0ZJQuGd-27" value="" style="endArrow=classic;html=1;startArrow=oval;startFill=1;endSize=6;startSize=20;endFill=1;exitX=1;exitY=0.5;exitDx=0;exitDy=0;entryX=0;entryY=0.5;entryDx=0;entryDy=0;" edge="1" parent="wbBlqRA6_rD5e0ZJQuGd-1" source="wbBlqRA6_rD5e0ZJQuGd-9" target="wbBlqRA6_rD5e0ZJQuGd-23"><mxGeometry width="50" height="50" relative="1" as="geometry"><mxPoint x="184" y="710" as="sourcePoint"/><mxPoint x="403" y="800" as="targetPoint"/><Array as="points"/></mxGeometry></mxCell><mxCell id="wbBlqRA6_rD5e0ZJQuGd-28" value="" style="endArrow=classic;html=1;startArrow=oval;startFill=1;endSize=6;startSize=20;endFill=1;exitX=1;exitY=0.5;exitDx=0;exitDy=0;entryX=0;entryY=0.5;entryDx=0;entryDy=0;" edge="1" parent="wbBlqRA6_rD5e0ZJQuGd-1" source="wbBlqRA6_rD5e0ZJQuGd-6" target="wbBlqRA6_rD5e0ZJQuGd-24"><mxGeometry width="50" height="50" relative="1" as="geometry"><mxPoint x="184" y="437" as="sourcePoint"/><mxPoint x="413" y="370" as="targetPoint"/><Array as="points"/></mxGeometry></mxCell><mxCell id="wbBlqRA6_rD5e0ZJQuGd-29" value="" style="endArrow=classic;html=1;startArrow=oval;startFill=1;endSize=6;startSize=20;endFill=1;exitX=1;exitY=0.5;exitDx=0;exitDy=0;entryX=0;entryY=0.5;entryDx=0;entryDy=0;" edge="1" parent="wbBlqRA6_rD5e0ZJQuGd-1" source="wbBlqRA6_rD5e0ZJQuGd-8" target="wbBlqRA6_rD5e0ZJQuGd-25"><mxGeometry width="50" height="50" relative="1" as="geometry"><mxPoint x="194" y="447" as="sourcePoint"/><mxPoint x="423" y="380" as="targetPoint"/><Array as="points"/></mxGeometry></mxCell><mxCell id="wbBlqRA6_rD5e0ZJQuGd-30" value="" style="endArrow=classic;html=1;startArrow=oval;startFill=1;endSize=6;startSize=20;endFill=1;exitX=1;exitY=0.5;exitDx=0;exitDy=0;entryX=0;entryY=0.5;entryDx=0;entryDy=0;" edge="1" parent="wbBlqRA6_rD5e0ZJQuGd-1" source="wbBlqRA6_rD5e0ZJQuGd-7" target="wbBlqRA6_rD5e0ZJQuGd-26"><mxGeometry width="50" height="50" relative="1" as="geometry"><mxPoint x="204" y="457" as="sourcePoint"/><mxPoint x="433" y="390" as="targetPoint"/><Array as="points"/></mxGeometry></mxCell><mxCell id="wbBlqRA6_rD5e0ZJQuGd-31" value="" style="endArrow=classic;html=1;startArrow=oval;startFill=1;endSize=6;startSize=20;endFill=1;exitX=0.5;exitY=0;exitDx=0;exitDy=0;" edge="1" parent="wbBlqRA6_rD5e0ZJQuGd-1" source="wbBlqRA6_rD5e0ZJQuGd-16"><mxGeometry width="50" height="50" relative="1" as="geometry"><mxPoint x="184" y="710" as="sourcePoint"/><mxPoint x="220" y="660" as="targetPoint"/><Array as="points"><mxPoint x="490" y="710"/><mxPoint x="350" y="710"/><mxPoint x="350" y="660"/></Array></mxGeometry></mxCell><mxCell id="wbBlqRA6_rD5e0ZJQuGd-32" value="error" style="edgeLabel;html=1;align=center;verticalAlign=middle;resizable=0;points=[];fontColor=#FFFFFF;labelBackgroundColor=#333333;" vertex="1" connectable="0" parent="wbBlqRA6_rD5e0ZJQuGd-31"><mxGeometry x="0.242" y="1" relative="1" as="geometry"><mxPoint as="offset"/></mxGeometry></mxCell><mxCell id="wbBlqRA6_rD5e0ZJQuGd-33" value="" style="endArrow=classic;html=1;startArrow=oval;startFill=1;endSize=6;startSize=20;endFill=1;exitX=1;exitY=0.5;exitDx=0;exitDy=0;entryX=0.75;entryY=0;entryDx=0;entryDy=0;" edge="1" parent="wbBlqRA6_rD5e0ZJQuGd-1" source="wbBlqRA6_rD5e0ZJQuGd-26" target="wbBlqRA6_rD5e0ZJQuGd-3"><mxGeometry width="50" height="50" relative="1" as="geometry"><mxPoint x="184" y="640" as="sourcePoint"/><mxPoint x="770" y="290" as="targetPoint"/><Array as="points"><mxPoint x="770" y="630"/><mxPoint x="770" y="290"/><mxPoint x="174" y="290"/></Array></mxGeometry></mxCell><mxCell id="wbBlqRA6_rD5e0ZJQuGd-34" value="" style="endArrow=classic;html=1;startArrow=oval;startFill=1;endSize=6;startSize=20;endFill=1;exitX=1;exitY=0.5;exitDx=0;exitDy=0;entryX=0.75;entryY=0;entryDx=0;entryDy=0;" edge="1" parent="wbBlqRA6_rD5e0ZJQuGd-1" source="wbBlqRA6_rD5e0ZJQuGd-23" target="wbBlqRA6_rD5e0ZJQuGd-3"><mxGeometry width="50" height="50" relative="1" as="geometry"><mxPoint x="607" y="640" as="sourcePoint"/><mxPoint x="240" y="350" as="targetPoint"/><Array as="points"><mxPoint x="710" y="427"/><mxPoint x="710" y="290"/><mxPoint x="174" y="290"/></Array></mxGeometry></mxCell><mxCell id="wbBlqRA6_rD5e0ZJQuGd-35" value="" style="endArrow=classic;html=1;startArrow=oval;startFill=1;endSize=6;startSize=20;endFill=1;exitX=1;exitY=0.5;exitDx=0;exitDy=0;entryX=0.75;entryY=0;entryDx=0;entryDy=0;" edge="1" parent="wbBlqRA6_rD5e0ZJQuGd-1" source="wbBlqRA6_rD5e0ZJQuGd-24" target="wbBlqRA6_rD5e0ZJQuGd-3"><mxGeometry width="50" height="50" relative="1" as="geometry"><mxPoint x="617" y="650" as="sourcePoint"/><mxPoint x="194" y="350" as="targetPoint"/><Array as="points"><mxPoint x="730" y="494"/><mxPoint x="730" y="290"/><mxPoint x="174" y="290"/></Array></mxGeometry></mxCell><mxCell id="wbBlqRA6_rD5e0ZJQuGd-36" value="" style="endArrow=classic;html=1;startArrow=oval;startFill=1;endSize=6;startSize=20;endFill=1;exitX=1;exitY=0.5;exitDx=0;exitDy=0;entryX=0.75;entryY=0;entryDx=0;entryDy=0;" edge="1" parent="wbBlqRA6_rD5e0ZJQuGd-1" source="wbBlqRA6_rD5e0ZJQuGd-25" target="wbBlqRA6_rD5e0ZJQuGd-3"><mxGeometry width="50" height="50" relative="1" as="geometry"><mxPoint x="627" y="660" as="sourcePoint"/><mxPoint x="204" y="360" as="targetPoint"/><Array as="points"><mxPoint x="750" y="562"/><mxPoint x="750" y="290"/><mxPoint x="174" y="290"/></Array></mxGeometry></mxCell></root></mxGraphModel></diagram></mxfile>